<?xml version="1.0" encoding="utf-8" standalone="no"?>
<!DOCTYPE svg PUBLIC "-//W3C//DTD SVG 1.1//EN"
  "http://www.w3.org/Graphics/SVG/1.1/DTD/svg11.dtd">
<!-- Created with matplotlib (https://matplotlib.org/) -->
<svg height="864pt" version="1.1" viewBox="0 0 864 864" width="864pt" xmlns="http://www.w3.org/2000/svg" xmlns:xlink="http://www.w3.org/1999/xlink">
 <defs>
  <style type="text/css">
*{stroke-linecap:butt;stroke-linejoin:round;}
  </style>
 </defs>
 <g id="figure_1">
  <g id="patch_1">
   <path d="M 0 864 
L 864 864 
L 864 0 
L 0 0 
z
" style="fill:none;"/>
  </g>
  <g id="axes_1">
   <g id="patch_2">
    <path d="M 686.344725 432 
C 686.344725 371.768365 666.136992 313.243749 628.973435 265.844171 
C 591.809879 218.444593 539.796998 184.856748 481.304915 170.485728 
C 422.812833 156.114708 361.156988 161.775089 306.259289 186.555979 
C 251.361589 211.336868 206.333738 253.833641 178.421798 307.207544 
L 226.148043 332.166035 
C 248.477595 289.466913 284.499876 255.469495 328.418036 235.644783 
C 372.336196 215.820071 421.660871 211.291767 468.454537 222.788583 
C 515.248203 234.285399 556.858508 261.155675 586.589353 299.075337 
C 616.320198 336.994999 632.486385 383.814692 632.486385 432 
L 686.344725 432 
z
" style="fill:#2e7ebc;stroke:#ffffff;stroke-linejoin:miter;"/>
   </g>
   <g id="patch_3">
    <path d="M 178.421798 307.207544 
C 173.610064 316.40866 169.334519 325.880375 165.616584 335.575232 
C 161.898649 345.27009 158.744543 355.171872 156.17007 365.230968 
L 208.346661 378.584774 
C 210.40624 370.537498 212.929524 362.616072 215.903872 354.860186 
C 218.87822 347.1043 222.298657 339.526928 226.148043 332.166035 
L 178.421798 307.207544 
z
" style="fill:#3ba358;stroke:#ffffff;stroke-linejoin:miter;"/>
   </g>
   <g id="patch_4">
    <path d="M 156.17007 365.230968 
C 146.914579 401.394438 145.278843 439.090455 151.366975 475.919728 
C 157.455107 512.749001 171.135139 547.913217 191.536361 579.174229 
C 211.937582 610.435241 238.617774 637.115435 269.878785 657.516657 
C 301.139796 677.91788 336.304011 691.597914 373.133284 697.686048 
L 381.917232 644.548838 
C 352.453814 639.678332 324.322442 628.734304 299.313633 612.413326 
C 274.304824 596.092348 252.96067 574.748193 236.639694 549.739383 
C 220.318717 524.730574 209.37469 496.599201 204.504185 467.135783 
C 199.63368 437.672364 200.942268 407.51555 208.346661 378.584774 
L 156.17007 365.230968 
z
" style="fill:#fe9829;stroke:#ffffff;stroke-linejoin:miter;"/>
   </g>
   <g id="patch_5">
    <path d="M 373.133284 697.686048 
C 403.934437 702.777691 435.387709 702.474573 466.085014 696.790264 
C 496.782318 691.105954 526.258633 680.126562 553.194376 664.343608 
L 525.966106 617.874887 
C 504.417512 630.501249 480.836459 639.284763 456.278616 643.832211 
C 431.720773 648.379659 406.558155 648.622153 381.917232 644.548838 
L 373.133284 697.686048 
z
" style="fill:#d92523;stroke:#ffffff;stroke-linejoin:miter;"/>
   </g>
   <g id="patch_6">
    <path d="M 553.194376 664.343608 
C 565.141865 657.342997 576.531604 649.431262 587.262211 640.678826 
C 597.992819 631.926391 608.032364 622.3593 617.291483 612.06271 
L 577.243792 576.050168 
C 569.836496 584.28744 561.80486 591.941113 553.220374 598.943061 
C 544.635888 605.94501 535.524097 612.274397 525.966106 617.874887 
L 553.194376 664.343608 
z
" style="fill:#404040;stroke:#ffffff;stroke-linejoin:miter;"/>
   </g>
   <g id="patch_7">
    <path d="M 617.291483 612.06271 
C 639.332235 587.552326 656.686507 559.202074 668.489473 528.42475 
C 680.292439 497.647426 686.344725 464.962914 686.344725 432 
L 632.486385 432 
C 632.486385 458.370331 627.644556 484.517941 618.202183 509.1398 
C 608.759811 533.761659 594.876393 556.44186 577.243792 576.050168 
L 617.291483 612.06271 
z
" style="fill:#c01588;stroke:#ffffff;stroke-linejoin:miter;"/>
   </g>
   <g id="patch_8">
    <path d="M 632.486385 432 
C 632.486385 422.307929 631.832334 412.626895 630.528691 403.022898 
C 629.225049 393.418901 627.274783 383.913814 624.691191 374.572439 
L 546.826879 396.107774 
C 548.441624 401.946134 549.66054 407.886813 550.475317 413.889311 
C 551.290093 419.891809 551.698875 425.942455 551.698875 432 
L 632.486385 432 
z
" style="fill:#e3eef9;stroke:#ffffff;stroke-linejoin:miter;"/>
   </g>
   <g id="patch_9">
    <path d="M 624.691191 374.572439 
C 620.629001 359.88497 615.019857 345.669882 607.958014 332.166049 
C 600.896171 318.662216 592.42141 305.945704 582.676142 294.230207 
L 520.567473 345.893879 
C 526.658265 353.216065 531.954991 361.163885 536.368643 369.60378 
C 540.782295 378.043676 544.28801 386.928106 546.826879 396.107774 
L 624.691191 374.572439 
z
" style="fill:#dbe9f6;stroke:#ffffff;stroke-linejoin:miter;"/>
   </g>
   <g id="patch_10">
    <path d="M 582.676142 294.230207 
C 581.791029 293.166149 580.895683 292.110645 579.990228 291.063843 
C 579.084774 290.017041 578.169252 288.978989 577.243791 287.949831 
L 517.172254 341.968645 
C 517.750667 342.611868 518.322868 343.260651 518.888777 343.914902 
C 519.454686 344.569153 520.014278 345.228843 520.567473 345.893879 
L 582.676142 294.230207 
z
" style="fill:#d3e4f3;stroke:#ffffff;stroke-linejoin:miter;"/>
   </g>
   <g id="patch_11">
    <path d="M 577.243791 287.949831 
C 575.392826 285.891468 573.50236 283.868973 571.573445 281.883471 
C 569.644531 279.897969 567.677527 277.949829 565.673529 276.040138 
L 509.94084 334.525086 
C 511.193338 335.718643 512.422716 336.93623 513.628288 338.177169 
C 514.833859 339.418108 516.015401 340.682168 517.172254 341.968645 
L 577.243791 287.949831 
z
" style="fill:#cbdef1;stroke:#ffffff;stroke-linejoin:miter;"/>
   </g>
   <g id="patch_12">
    <path d="M 565.673529 276.040138 
C 564.671553 275.085315 563.660399 274.140169 562.640207 273.204834 
C 561.620016 272.269498 560.590835 271.344015 559.552807 270.428515 
L 506.115389 331.017822 
C 506.764156 331.59001 507.407394 332.168436 508.045014 332.753021 
C 508.682634 333.337606 509.314605 333.928322 509.94084 334.525086 
L 565.673529 276.040138 
z
" style="fill:#c2d9ee;stroke:#ffffff;stroke-linejoin:miter;"/>
   </g>
   <g id="patch_13">
    <path d="M 559.552807 270.428515 
C 549.16458 261.266502 537.916916 253.127671 525.966104 246.125112 
C 514.015291 239.122554 501.41694 233.288853 488.346107 228.705069 
L 461.611202 304.940668 
C 469.780472 307.805533 477.654441 311.451596 485.123699 315.828195 
C 492.592957 320.204794 499.622747 325.291564 506.115389 331.017822 
L 559.552807 270.428515 
z
" style="fill:#b5d4e9;stroke:#ffffff;stroke-linejoin:miter;"/>
   </g>
   <g id="patch_14">
    <path d="M 488.346107 228.705069 
C 480.507485 225.956158 472.51643 223.662908 464.412982 221.836808 
C 456.309533 220.010709 448.107247 218.654814 439.847219 217.775918 
L 431.299396 298.109949 
C 436.461914 298.659259 441.588343 299.506693 446.652998 300.648005 
C 451.717653 301.789318 456.712062 303.222599 461.611202 304.940668 
L 488.346107 228.705069 
z
" style="fill:#a8cee4;stroke:#ffffff;stroke-linejoin:miter;"/>
   </g>
   <g id="patch_15">
    <path d="M 439.847219 217.775918 
C 432.964448 217.043567 426.05038 216.643344 419.129078 216.576643 
C 412.207776 216.509942 405.287279 216.77684 398.391672 217.376407 
L 405.389679 297.860255 
C 409.699433 297.485525 414.024744 297.318714 418.350558 297.360402 
C 422.676372 297.40209 426.997665 297.652229 431.299396 298.109949 
L 439.847219 217.775918 
z
" style="fill:#9ac8e0;stroke:#ffffff;stroke-linejoin:miter;"/>
   </g>
   <g id="patch_16">
    <path d="M 398.391672 217.376407 
C 388.736031 218.215958 379.148042 219.706145 369.693068 221.836808 
C 360.238095 223.967472 350.937673 226.73376 341.855207 230.116814 
L 370.054389 305.823009 
C 375.73093 303.7086 381.543694 301.97967 387.453052 300.648005 
C 393.36241 299.31634 399.354904 298.384974 405.389679 297.860255 
L 398.391672 217.376407 
z
" style="fill:#89bedc;stroke:#ffffff;stroke-linejoin:miter;"/>
   </g>
   <g id="patch_17">
    <path d="M 341.855207 230.116814 
C 335.368935 232.532833 329.002865 235.260043 322.779154 238.288953 
C 316.555443 241.317862 310.48132 244.644954 304.577924 248.258649 
L 346.756087 317.161655 
C 350.445709 314.903096 354.242037 312.823664 358.131856 310.930595 
C 362.021675 309.037527 366.000469 307.33302 370.054389 305.823009 
L 341.855207 230.116814 
z
" style="fill:#79b5d9;stroke:#ffffff;stroke-linejoin:miter;"/>
   </g>
   <g id="patch_18">
    <path d="M 304.577924 248.258649 
C 293.94721 254.766115 283.901276 262.183913 274.553243 270.428515 
C 265.205211 278.673117 256.590299 287.713461 248.805516 297.447748 
L 311.898332 347.904843 
C 316.763821 341.820913 322.148141 336.170698 327.990661 331.017822 
C 333.833182 325.864945 340.111891 321.228822 346.756087 317.161655 
L 304.577924 248.258649 
z
" style="fill:#68acd5;stroke:#ffffff;stroke-linejoin:miter;"/>
   </g>
   <g id="patch_19">
    <path d="M 248.805516 297.447748 
C 244.482509 302.853345 240.422525 308.464143 236.639696 314.260613 
C 232.856866 320.057084 229.355584 326.032495 226.148035 332.166051 
L 297.737406 369.603782 
C 299.742124 365.77031 301.930426 362.035678 304.294694 358.412883 
C 306.658963 354.790089 309.196452 351.283341 311.898332 347.904843 
L 248.805516 297.447748 
z
" style="fill:#5ba3d0;stroke:#ffffff;stroke-linejoin:miter;"/>
   </g>
   <g id="patch_20">
    <path d="M 226.148035 332.166051 
C 225.506644 333.392534 224.877088 334.62517 224.259454 335.863787 
C 223.64182 337.102403 223.036136 338.346943 222.442488 339.597233 
L 295.421439 374.248271 
C 295.792469 373.46684 296.171022 372.689002 296.557043 371.914867 
C 296.943064 371.140731 297.336537 370.370334 297.737406 369.603782 
L 226.148035 332.166051 
z
" style="fill:#c8e99b;stroke:#ffffff;stroke-linejoin:miter;"/>
   </g>
   <g id="patch_21">
    <path d="M 222.442488 339.597233 
C 219.473694 345.849844 216.807958 352.241899 214.454558 358.751152 
C 212.101157 365.260406 210.062826 371.879297 208.346657 378.58479 
L 286.611545 398.615494 
C 287.684151 394.42456 288.958108 390.287753 290.428983 386.21947 
C 291.899858 382.151187 293.565943 378.156152 295.421439 374.248271 
L 222.442488 339.597233 
z
" style="fill:#a2d88a;stroke:#ffffff;stroke-linejoin:miter;"/>
   </g>
   <g id="patch_22">
    <path d="M 208.346657 378.58479 
C 206.630489 385.290283 205.238476 392.07459 204.175465 398.914098 
C 203.112453 405.753607 202.379677 412.640374 201.979687 419.55043 
L 282.632189 424.219019 
C 282.882182 419.900234 283.340168 415.596004 284.00455 411.321312 
C 284.668932 407.046619 285.53894 402.806427 286.611545 398.615494 
L 208.346657 378.58479 
z
" style="fill:#fff9c5;stroke:#ffffff;stroke-linejoin:miter;"/>
   </g>
   <g id="patch_23">
    <path d="M 201.979687 419.55043 
C 201.499658 427.843204 201.499658 436.156804 201.979687 444.449577 
C 202.459717 452.742351 203.418972 461.000424 204.852648 469.182422 
L 284.427789 455.239014 
C 283.531742 450.125265 282.932207 444.963969 282.632189 439.780986 
C 282.332171 434.598002 282.33217 429.402002 282.632189 424.219019 
L 201.979687 419.55043 
z
" style="fill:#fff5b8;stroke:#ffffff;stroke-linejoin:miter;"/>
   </g>
   <g id="patch_24">
    <path d="M 204.852648 469.182422 
C 206.286323 477.36442 208.192021 485.456655 210.560191 493.418582 
C 212.928362 501.380509 215.755045 509.198809 219.026076 516.83431 
L 293.286182 485.021444 
C 291.241787 480.249256 289.475111 475.362818 287.995004 470.386614 
C 286.514897 465.410409 285.323836 460.352763 284.427789 455.239014 
L 204.852648 469.182422 
z
" style="fill:#ffefaa;stroke:#ffffff;stroke-linejoin:miter;"/>
   </g>
   <g id="patch_25">
    <path d="M 219.026076 516.83431 
C 221.206427 521.923856 223.582179 526.927454 226.148039 531.833957 
C 228.7139 536.74046 231.467962 541.54622 234.40409 546.240532 
L 302.89744 503.400332 
C 301.06236 500.466388 299.341072 497.462787 297.737409 494.396223 
C 296.133746 491.329659 294.648901 488.20241 293.286182 485.021444 
L 219.026076 516.83431 
z
" style="fill:#fee89d;stroke:#ffffff;stroke-linejoin:miter;"/>
   </g>
   <g id="patch_26">
    <path d="M 234.40409 546.240532 
C 238.074505 552.10883 242.025602 557.79683 246.243628 563.284738 
C 250.461654 568.772645 254.941711 574.054085 259.668206 579.110677 
L 318.687513 523.944173 
C 315.733453 520.783803 312.933418 517.482903 310.297152 514.052961 
C 307.660885 510.623019 305.19145 507.068018 302.89744 503.400332 
L 234.40409 546.240532 
z
" style="fill:#fee28e;stroke:#ffffff;stroke-linejoin:miter;"/>
   </g>
   <g id="patch_27">
    <path d="M 259.668206 579.110677 
C 260.613329 580.121807 261.568175 581.123806 262.53261 582.116534 
C 263.497045 583.109262 264.471024 584.092673 265.454412 585.066629 
L 322.303892 527.666643 
C 321.689274 527.057921 321.080537 526.443289 320.477765 525.822834 
C 319.874994 525.202379 319.278215 524.57613 318.687513 523.944173 
L 259.668206 579.110677 
z
" style="fill:#fed87a;stroke:#ffffff;stroke-linejoin:miter;"/>
   </g>
   <g id="patch_28">
    <path d="M 265.454412 585.066629 
C 271.356337 590.911952 277.591401 596.411036 284.128364 601.53633 
C 290.665326 606.661624 297.493252 611.404553 304.57793 615.741355 
L 346.756091 546.838347 
C 342.328167 544.127846 338.060713 541.163515 333.975112 537.960206 
C 329.88951 534.756897 325.992595 531.31997 322.303892 527.666643 
L 265.454412 585.066629 
z
" style="fill:#fece65;stroke:#ffffff;stroke-linejoin:miter;"/>
   </g>
   <g id="patch_29">
    <path d="M 304.57793 615.741355 
C 306.938905 617.186598 309.327516 618.586201 311.742434 619.939384 
C 314.157351 621.292567 316.598125 622.599078 319.063397 623.858191 
L 355.809507 551.911369 
C 354.268713 551.124424 352.743229 550.307854 351.233905 549.462115 
C 349.724582 548.616376 348.2317 547.741624 346.756091 546.838347 
L 304.57793 615.741355 
z
" style="fill:#fec550;stroke:#ffffff;stroke-linejoin:miter;"/>
   </g>
   <g id="patch_30">
    <path d="M 319.063397 623.858191 
C 322.761448 625.746933 326.513334 627.528361 330.314352 629.200241 
C 334.11537 630.872122 337.963932 632.433757 341.855214 633.883189 
L 370.054393 558.176993 
C 367.622342 557.271098 365.216991 556.295076 362.841354 555.250151 
C 360.465718 554.205225 358.120789 553.091833 355.809507 551.911369 
L 319.063397 623.858191 
z
" style="fill:#feb744;stroke:#ffffff;stroke-linejoin:miter;"/>
   </g>
   <g id="patch_31">
    <path d="M 341.855214 633.883189 
C 348.341486 636.299207 354.940428 638.401228 361.629071 640.181935 
C 368.317715 641.962642 375.088293 643.419968 381.91724 644.54884 
L 395.093159 564.843025 
C 390.825067 564.13748 386.593456 563.226651 382.413054 562.113709 
C 378.232652 561.000767 374.108313 559.687004 370.054393 558.176993 
L 341.855214 633.883189 
z
" style="fill:#feaa38;stroke:#ffffff;stroke-linejoin:miter;"/>
   </g>
   <g id="patch_32">
    <path d="M 381.91724 644.54884 
C 394.214667 646.581689 406.665349 647.543471 419.129087 647.423357 
C 431.592824 647.303242 444.022659 646.101683 456.278623 643.83221 
L 441.569024 564.395131 
C 433.909046 565.813552 426.1404 566.564526 418.350564 566.639598 
C 410.560728 566.714669 402.779051 566.113556 395.093159 564.843025 
L 381.91724 644.54884 
z
" style="fill:#fdcab5;stroke:#ffffff;stroke-linejoin:miter;"/>
   </g>
   <g id="patch_33">
    <path d="M 456.278623 643.83221 
C 468.534588 641.562736 480.570508 638.233899 492.250852 633.883182 
C 503.931197 629.532466 515.211959 624.176261 525.966112 617.874883 
L 485.123705 548.171802 
C 478.402359 552.110163 471.351882 555.457791 464.051667 558.176989 
C 456.751452 560.896187 449.229002 562.97671 441.569024 564.395131 
L 456.278623 643.83221 
z
" style="fill:#fcab8f;stroke:#ffffff;stroke-linejoin:miter;"/>
   </g>
   <g id="patch_34">
    <path d="M 525.966112 617.874883 
C 531.938056 614.375632 537.737892 610.590606 543.345434 606.532977 
C 548.952975 602.475349 554.36171 598.149831 559.552814 593.571478 
L 506.115393 532.982174 
C 502.870953 535.843644 499.490494 538.547093 495.98578 541.083111 
C 492.481067 543.619128 488.85617 545.98477 485.123705 548.171802 
L 525.966112 617.874883 
z
" style="fill:#cecece;stroke:#ffffff;stroke-linejoin:miter;"/>
   </g>
   <g id="patch_35">
    <path d="M 559.552814 593.571478 
C 560.590842 592.655978 561.620024 591.730495 562.640215 590.79516 
C 563.660406 589.859824 564.67156 588.914678 565.673536 587.959855 
L 509.940844 529.474909 
C 509.314609 530.071674 508.682638 530.66239 508.045019 531.246975 
C 507.407399 531.83156 506.764161 532.409986 506.115393 532.982174 
L 559.552814 593.571478 
z
" style="fill:#b5b5b5;stroke:#ffffff;stroke-linejoin:miter;"/>
   </g>
   <g id="patch_36">
    <path d="M 565.673536 587.959855 
C 567.677534 586.050164 569.644538 584.102024 571.573452 582.116522 
C 573.502366 580.13102 575.392833 578.108524 577.243798 576.050161 
L 517.172258 522.031351 
C 516.015405 523.317828 514.833863 524.581887 513.628292 525.822826 
C 512.422721 527.063765 511.193343 528.281352 509.940844 529.474909 
L 565.673536 587.959855 
z
" style="fill:#959595;stroke:#ffffff;stroke-linejoin:miter;"/>
   </g>
   <g id="patch_37">
    <path d="M 577.243798 576.050161 
C 583.72443 568.843383 589.711347 561.207479 595.163733 553.194507 
C 600.616118 545.181534 605.521555 536.809742 609.8466 528.136206 
L 537.549009 492.085129 
C 534.845856 497.506089 531.779958 502.738459 528.372217 507.746567 
C 524.964476 512.754675 521.222653 517.527115 517.172258 522.031351 
L 577.243798 576.050161 
z
" style="fill:#fcd0cc;stroke:#ffffff;stroke-linejoin:miter;"/>
   </g>
   <g id="patch_38">
    <path d="M 609.8466 528.136206 
C 612.317423 523.181164 614.596302 518.132709 616.67816 513.002087 
C 618.760017 507.871466 620.643306 502.662491 622.323829 497.386769 
L 545.347278 472.86673 
C 544.29695 476.164057 543.119895 479.419666 541.818734 482.626305 
C 540.517573 485.832943 539.093274 488.988228 537.549009 492.085129 
L 609.8466 528.136206 
z
" style="fill:#fbb6bc;stroke:#ffffff;stroke-linejoin:miter;"/>
   </g>
   <g id="patch_39">
    <path d="M 622.323829 497.386769 
C 623.584154 493.430191 624.729821 489.438001 625.759395 485.415203 
C 626.788968 481.392405 627.702018 477.34068 628.4974 473.265107 
L 549.205759 457.790692 
C 548.708646 460.337925 548.13799 462.870253 547.494506 465.384502 
C 546.851022 467.898751 546.134981 470.393869 545.347278 472.86673 
L 622.323829 497.386769 
z
" style="fill:#f994b1;stroke:#ffffff;stroke-linejoin:miter;"/>
   </g>
   <g id="patch_40">
    <path d="M 628.4974 473.265107 
C 629.027633 470.548164 629.505451 467.821253 629.930587 465.085894 
C 630.355722 462.350535 630.728096 459.607236 631.047502 456.857525 
L 550.799573 447.535953 
C 550.599944 449.254523 550.367211 450.969084 550.101501 452.678684 
C 549.835791 454.388283 549.537155 456.092602 549.205759 457.790692 
L 628.4974 473.265107 
z
" style="fill:#f767a1;stroke:#ffffff;stroke-linejoin:miter;"/>
   </g>
   <g id="patch_41">
    <path d="M 631.047502 456.857525 
C 631.526628 452.732799 631.886399 448.595083 632.126364 444.449562 
C 632.366328 440.304041 632.486385 436.152449 632.486385 431.999989 
L 551.698875 431.999993 
C 551.698875 434.595281 551.623839 437.190026 551.473862 439.780976 
C 551.323884 442.371927 551.099027 444.958 550.799573 447.535953 
L 631.047502 456.857525 
z
" style="fill:#e23e99;stroke:#ffffff;stroke-linejoin:miter;"/>
   </g>
   <g id="matplotlib.axis_1"/>
   <g id="matplotlib.axis_2"/>
   <g id="patch_42">
    <path d="M 521.942285 505.051826 
Q 421.772929 422.100395 299.332701 465.766726 
" style="fill:none;stroke:#ffffff;stroke-linecap:round;stroke-width:1.5;"/>
    <path d="M 517.203724 494.311316 
L 521.942285 505.051826 
L 510.506741 502.398368 
" style="fill:none;stroke:#ffffff;stroke-linecap:round;stroke-width:1.5;"/>
    <path d="M 310.986119 467.184601 
L 299.332701 465.766726 
L 307.459051 457.294717 
" style="fill:none;stroke:#ffffff;stroke-linecap:round;stroke-width:1.5;"/>
   </g>
   <g id="patch_43">
    <path d="M 526.965492 371.885554 
Q 419.417103 433.093458 299.333668 390.157189 
" style="fill:none;stroke:#ffffff;stroke-linecap:round;stroke-width:1.5;"/>
    <path d="M 515.243093 372.516314 
L 526.965492 371.885554 
L 520.43666 381.641929 
" style="fill:none;stroke:#ffffff;stroke-linecap:round;stroke-width:1.5;"/>
    <path d="M 307.453104 398.635824 
L 299.333668 390.157189 
L 310.988238 388.748821 
" style="fill:none;stroke:#ffffff;stroke-linecap:round;stroke-width:1.5;"/>
   </g>
   <g id="patch_44">
    <path d="M 479.640962 324.652612 
Q 412.292259 426.079773 461.470176 549.76954 
" style="fill:none;stroke:#ffffff;stroke-linecap:round;stroke-width:1.5;"/>
    <path d="M 469.459086 330.49572 
L 479.640962 324.652612 
L 478.206323 336.303977 
" style="fill:none;stroke:#ffffff;stroke-linecap:round;stroke-width:1.5;"/>
    <path d="M 462.469391 538.072785 
L 461.470176 549.76954 
L 452.712301 541.952114 
" style="fill:none;stroke:#ffffff;stroke-linecap:round;stroke-width:1.5;"/>
   </g>
   <g id="patch_45">
    <path d="M 539.954913 413.490858 
Q 410.931949 425.777443 416.880003 557.587491 
" style="fill:none;stroke:#ffffff;stroke-dasharray:1.5,2.475;stroke-dashoffset:0;stroke-linecap:round;stroke-width:1.5;"/>
    <path d="M 529.004505 409.259892 
L 539.954913 413.490858 
L 529.999895 419.712604 
" style="fill:none;stroke:#ffffff;stroke-dasharray:1.5,2.475;stroke-dashoffset:0;stroke-linecap:round;stroke-width:1.5;"/>
    <path d="M 421.651325 546.861495 
L 416.880003 557.587491 
L 411.161999 547.334836 
" style="fill:none;stroke:#ffffff;stroke-dasharray:1.5,2.475;stroke-dashoffset:0;stroke-linecap:round;stroke-width:1.5;"/>
   </g>
   <g id="patch_46">
    <path d="M 338.641225 528.832203 
Q 410.268822 444.528049 416.845317 557.589584 
" style="fill:none;stroke:#d3d3d3;stroke-dasharray:5.55,2.4;stroke-dashoffset:0;stroke-linecap:round;stroke-width:1.5;"/>
    <path d="M 349.440734 524.229693 
L 338.641225 528.832203 
L 341.438923 517.431089 
" style="fill:none;stroke:#d3d3d3;stroke-dasharray:5.55,2.4;stroke-dashoffset:0;stroke-linecap:round;stroke-width:1.5;"/>
    <path d="M 421.476731 546.802439 
L 416.845317 557.589584 
L 410.994449 547.412166 
" style="fill:none;stroke:#d3d3d3;stroke-dasharray:5.55,2.4;stroke-dashoffset:0;stroke-linecap:round;stroke-width:1.5;"/>
   </g>
   <g id="text_1">
    <!-- Gitaly Team -->
    <defs>
     <path d="M 59.515625 10.40625 
L 59.515625 29.984375 
L 43.40625 29.984375 
L 43.40625 38.09375 
L 69.28125 38.09375 
L 69.28125 6.78125 
Q 63.578125 2.734375 56.6875 0.65625 
Q 49.8125 -1.421875 42 -1.421875 
Q 24.90625 -1.421875 15.25 8.5625 
Q 5.609375 18.5625 5.609375 36.375 
Q 5.609375 54.25 15.25 64.234375 
Q 24.90625 74.21875 42 74.21875 
Q 49.125 74.21875 55.546875 72.453125 
Q 61.96875 70.703125 67.390625 67.28125 
L 67.390625 56.78125 
Q 61.921875 61.421875 55.765625 63.765625 
Q 49.609375 66.109375 42.828125 66.109375 
Q 29.4375 66.109375 22.71875 58.640625 
Q 16.015625 51.171875 16.015625 36.375 
Q 16.015625 21.625 22.71875 14.15625 
Q 29.4375 6.6875 42.828125 6.6875 
Q 48.046875 6.6875 52.140625 7.59375 
Q 56.25 8.5 59.515625 10.40625 
z
" id="DejaVuSans-71"/>
     <path d="M 9.421875 54.6875 
L 18.40625 54.6875 
L 18.40625 0 
L 9.421875 0 
z
M 9.421875 75.984375 
L 18.40625 75.984375 
L 18.40625 64.59375 
L 9.421875 64.59375 
z
" id="DejaVuSans-105"/>
     <path d="M 18.3125 70.21875 
L 18.3125 54.6875 
L 36.8125 54.6875 
L 36.8125 47.703125 
L 18.3125 47.703125 
L 18.3125 18.015625 
Q 18.3125 11.328125 20.140625 9.421875 
Q 21.96875 7.515625 27.59375 7.515625 
L 36.8125 7.515625 
L 36.8125 0 
L 27.59375 0 
Q 17.1875 0 13.234375 3.875 
Q 9.28125 7.765625 9.28125 18.015625 
L 9.28125 47.703125 
L 2.6875 47.703125 
L 2.6875 54.6875 
L 9.28125 54.6875 
L 9.28125 70.21875 
z
" id="DejaVuSans-116"/>
     <path d="M 34.28125 27.484375 
Q 23.390625 27.484375 19.1875 25 
Q 14.984375 22.515625 14.984375 16.5 
Q 14.984375 11.71875 18.140625 8.90625 
Q 21.296875 6.109375 26.703125 6.109375 
Q 34.1875 6.109375 38.703125 11.40625 
Q 43.21875 16.703125 43.21875 25.484375 
L 43.21875 27.484375 
z
M 52.203125 31.203125 
L 52.203125 0 
L 43.21875 0 
L 43.21875 8.296875 
Q 40.140625 3.328125 35.546875 0.953125 
Q 30.953125 -1.421875 24.3125 -1.421875 
Q 15.921875 -1.421875 10.953125 3.296875 
Q 6 8.015625 6 15.921875 
Q 6 25.140625 12.171875 29.828125 
Q 18.359375 34.515625 30.609375 34.515625 
L 43.21875 34.515625 
L 43.21875 35.40625 
Q 43.21875 41.609375 39.140625 45 
Q 35.0625 48.390625 27.6875 48.390625 
Q 23 48.390625 18.546875 47.265625 
Q 14.109375 46.140625 10.015625 43.890625 
L 10.015625 52.203125 
Q 14.9375 54.109375 19.578125 55.046875 
Q 24.21875 56 28.609375 56 
Q 40.484375 56 46.34375 49.84375 
Q 52.203125 43.703125 52.203125 31.203125 
z
" id="DejaVuSans-97"/>
     <path d="M 9.421875 75.984375 
L 18.40625 75.984375 
L 18.40625 0 
L 9.421875 0 
z
" id="DejaVuSans-108"/>
     <path d="M 32.171875 -5.078125 
Q 28.375 -14.84375 24.75 -17.8125 
Q 21.140625 -20.796875 15.09375 -20.796875 
L 7.90625 -20.796875 
L 7.90625 -13.28125 
L 13.1875 -13.28125 
Q 16.890625 -13.28125 18.9375 -11.515625 
Q 21 -9.765625 23.484375 -3.21875 
L 25.09375 0.875 
L 2.984375 54.6875 
L 12.5 54.6875 
L 29.59375 11.921875 
L 46.6875 54.6875 
L 56.203125 54.6875 
z
" id="DejaVuSans-121"/>
     <path id="DejaVuSans-32"/>
     <path d="M -0.296875 72.90625 
L 61.375 72.90625 
L 61.375 64.59375 
L 35.5 64.59375 
L 35.5 0 
L 25.59375 0 
L 25.59375 64.59375 
L -0.296875 64.59375 
z
" id="DejaVuSans-84"/>
     <path d="M 56.203125 29.59375 
L 56.203125 25.203125 
L 14.890625 25.203125 
Q 15.484375 15.921875 20.484375 11.0625 
Q 25.484375 6.203125 34.421875 6.203125 
Q 39.59375 6.203125 44.453125 7.46875 
Q 49.3125 8.734375 54.109375 11.28125 
L 54.109375 2.78125 
Q 49.265625 0.734375 44.1875 -0.34375 
Q 39.109375 -1.421875 33.890625 -1.421875 
Q 20.796875 -1.421875 13.15625 6.1875 
Q 5.515625 13.8125 5.515625 26.8125 
Q 5.515625 40.234375 12.765625 48.109375 
Q 20.015625 56 32.328125 56 
Q 43.359375 56 49.78125 48.890625 
Q 56.203125 41.796875 56.203125 29.59375 
z
M 47.21875 32.234375 
Q 47.125 39.59375 43.09375 43.984375 
Q 39.0625 48.390625 32.421875 48.390625 
Q 24.90625 48.390625 20.390625 44.140625 
Q 15.875 39.890625 15.1875 32.171875 
z
" id="DejaVuSans-101"/>
     <path d="M 52 44.1875 
Q 55.375 50.25 60.0625 53.125 
Q 64.75 56 71.09375 56 
Q 79.640625 56 84.28125 50.015625 
Q 88.921875 44.046875 88.921875 33.015625 
L 88.921875 0 
L 79.890625 0 
L 79.890625 32.71875 
Q 79.890625 40.578125 77.09375 44.375 
Q 74.3125 48.1875 68.609375 48.1875 
Q 61.625 48.1875 57.5625 43.546875 
Q 53.515625 38.921875 53.515625 30.90625 
L 53.515625 0 
L 44.484375 0 
L 44.484375 32.71875 
Q 44.484375 40.625 41.703125 44.40625 
Q 38.921875 48.1875 33.109375 48.1875 
Q 26.21875 48.1875 22.15625 43.53125 
Q 18.109375 38.875 18.109375 30.90625 
L 18.109375 0 
L 9.078125 0 
L 9.078125 54.6875 
L 18.109375 54.6875 
L 18.109375 46.1875 
Q 21.1875 51.21875 25.484375 53.609375 
Q 29.78125 56 35.6875 56 
Q 41.65625 56 45.828125 52.96875 
Q 50 49.953125 52 44.1875 
z
" id="DejaVuSans-109"/>
    </defs>
    <g style="fill:#ffffff;" transform="translate(-0.34911 516.374698)scale(0.13 -0.13)">
     <use xlink:href="#DejaVuSans-71"/>
     <use x="77.490234" xlink:href="#DejaVuSans-105"/>
     <use x="105.273438" xlink:href="#DejaVuSans-116"/>
     <use x="144.482422" xlink:href="#DejaVuSans-97"/>
     <use x="205.761719" xlink:href="#DejaVuSans-108"/>
     <use x="233.544922" xlink:href="#DejaVuSans-121"/>
     <use x="292.724609" xlink:href="#DejaVuSans-32"/>
     <use x="324.511719" xlink:href="#DejaVuSans-84"/>
     <use x="385.330078" xlink:href="#DejaVuSans-101"/>
     <use x="446.853516" xlink:href="#DejaVuSans-97"/>
     <use x="508.132812" xlink:href="#DejaVuSans-109"/>
    </g>
   </g>
   <g id="patch_47">
    <path d="M 95.342596 511.400248 
Q 167.958485 441.424937 240.574374 371.449626 
" style="fill:none;stroke:#ffffff;stroke-linecap:round;"/>
   </g>
   <g id="text_2">
    <!-- Plan FE Team -->
    <defs>
     <path d="M 19.671875 64.796875 
L 19.671875 37.40625 
L 32.078125 37.40625 
Q 38.96875 37.40625 42.71875 40.96875 
Q 46.484375 44.53125 46.484375 51.125 
Q 46.484375 57.671875 42.71875 61.234375 
Q 38.96875 64.796875 32.078125 64.796875 
z
M 9.8125 72.90625 
L 32.078125 72.90625 
Q 44.34375 72.90625 50.609375 67.359375 
Q 56.890625 61.8125 56.890625 51.125 
Q 56.890625 40.328125 50.609375 34.8125 
Q 44.34375 29.296875 32.078125 29.296875 
L 19.671875 29.296875 
L 19.671875 0 
L 9.8125 0 
z
" id="DejaVuSans-80"/>
     <path d="M 54.890625 33.015625 
L 54.890625 0 
L 45.90625 0 
L 45.90625 32.71875 
Q 45.90625 40.484375 42.875 44.328125 
Q 39.84375 48.1875 33.796875 48.1875 
Q 26.515625 48.1875 22.3125 43.546875 
Q 18.109375 38.921875 18.109375 30.90625 
L 18.109375 0 
L 9.078125 0 
L 9.078125 54.6875 
L 18.109375 54.6875 
L 18.109375 46.1875 
Q 21.34375 51.125 25.703125 53.5625 
Q 30.078125 56 35.796875 56 
Q 45.21875 56 50.046875 50.171875 
Q 54.890625 44.34375 54.890625 33.015625 
z
" id="DejaVuSans-110"/>
     <path d="M 9.8125 72.90625 
L 51.703125 72.90625 
L 51.703125 64.59375 
L 19.671875 64.59375 
L 19.671875 43.109375 
L 48.578125 43.109375 
L 48.578125 34.8125 
L 19.671875 34.8125 
L 19.671875 0 
L 9.8125 0 
z
" id="DejaVuSans-70"/>
     <path d="M 9.8125 72.90625 
L 55.90625 72.90625 
L 55.90625 64.59375 
L 19.671875 64.59375 
L 19.671875 43.015625 
L 54.390625 43.015625 
L 54.390625 34.71875 
L 19.671875 34.71875 
L 19.671875 8.296875 
L 56.78125 8.296875 
L 56.78125 0 
L 9.8125 0 
z
" id="DejaVuSans-69"/>
    </defs>
    <g style="fill:#ffffff;" transform="translate(-0.34911 543.303868)scale(0.13 -0.13)">
     <use xlink:href="#DejaVuSans-80"/>
     <use x="60.302734" xlink:href="#DejaVuSans-108"/>
     <use x="88.085938" xlink:href="#DejaVuSans-97"/>
     <use x="149.365234" xlink:href="#DejaVuSans-110"/>
     <use x="212.744141" xlink:href="#DejaVuSans-32"/>
     <use x="244.53125" xlink:href="#DejaVuSans-70"/>
     <use x="302.050781" xlink:href="#DejaVuSans-69"/>
     <use x="365.234375" xlink:href="#DejaVuSans-32"/>
     <use x="397.021484" xlink:href="#DejaVuSans-84"/>
     <use x="457.839844" xlink:href="#DejaVuSans-101"/>
     <use x="519.363281" xlink:href="#DejaVuSans-97"/>
     <use x="580.642578" xlink:href="#DejaVuSans-109"/>
    </g>
   </g>
   <g id="patch_48">
    <path d="M 109.220758 538.975405 
Q 174.687038 512.788893 240.153318 486.602381 
" style="fill:none;stroke:#ffffff;stroke-linecap:round;"/>
   </g>
   <g id="text_3">
    <!-- Manage FE Team -->
    <defs>
     <path d="M 9.8125 72.90625 
L 24.515625 72.90625 
L 43.109375 23.296875 
L 61.8125 72.90625 
L 76.515625 72.90625 
L 76.515625 0 
L 66.890625 0 
L 66.890625 64.015625 
L 48.09375 14.015625 
L 38.1875 14.015625 
L 19.390625 64.015625 
L 19.390625 0 
L 9.8125 0 
z
" id="DejaVuSans-77"/>
     <path d="M 45.40625 27.984375 
Q 45.40625 37.75 41.375 43.109375 
Q 37.359375 48.484375 30.078125 48.484375 
Q 22.859375 48.484375 18.828125 43.109375 
Q 14.796875 37.75 14.796875 27.984375 
Q 14.796875 18.265625 18.828125 12.890625 
Q 22.859375 7.515625 30.078125 7.515625 
Q 37.359375 7.515625 41.375 12.890625 
Q 45.40625 18.265625 45.40625 27.984375 
z
M 54.390625 6.78125 
Q 54.390625 -7.171875 48.1875 -13.984375 
Q 42 -20.796875 29.203125 -20.796875 
Q 24.46875 -20.796875 20.265625 -20.09375 
Q 16.0625 -19.390625 12.109375 -17.921875 
L 12.109375 -9.1875 
Q 16.0625 -11.328125 19.921875 -12.34375 
Q 23.78125 -13.375 27.78125 -13.375 
Q 36.625 -13.375 41.015625 -8.765625 
Q 45.40625 -4.15625 45.40625 5.171875 
L 45.40625 9.625 
Q 42.625 4.78125 38.28125 2.390625 
Q 33.9375 0 27.875 0 
Q 17.828125 0 11.671875 7.65625 
Q 5.515625 15.328125 5.515625 27.984375 
Q 5.515625 40.671875 11.671875 48.328125 
Q 17.828125 56 27.875 56 
Q 33.9375 56 38.28125 53.609375 
Q 42.625 51.21875 45.40625 46.390625 
L 45.40625 54.6875 
L 54.390625 54.6875 
z
" id="DejaVuSans-103"/>
    </defs>
    <g style="fill:#ffffff;" transform="translate(-0.34911 570.233038)scale(0.13 -0.13)">
     <use xlink:href="#DejaVuSans-77"/>
     <use x="86.279297" xlink:href="#DejaVuSans-97"/>
     <use x="147.558594" xlink:href="#DejaVuSans-110"/>
     <use x="210.9375" xlink:href="#DejaVuSans-97"/>
     <use x="272.216797" xlink:href="#DejaVuSans-103"/>
     <use x="335.693359" xlink:href="#DejaVuSans-101"/>
     <use x="397.216797" xlink:href="#DejaVuSans-32"/>
     <use x="429.003906" xlink:href="#DejaVuSans-70"/>
     <use x="486.523438" xlink:href="#DejaVuSans-69"/>
     <use x="549.707031" xlink:href="#DejaVuSans-32"/>
     <use x="581.494141" xlink:href="#DejaVuSans-84"/>
     <use x="642.3125" xlink:href="#DejaVuSans-101"/>
     <use x="703.835938" xlink:href="#DejaVuSans-97"/>
     <use x="765.115234" xlink:href="#DejaVuSans-109"/>
    </g>
   </g>
   <g id="patch_49">
    <path d="M 136.293746 566.778984 
Q 215.086851 572.031857 293.879957 577.284731 
" style="fill:none;stroke:#ffffff;stroke-linecap:round;"/>
   </g>
   <g id="text_4">
    <!-- Core Team -->
    <defs>
     <path d="M 64.40625 67.28125 
L 64.40625 56.890625 
Q 59.421875 61.53125 53.78125 63.8125 
Q 48.140625 66.109375 41.796875 66.109375 
Q 29.296875 66.109375 22.65625 58.46875 
Q 16.015625 50.828125 16.015625 36.375 
Q 16.015625 21.96875 22.65625 14.328125 
Q 29.296875 6.6875 41.796875 6.6875 
Q 48.140625 6.6875 53.78125 8.984375 
Q 59.421875 11.28125 64.40625 15.921875 
L 64.40625 5.609375 
Q 59.234375 2.09375 53.4375 0.328125 
Q 47.65625 -1.421875 41.21875 -1.421875 
Q 24.65625 -1.421875 15.125 8.703125 
Q 5.609375 18.84375 5.609375 36.375 
Q 5.609375 53.953125 15.125 64.078125 
Q 24.65625 74.21875 41.21875 74.21875 
Q 47.75 74.21875 53.53125 72.484375 
Q 59.328125 70.75 64.40625 67.28125 
z
" id="DejaVuSans-67"/>
     <path d="M 30.609375 48.390625 
Q 23.390625 48.390625 19.1875 42.75 
Q 14.984375 37.109375 14.984375 27.296875 
Q 14.984375 17.484375 19.15625 11.84375 
Q 23.34375 6.203125 30.609375 6.203125 
Q 37.796875 6.203125 41.984375 11.859375 
Q 46.1875 17.53125 46.1875 27.296875 
Q 46.1875 37.015625 41.984375 42.703125 
Q 37.796875 48.390625 30.609375 48.390625 
z
M 30.609375 56 
Q 42.328125 56 49.015625 48.375 
Q 55.71875 40.765625 55.71875 27.296875 
Q 55.71875 13.875 49.015625 6.21875 
Q 42.328125 -1.421875 30.609375 -1.421875 
Q 18.84375 -1.421875 12.171875 6.21875 
Q 5.515625 13.875 5.515625 27.296875 
Q 5.515625 40.765625 12.171875 48.375 
Q 18.84375 56 30.609375 56 
z
" id="DejaVuSans-111"/>
     <path d="M 41.109375 46.296875 
Q 39.59375 47.171875 37.8125 47.578125 
Q 36.03125 48 33.890625 48 
Q 26.265625 48 22.1875 43.046875 
Q 18.109375 38.09375 18.109375 28.8125 
L 18.109375 0 
L 9.078125 0 
L 9.078125 54.6875 
L 18.109375 54.6875 
L 18.109375 46.1875 
Q 20.953125 51.171875 25.484375 53.578125 
Q 30.03125 56 36.53125 56 
Q 37.453125 56 38.578125 55.875 
Q 39.703125 55.765625 41.0625 55.515625 
z
" id="DejaVuSans-114"/>
    </defs>
    <g style="fill:#ffffff;" transform="translate(-0.34911 597.162208)scale(0.13 -0.13)">
     <use xlink:href="#DejaVuSans-67"/>
     <use x="69.824219" xlink:href="#DejaVuSans-111"/>
     <use x="131.005859" xlink:href="#DejaVuSans-114"/>
     <use x="172.087891" xlink:href="#DejaVuSans-101"/>
     <use x="233.611328" xlink:href="#DejaVuSans-32"/>
     <use x="265.398438" xlink:href="#DejaVuSans-84"/>
     <use x="326.216797" xlink:href="#DejaVuSans-101"/>
     <use x="387.740234" xlink:href="#DejaVuSans-97"/>
     <use x="449.019531" xlink:href="#DejaVuSans-109"/>
    </g>
   </g>
   <g id="patch_50">
    <path d="M 85.126104 593.73589 
Q 250.093064 607.039677 415.060025 620.343464 
" style="fill:none;stroke:#ffffff;stroke-linecap:round;"/>
   </g>
   <g id="text_5">
    <!-- Plan BE Team -->
    <defs>
     <path d="M 19.671875 34.8125 
L 19.671875 8.109375 
L 35.5 8.109375 
Q 43.453125 8.109375 47.28125 11.40625 
Q 51.125 14.703125 51.125 21.484375 
Q 51.125 28.328125 47.28125 31.5625 
Q 43.453125 34.8125 35.5 34.8125 
z
M 19.671875 64.796875 
L 19.671875 42.828125 
L 34.28125 42.828125 
Q 41.5 42.828125 45.03125 45.53125 
Q 48.578125 48.25 48.578125 53.8125 
Q 48.578125 59.328125 45.03125 62.0625 
Q 41.5 64.796875 34.28125 64.796875 
z
M 9.8125 72.90625 
L 35.015625 72.90625 
Q 46.296875 72.90625 52.390625 68.21875 
Q 58.5 63.53125 58.5 54.890625 
Q 58.5 48.1875 55.375 44.234375 
Q 52.25 40.28125 46.1875 39.3125 
Q 53.46875 37.75 57.5 32.78125 
Q 61.53125 27.828125 61.53125 20.40625 
Q 61.53125 10.640625 54.890625 5.3125 
Q 48.25 0 35.984375 0 
L 9.8125 0 
z
" id="DejaVuSans-66"/>
    </defs>
    <g style="fill:#ffffff;" transform="translate(740.203065 435.587188)scale(0.13 -0.13)">
     <use xlink:href="#DejaVuSans-80"/>
     <use x="60.302734" xlink:href="#DejaVuSans-108"/>
     <use x="88.085938" xlink:href="#DejaVuSans-97"/>
     <use x="149.365234" xlink:href="#DejaVuSans-110"/>
     <use x="212.744141" xlink:href="#DejaVuSans-32"/>
     <use x="244.53125" xlink:href="#DejaVuSans-66"/>
     <use x="313.134766" xlink:href="#DejaVuSans-69"/>
     <use x="376.318359" xlink:href="#DejaVuSans-32"/>
     <use x="408.105469" xlink:href="#DejaVuSans-84"/>
     <use x="468.923828" xlink:href="#DejaVuSans-101"/>
     <use x="530.447266" xlink:href="#DejaVuSans-97"/>
     <use x="591.726562" xlink:href="#DejaVuSans-109"/>
    </g>
   </g>
   <g id="patch_51">
    <path d="M 725.137588 430.799331 
Q 619.022378 351.212923 512.907167 271.626515 
" style="fill:none;stroke:#ffffff;stroke-linecap:round;"/>
   </g>
   <g id="text_6">
    <!-- Create BE Team -->
    <g style="fill:#ffffff;" transform="translate(740.203065 462.516358)scale(0.13 -0.13)">
     <use xlink:href="#DejaVuSans-67"/>
     <use x="69.824219" xlink:href="#DejaVuSans-114"/>
     <use x="110.90625" xlink:href="#DejaVuSans-101"/>
     <use x="172.429688" xlink:href="#DejaVuSans-97"/>
     <use x="233.708984" xlink:href="#DejaVuSans-116"/>
     <use x="272.917969" xlink:href="#DejaVuSans-101"/>
     <use x="334.441406" xlink:href="#DejaVuSans-32"/>
     <use x="366.228516" xlink:href="#DejaVuSans-66"/>
     <use x="434.832031" xlink:href="#DejaVuSans-69"/>
     <use x="498.015625" xlink:href="#DejaVuSans-32"/>
     <use x="529.802734" xlink:href="#DejaVuSans-84"/>
     <use x="590.621094" xlink:href="#DejaVuSans-101"/>
     <use x="652.144531" xlink:href="#DejaVuSans-97"/>
     <use x="713.423828" xlink:href="#DejaVuSans-109"/>
    </g>
   </g>
   <g id="patch_52">
    <path d="M 725.101305 457.780275 
Q 649.990883 405.071207 574.880461 352.362139 
" style="fill:none;stroke:#ffffff;stroke-linecap:round;"/>
   </g>
   <g id="text_7">
    <!-- Geo BE Team -->
    <g style="fill:#ffffff;" transform="translate(740.203065 489.445528)scale(0.13 -0.13)">
     <use xlink:href="#DejaVuSans-71"/>
     <use x="77.490234" xlink:href="#DejaVuSans-101"/>
     <use x="139.013672" xlink:href="#DejaVuSans-111"/>
     <use x="200.195312" xlink:href="#DejaVuSans-32"/>
     <use x="231.982422" xlink:href="#DejaVuSans-66"/>
     <use x="300.585938" xlink:href="#DejaVuSans-69"/>
     <use x="363.769531" xlink:href="#DejaVuSans-32"/>
     <use x="395.556641" xlink:href="#DejaVuSans-84"/>
     <use x="456.375" xlink:href="#DejaVuSans-101"/>
     <use x="517.898438" xlink:href="#DejaVuSans-97"/>
     <use x="579.177734" xlink:href="#DejaVuSans-109"/>
    </g>
   </g>
   <g id="patch_53">
    <path d="M 725.046203 484.800667 
Q 662.109073 445.464961 599.171944 406.129255 
" style="fill:none;stroke:#ffffff;stroke-linecap:round;"/>
   </g>
   <g id="text_8">
    <!-- Dev UX Team -->
    <defs>
     <path d="M 19.671875 64.796875 
L 19.671875 8.109375 
L 31.59375 8.109375 
Q 46.6875 8.109375 53.6875 14.9375 
Q 60.6875 21.78125 60.6875 36.53125 
Q 60.6875 51.171875 53.6875 57.984375 
Q 46.6875 64.796875 31.59375 64.796875 
z
M 9.8125 72.90625 
L 30.078125 72.90625 
Q 51.265625 72.90625 61.171875 64.09375 
Q 71.09375 55.28125 71.09375 36.53125 
Q 71.09375 17.671875 61.125 8.828125 
Q 51.171875 0 30.078125 0 
L 9.8125 0 
z
" id="DejaVuSans-68"/>
     <path d="M 2.984375 54.6875 
L 12.5 54.6875 
L 29.59375 8.796875 
L 46.6875 54.6875 
L 56.203125 54.6875 
L 35.6875 0 
L 23.484375 0 
z
" id="DejaVuSans-118"/>
     <path d="M 8.6875 72.90625 
L 18.609375 72.90625 
L 18.609375 28.609375 
Q 18.609375 16.890625 22.84375 11.734375 
Q 27.09375 6.59375 36.625 6.59375 
Q 46.09375 6.59375 50.34375 11.734375 
Q 54.59375 16.890625 54.59375 28.609375 
L 54.59375 72.90625 
L 64.5 72.90625 
L 64.5 27.390625 
Q 64.5 13.140625 57.4375 5.859375 
Q 50.390625 -1.421875 36.625 -1.421875 
Q 22.796875 -1.421875 15.734375 5.859375 
Q 8.6875 13.140625 8.6875 27.390625 
z
" id="DejaVuSans-85"/>
     <path d="M 6.296875 72.90625 
L 16.890625 72.90625 
L 35.015625 45.796875 
L 53.21875 72.90625 
L 63.8125 72.90625 
L 40.375 37.890625 
L 65.375 0 
L 54.78125 0 
L 34.28125 31 
L 13.625 0 
L 2.984375 0 
L 29 38.921875 
z
" id="DejaVuSans-88"/>
    </defs>
    <g style="fill:#ffffff;" transform="translate(740.203065 516.374698)scale(0.13 -0.13)">
     <use xlink:href="#DejaVuSans-68"/>
     <use x="77.001953" xlink:href="#DejaVuSans-101"/>
     <use x="138.525391" xlink:href="#DejaVuSans-118"/>
     <use x="197.705078" xlink:href="#DejaVuSans-32"/>
     <use x="229.492188" xlink:href="#DejaVuSans-85"/>
     <use x="302.685547" xlink:href="#DejaVuSans-88"/>
     <use x="371.191406" xlink:href="#DejaVuSans-32"/>
     <use x="402.978516" xlink:href="#DejaVuSans-84"/>
     <use x="463.796875" xlink:href="#DejaVuSans-101"/>
     <use x="525.320312" xlink:href="#DejaVuSans-97"/>
     <use x="586.599609" xlink:href="#DejaVuSans-109"/>
    </g>
   </g>
   <g id="patch_54">
    <path d="M 724.76506 513.121988 
Q 647.29475 526.252549 569.824439 539.38311 
" style="fill:none;stroke:#ffffff;stroke-linecap:round;"/>
   </g>
   <g id="text_9">
    <!-- Core Team Alumni -->
    <defs>
     <path d="M 34.1875 63.1875 
L 20.796875 26.90625 
L 47.609375 26.90625 
z
M 28.609375 72.90625 
L 39.796875 72.90625 
L 67.578125 0 
L 57.328125 0 
L 50.6875 18.703125 
L 17.828125 18.703125 
L 11.1875 0 
L 0.78125 0 
z
" id="DejaVuSans-65"/>
     <path d="M 8.5 21.578125 
L 8.5 54.6875 
L 17.484375 54.6875 
L 17.484375 21.921875 
Q 17.484375 14.15625 20.5 10.265625 
Q 23.53125 6.390625 29.59375 6.390625 
Q 36.859375 6.390625 41.078125 11.03125 
Q 45.3125 15.671875 45.3125 23.6875 
L 45.3125 54.6875 
L 54.296875 54.6875 
L 54.296875 0 
L 45.3125 0 
L 45.3125 8.40625 
Q 42.046875 3.421875 37.71875 1 
Q 33.40625 -1.421875 27.6875 -1.421875 
Q 18.265625 -1.421875 13.375 4.4375 
Q 8.5 10.296875 8.5 21.578125 
z
M 31.109375 56 
z
" id="DejaVuSans-117"/>
    </defs>
    <g style="fill:#ffffff;" transform="translate(740.203065 543.303868)scale(0.13 -0.13)">
     <use xlink:href="#DejaVuSans-67"/>
     <use x="69.824219" xlink:href="#DejaVuSans-111"/>
     <use x="131.005859" xlink:href="#DejaVuSans-114"/>
     <use x="172.087891" xlink:href="#DejaVuSans-101"/>
     <use x="233.611328" xlink:href="#DejaVuSans-32"/>
     <use x="265.398438" xlink:href="#DejaVuSans-84"/>
     <use x="326.216797" xlink:href="#DejaVuSans-101"/>
     <use x="387.740234" xlink:href="#DejaVuSans-97"/>
     <use x="449.019531" xlink:href="#DejaVuSans-109"/>
     <use x="546.431641" xlink:href="#DejaVuSans-32"/>
     <use x="578.21875" xlink:href="#DejaVuSans-65"/>
     <use x="646.626953" xlink:href="#DejaVuSans-108"/>
     <use x="674.410156" xlink:href="#DejaVuSans-117"/>
     <use x="737.789062" xlink:href="#DejaVuSans-109"/>
     <use x="835.201172" xlink:href="#DejaVuSans-110"/>
     <use x="898.580078" xlink:href="#DejaVuSans-105"/>
    </g>
   </g>
   <g id="patch_55">
    <path d="M 724.806726 540.241613 
Q 602.864269 573.378151 480.921811 606.514688 
" style="fill:none;stroke:#ffffff;stroke-linecap:round;"/>
   </g>
   <g id="text_10">
    <!-- Engineering team distribution at GitLab, April 2019 -->
    <defs>
     <path d="M 9.1875 72.90625 
L 59.90625 72.90625 
L 59.90625 58.6875 
L 27.984375 58.6875 
L 27.984375 45.125 
L 58.015625 45.125 
L 58.015625 30.90625 
L 27.984375 30.90625 
L 27.984375 14.203125 
L 60.984375 14.203125 
L 60.984375 0 
L 9.1875 0 
z
" id="DejaVuSans-Bold-69"/>
     <path d="M 63.375 33.296875 
L 63.375 0 
L 45.796875 0 
L 45.796875 5.421875 
L 45.796875 25.484375 
Q 45.796875 32.5625 45.484375 35.25 
Q 45.171875 37.9375 44.390625 39.203125 
Q 43.359375 40.921875 41.59375 41.875 
Q 39.84375 42.828125 37.59375 42.828125 
Q 32.125 42.828125 29 38.59375 
Q 25.875 34.375 25.875 26.90625 
L 25.875 0 
L 8.40625 0 
L 8.40625 54.6875 
L 25.875 54.6875 
L 25.875 46.6875 
Q 29.828125 51.46875 34.265625 53.734375 
Q 38.71875 56 44.09375 56 
Q 53.5625 56 58.46875 50.1875 
Q 63.375 44.390625 63.375 33.296875 
z
" id="DejaVuSans-Bold-110"/>
     <path d="M 45.609375 9.28125 
Q 42 4.5 37.640625 2.25 
Q 33.296875 0 27.59375 0 
Q 17.578125 0 11.03125 7.875 
Q 4.5 15.765625 4.5 27.984375 
Q 4.5 40.234375 11.03125 48.0625 
Q 17.578125 55.90625 27.59375 55.90625 
Q 33.296875 55.90625 37.640625 53.65625 
Q 42 51.421875 45.609375 46.578125 
L 45.609375 54.6875 
L 63.1875 54.6875 
L 63.1875 5.515625 
Q 63.1875 -7.671875 54.859375 -14.625 
Q 46.53125 -21.578125 30.71875 -21.578125 
Q 25.59375 -21.578125 20.796875 -20.796875 
Q 16.015625 -20.015625 11.1875 -18.40625 
L 11.1875 -4.78125 
Q 15.765625 -7.421875 20.15625 -8.71875 
Q 24.5625 -10.015625 29 -10.015625 
Q 37.59375 -10.015625 41.59375 -6.25 
Q 45.609375 -2.484375 45.609375 5.515625 
z
M 34.078125 43.3125 
Q 28.65625 43.3125 25.625 39.296875 
Q 22.609375 35.296875 22.609375 27.984375 
Q 22.609375 20.453125 25.53125 16.578125 
Q 28.46875 12.703125 34.078125 12.703125 
Q 39.546875 12.703125 42.578125 16.703125 
Q 45.609375 20.703125 45.609375 27.984375 
Q 45.609375 35.296875 42.578125 39.296875 
Q 39.546875 43.3125 34.078125 43.3125 
z
" id="DejaVuSans-Bold-103"/>
     <path d="M 8.40625 54.6875 
L 25.875 54.6875 
L 25.875 0 
L 8.40625 0 
z
M 8.40625 75.984375 
L 25.875 75.984375 
L 25.875 61.71875 
L 8.40625 61.71875 
z
" id="DejaVuSans-Bold-105"/>
     <path d="M 62.984375 27.484375 
L 62.984375 22.515625 
L 22.125 22.515625 
Q 22.75 16.359375 26.5625 13.28125 
Q 30.375 10.203125 37.203125 10.203125 
Q 42.71875 10.203125 48.5 11.84375 
Q 54.296875 13.484375 60.40625 16.796875 
L 60.40625 3.328125 
Q 54.203125 0.984375 48 -0.21875 
Q 41.796875 -1.421875 35.59375 -1.421875 
Q 20.75 -1.421875 12.515625 6.125 
Q 4.296875 13.671875 4.296875 27.296875 
Q 4.296875 40.671875 12.375 48.328125 
Q 20.453125 56 34.625 56 
Q 47.515625 56 55.25 48.234375 
Q 62.984375 40.484375 62.984375 27.484375 
z
M 45.015625 33.296875 
Q 45.015625 38.28125 42.109375 41.328125 
Q 39.203125 44.390625 34.515625 44.390625 
Q 29.4375 44.390625 26.265625 41.53125 
Q 23.09375 38.671875 22.3125 33.296875 
z
" id="DejaVuSans-Bold-101"/>
     <path d="M 49.03125 39.796875 
Q 46.734375 40.875 44.453125 41.375 
Q 42.1875 41.890625 39.890625 41.890625 
Q 33.15625 41.890625 29.515625 37.5625 
Q 25.875 33.25 25.875 25.203125 
L 25.875 0 
L 8.40625 0 
L 8.40625 54.6875 
L 25.875 54.6875 
L 25.875 45.703125 
Q 29.25 51.078125 33.609375 53.53125 
Q 37.984375 56 44.09375 56 
Q 44.96875 56 45.984375 55.921875 
Q 47.015625 55.859375 48.96875 55.609375 
z
" id="DejaVuSans-Bold-114"/>
     <path id="DejaVuSans-Bold-32"/>
     <path d="M 27.484375 70.21875 
L 27.484375 54.6875 
L 45.515625 54.6875 
L 45.515625 42.1875 
L 27.484375 42.1875 
L 27.484375 19 
Q 27.484375 15.1875 29 13.84375 
Q 30.515625 12.5 35.015625 12.5 
L 44 12.5 
L 44 0 
L 29 0 
Q 18.65625 0 14.328125 4.3125 
Q 10.015625 8.640625 10.015625 19 
L 10.015625 42.1875 
L 1.3125 42.1875 
L 1.3125 54.6875 
L 10.015625 54.6875 
L 10.015625 70.21875 
z
" id="DejaVuSans-Bold-116"/>
     <path d="M 32.90625 24.609375 
Q 27.4375 24.609375 24.671875 22.75 
Q 21.921875 20.90625 21.921875 17.28125 
Q 21.921875 13.96875 24.140625 12.078125 
Q 26.375 10.203125 30.328125 10.203125 
Q 35.25 10.203125 38.625 13.734375 
Q 42 17.28125 42 22.609375 
L 42 24.609375 
z
M 59.625 31.203125 
L 59.625 0 
L 42 0 
L 42 8.109375 
Q 38.484375 3.125 34.078125 0.84375 
Q 29.6875 -1.421875 23.390625 -1.421875 
Q 14.890625 -1.421875 9.59375 3.53125 
Q 4.296875 8.5 4.296875 16.40625 
Q 4.296875 26.03125 10.90625 30.515625 
Q 17.53125 35.015625 31.6875 35.015625 
L 42 35.015625 
L 42 36.375 
Q 42 40.53125 38.71875 42.453125 
Q 35.453125 44.390625 28.515625 44.390625 
Q 22.90625 44.390625 18.0625 43.265625 
Q 13.234375 42.140625 9.078125 39.890625 
L 9.078125 53.21875 
Q 14.703125 54.59375 20.359375 55.296875 
Q 26.03125 56 31.6875 56 
Q 46.484375 56 53.046875 50.171875 
Q 59.625 44.34375 59.625 31.203125 
z
" id="DejaVuSans-Bold-97"/>
     <path d="M 59.078125 45.609375 
Q 62.40625 50.6875 66.96875 53.34375 
Q 71.53125 56 77 56 
Q 86.421875 56 91.359375 50.1875 
Q 96.296875 44.390625 96.296875 33.296875 
L 96.296875 0 
L 78.71875 0 
L 78.71875 28.515625 
Q 78.765625 29.15625 78.78125 29.828125 
Q 78.8125 30.515625 78.8125 31.78125 
Q 78.8125 37.59375 77.09375 40.203125 
Q 75.390625 42.828125 71.578125 42.828125 
Q 66.609375 42.828125 63.890625 38.71875 
Q 61.1875 34.625 61.078125 26.859375 
L 61.078125 0 
L 43.5 0 
L 43.5 28.515625 
Q 43.5 37.59375 41.9375 40.203125 
Q 40.375 42.828125 36.375 42.828125 
Q 31.34375 42.828125 28.609375 38.703125 
Q 25.875 34.578125 25.875 26.90625 
L 25.875 0 
L 8.296875 0 
L 8.296875 54.6875 
L 25.875 54.6875 
L 25.875 46.6875 
Q 29.109375 51.3125 33.28125 53.65625 
Q 37.453125 56 42.484375 56 
Q 48.140625 56 52.484375 53.265625 
Q 56.84375 50.53125 59.078125 45.609375 
z
" id="DejaVuSans-Bold-109"/>
     <path d="M 45.609375 46.6875 
L 45.609375 75.984375 
L 63.1875 75.984375 
L 63.1875 0 
L 45.609375 0 
L 45.609375 7.90625 
Q 42 3.078125 37.640625 0.828125 
Q 33.296875 -1.421875 27.59375 -1.421875 
Q 17.484375 -1.421875 10.984375 6.609375 
Q 4.5 14.65625 4.5 27.296875 
Q 4.5 39.9375 10.984375 47.96875 
Q 17.484375 56 27.59375 56 
Q 33.25 56 37.625 53.734375 
Q 42 51.46875 45.609375 46.6875 
z
M 34.078125 11.28125 
Q 39.703125 11.28125 42.65625 15.375 
Q 45.609375 19.484375 45.609375 27.296875 
Q 45.609375 35.109375 42.65625 39.203125 
Q 39.703125 43.3125 34.078125 43.3125 
Q 28.515625 43.3125 25.5625 39.203125 
Q 22.609375 35.109375 22.609375 27.296875 
Q 22.609375 19.484375 25.5625 15.375 
Q 28.515625 11.28125 34.078125 11.28125 
z
" id="DejaVuSans-Bold-100"/>
     <path d="M 51.125 52.984375 
L 51.125 39.703125 
Q 45.515625 42.046875 40.28125 43.21875 
Q 35.0625 44.390625 30.421875 44.390625 
Q 25.4375 44.390625 23.015625 43.140625 
Q 20.609375 41.890625 20.609375 39.3125 
Q 20.609375 37.203125 22.4375 36.078125 
Q 24.265625 34.96875 29 34.421875 
L 32.078125 33.984375 
Q 45.515625 32.28125 50.140625 28.375 
Q 54.78125 24.46875 54.78125 16.109375 
Q 54.78125 7.375 48.328125 2.96875 
Q 41.890625 -1.421875 29.109375 -1.421875 
Q 23.6875 -1.421875 17.890625 -0.5625 
Q 12.109375 0.296875 6 2 
L 6 15.28125 
Q 11.234375 12.75 16.71875 11.46875 
Q 22.21875 10.203125 27.875 10.203125 
Q 33.015625 10.203125 35.59375 11.609375 
Q 38.1875 13.03125 38.1875 15.828125 
Q 38.1875 18.171875 36.40625 19.3125 
Q 34.625 20.453125 29.296875 21.09375 
L 26.21875 21.484375 
Q 14.546875 22.953125 9.859375 26.90625 
Q 5.171875 30.859375 5.171875 38.921875 
Q 5.171875 47.609375 11.125 51.796875 
Q 17.09375 56 29.390625 56 
Q 34.234375 56 39.546875 55.265625 
Q 44.875 54.546875 51.125 52.984375 
z
" id="DejaVuSans-Bold-115"/>
     <path d="M 37.5 11.28125 
Q 43.109375 11.28125 46.0625 15.375 
Q 49.03125 19.484375 49.03125 27.296875 
Q 49.03125 35.109375 46.0625 39.203125 
Q 43.109375 43.3125 37.5 43.3125 
Q 31.890625 43.3125 28.875 39.1875 
Q 25.875 35.0625 25.875 27.296875 
Q 25.875 19.53125 28.875 15.40625 
Q 31.890625 11.28125 37.5 11.28125 
z
M 25.875 46.6875 
Q 29.5 51.46875 33.890625 53.734375 
Q 38.28125 56 44 56 
Q 54.109375 56 60.59375 47.96875 
Q 67.09375 39.9375 67.09375 27.296875 
Q 67.09375 14.65625 60.59375 6.609375 
Q 54.109375 -1.421875 44 -1.421875 
Q 38.28125 -1.421875 33.890625 0.84375 
Q 29.5 3.125 25.875 7.90625 
L 25.875 0 
L 8.40625 0 
L 8.40625 75.984375 
L 25.875 75.984375 
z
" id="DejaVuSans-Bold-98"/>
     <path d="M 7.8125 21.296875 
L 7.8125 54.6875 
L 25.390625 54.6875 
L 25.390625 49.21875 
Q 25.390625 44.78125 25.34375 38.0625 
Q 25.296875 31.34375 25.296875 29.109375 
Q 25.296875 22.515625 25.640625 19.609375 
Q 25.984375 16.703125 26.8125 15.375 
Q 27.875 13.671875 29.609375 12.734375 
Q 31.34375 11.8125 33.59375 11.8125 
Q 39.0625 11.8125 42.1875 16.015625 
Q 45.3125 20.21875 45.3125 27.6875 
L 45.3125 54.6875 
L 62.796875 54.6875 
L 62.796875 0 
L 45.3125 0 
L 45.3125 7.90625 
Q 41.359375 3.125 36.9375 0.84375 
Q 32.515625 -1.421875 27.203125 -1.421875 
Q 17.71875 -1.421875 12.765625 4.390625 
Q 7.8125 10.203125 7.8125 21.296875 
z
" id="DejaVuSans-Bold-117"/>
     <path d="M 34.421875 43.5 
Q 28.609375 43.5 25.5625 39.328125 
Q 22.515625 35.15625 22.515625 27.296875 
Q 22.515625 19.4375 25.5625 15.25 
Q 28.609375 11.078125 34.421875 11.078125 
Q 40.140625 11.078125 43.15625 15.25 
Q 46.1875 19.4375 46.1875 27.296875 
Q 46.1875 35.15625 43.15625 39.328125 
Q 40.140625 43.5 34.421875 43.5 
z
M 34.421875 56 
Q 48.53125 56 56.46875 48.375 
Q 64.40625 40.765625 64.40625 27.296875 
Q 64.40625 13.8125 56.46875 6.1875 
Q 48.53125 -1.421875 34.421875 -1.421875 
Q 20.265625 -1.421875 12.28125 6.1875 
Q 4.296875 13.8125 4.296875 27.296875 
Q 4.296875 40.765625 12.28125 48.375 
Q 20.265625 56 34.421875 56 
z
" id="DejaVuSans-Bold-111"/>
     <path d="M 74.703125 5.421875 
Q 67.671875 2 60.109375 0.28125 
Q 52.546875 -1.421875 44.484375 -1.421875 
Q 26.265625 -1.421875 15.625 8.765625 
Q 4.984375 18.953125 4.984375 36.375 
Q 4.984375 54 15.8125 64.109375 
Q 26.65625 74.21875 45.515625 74.21875 
Q 52.78125 74.21875 59.4375 72.84375 
Q 66.109375 71.484375 72.015625 68.796875 
L 72.015625 53.71875 
Q 65.921875 57.171875 59.890625 58.875 
Q 53.859375 60.59375 47.796875 60.59375 
Q 36.578125 60.59375 30.5 54.3125 
Q 24.421875 48.046875 24.421875 36.375 
Q 24.421875 24.8125 30.28125 18.5 
Q 36.140625 12.203125 46.921875 12.203125 
Q 49.859375 12.203125 52.375 12.5625 
Q 54.890625 12.9375 56.890625 13.71875 
L 56.890625 27.875 
L 45.40625 27.875 
L 45.40625 40.484375 
L 74.703125 40.484375 
z
" id="DejaVuSans-Bold-71"/>
     <path d="M 9.1875 72.90625 
L 27.984375 72.90625 
L 27.984375 14.203125 
L 60.984375 14.203125 
L 60.984375 0 
L 9.1875 0 
z
" id="DejaVuSans-Bold-76"/>
     <path d="M 10.203125 18.890625 
L 27.78125 18.890625 
L 27.78125 4 
L 15.71875 -14.203125 
L 5.328125 -14.203125 
L 10.203125 4 
z
" id="DejaVuSans-Bold-44"/>
     <path d="M 53.421875 13.28125 
L 24.03125 13.28125 
L 19.390625 0 
L 0.484375 0 
L 27.484375 72.90625 
L 49.90625 72.90625 
L 76.90625 0 
L 58.015625 0 
z
M 28.71875 26.8125 
L 48.6875 26.8125 
L 38.71875 55.8125 
z
" id="DejaVuSans-Bold-65"/>
     <path d="M 25.875 7.90625 
L 25.875 -20.796875 
L 8.40625 -20.796875 
L 8.40625 54.6875 
L 25.875 54.6875 
L 25.875 46.6875 
Q 29.5 51.46875 33.890625 53.734375 
Q 38.28125 56 44 56 
Q 54.109375 56 60.59375 47.96875 
Q 67.09375 39.9375 67.09375 27.296875 
Q 67.09375 14.65625 60.59375 6.609375 
Q 54.109375 -1.421875 44 -1.421875 
Q 38.28125 -1.421875 33.890625 0.84375 
Q 29.5 3.125 25.875 7.90625 
z
M 37.5 43.3125 
Q 31.890625 43.3125 28.875 39.1875 
Q 25.875 35.0625 25.875 27.296875 
Q 25.875 19.53125 28.875 15.40625 
Q 31.890625 11.28125 37.5 11.28125 
Q 43.109375 11.28125 46.0625 15.375 
Q 49.03125 19.484375 49.03125 27.296875 
Q 49.03125 35.109375 46.0625 39.203125 
Q 43.109375 43.3125 37.5 43.3125 
z
" id="DejaVuSans-Bold-112"/>
     <path d="M 8.40625 75.984375 
L 25.875 75.984375 
L 25.875 0 
L 8.40625 0 
z
" id="DejaVuSans-Bold-108"/>
     <path d="M 28.8125 13.8125 
L 60.890625 13.8125 
L 60.890625 0 
L 7.90625 0 
L 7.90625 13.8125 
L 34.515625 37.3125 
Q 38.09375 40.53125 39.796875 43.609375 
Q 41.5 46.6875 41.5 50 
Q 41.5 55.125 38.0625 58.25 
Q 34.625 61.375 28.90625 61.375 
Q 24.515625 61.375 19.28125 59.5 
Q 14.0625 57.625 8.109375 53.90625 
L 8.109375 69.921875 
Q 14.453125 72.015625 20.65625 73.109375 
Q 26.859375 74.21875 32.8125 74.21875 
Q 45.90625 74.21875 53.15625 68.453125 
Q 60.40625 62.703125 60.40625 52.390625 
Q 60.40625 46.4375 57.328125 41.28125 
Q 54.25 36.140625 44.390625 27.484375 
z
" id="DejaVuSans-Bold-50"/>
     <path d="M 46 36.53125 
Q 46 50.203125 43.4375 55.78125 
Q 40.875 61.375 34.8125 61.375 
Q 28.765625 61.375 26.171875 55.78125 
Q 23.578125 50.203125 23.578125 36.53125 
Q 23.578125 22.703125 26.171875 17.03125 
Q 28.765625 11.375 34.8125 11.375 
Q 40.828125 11.375 43.40625 17.03125 
Q 46 22.703125 46 36.53125 
z
M 64.796875 36.375 
Q 64.796875 18.265625 56.984375 8.421875 
Q 49.171875 -1.421875 34.8125 -1.421875 
Q 20.40625 -1.421875 12.59375 8.421875 
Q 4.78125 18.265625 4.78125 36.375 
Q 4.78125 54.546875 12.59375 64.375 
Q 20.40625 74.21875 34.8125 74.21875 
Q 49.171875 74.21875 56.984375 64.375 
Q 64.796875 54.546875 64.796875 36.375 
z
" id="DejaVuSans-Bold-48"/>
     <path d="M 11.71875 12.984375 
L 28.328125 12.984375 
L 28.328125 60.109375 
L 11.28125 56.59375 
L 11.28125 69.390625 
L 28.21875 72.90625 
L 46.09375 72.90625 
L 46.09375 12.984375 
L 62.703125 12.984375 
L 62.703125 0 
L 11.71875 0 
z
" id="DejaVuSans-Bold-49"/>
     <path d="M 10.015625 1.609375 
L 10.015625 15.09375 
Q 14.5 12.984375 18.59375 11.9375 
Q 22.703125 10.890625 26.703125 10.890625 
Q 35.109375 10.890625 39.796875 15.546875 
Q 44.484375 20.21875 45.3125 29.390625 
Q 42 26.953125 38.234375 25.734375 
Q 34.46875 24.515625 30.078125 24.515625 
Q 18.890625 24.515625 12.03125 31.03125 
Q 5.171875 37.546875 5.171875 48.1875 
Q 5.171875 59.96875 12.8125 67.046875 
Q 20.453125 74.125 33.296875 74.125 
Q 47.5625 74.125 55.375 64.5 
Q 63.1875 54.890625 63.1875 37.3125 
Q 63.1875 19.234375 54.046875 8.90625 
Q 44.921875 -1.421875 29 -1.421875 
Q 23.875 -1.421875 19.1875 -0.65625 
Q 14.5 0.09375 10.015625 1.609375 
z
M 33.203125 36.71875 
Q 38.140625 36.71875 40.625 39.90625 
Q 43.109375 43.109375 43.109375 49.515625 
Q 43.109375 55.859375 40.625 59.078125 
Q 38.140625 62.3125 33.203125 62.3125 
Q 28.265625 62.3125 25.78125 59.078125 
Q 23.296875 55.859375 23.296875 49.515625 
Q 23.296875 43.109375 25.78125 39.90625 
Q 28.265625 36.71875 33.203125 36.71875 
z
" id="DejaVuSans-Bold-57"/>
    </defs>
    <g style="fill:#ffffff;" transform="translate(126.892088 123.046838)scale(0.2 -0.2)">
     <use xlink:href="#DejaVuSans-Bold-69"/>
     <use x="68.310547" xlink:href="#DejaVuSans-Bold-110"/>
     <use x="139.501953" xlink:href="#DejaVuSans-Bold-103"/>
     <use x="211.083984" xlink:href="#DejaVuSans-Bold-105"/>
     <use x="245.361328" xlink:href="#DejaVuSans-Bold-110"/>
     <use x="316.552734" xlink:href="#DejaVuSans-Bold-101"/>
     <use x="384.375" xlink:href="#DejaVuSans-Bold-101"/>
     <use x="452.197266" xlink:href="#DejaVuSans-Bold-114"/>
     <use x="501.513672" xlink:href="#DejaVuSans-Bold-105"/>
     <use x="535.791016" xlink:href="#DejaVuSans-Bold-110"/>
     <use x="606.982422" xlink:href="#DejaVuSans-Bold-103"/>
     <use x="678.564453" xlink:href="#DejaVuSans-Bold-32"/>
     <use x="713.378906" xlink:href="#DejaVuSans-Bold-116"/>
     <use x="761.181641" xlink:href="#DejaVuSans-Bold-101"/>
     <use x="829.003906" xlink:href="#DejaVuSans-Bold-97"/>
     <use x="896.484375" xlink:href="#DejaVuSans-Bold-109"/>
     <use x="1000.683594" xlink:href="#DejaVuSans-Bold-32"/>
     <use x="1035.498047" xlink:href="#DejaVuSans-Bold-100"/>
     <use x="1107.080078" xlink:href="#DejaVuSans-Bold-105"/>
     <use x="1141.357422" xlink:href="#DejaVuSans-Bold-115"/>
     <use x="1200.878906" xlink:href="#DejaVuSans-Bold-116"/>
     <use x="1248.681641" xlink:href="#DejaVuSans-Bold-114"/>
     <use x="1297.998047" xlink:href="#DejaVuSans-Bold-105"/>
     <use x="1332.275391" xlink:href="#DejaVuSans-Bold-98"/>
     <use x="1403.857422" xlink:href="#DejaVuSans-Bold-117"/>
     <use x="1475.048828" xlink:href="#DejaVuSans-Bold-116"/>
     <use x="1522.851562" xlink:href="#DejaVuSans-Bold-105"/>
     <use x="1557.128906" xlink:href="#DejaVuSans-Bold-111"/>
     <use x="1625.830078" xlink:href="#DejaVuSans-Bold-110"/>
     <use x="1697.021484" xlink:href="#DejaVuSans-Bold-32"/>
     <use x="1731.835938" xlink:href="#DejaVuSans-Bold-97"/>
     <use x="1799.316406" xlink:href="#DejaVuSans-Bold-116"/>
     <use x="1847.119141" xlink:href="#DejaVuSans-Bold-32"/>
     <use x="1881.933594" xlink:href="#DejaVuSans-Bold-71"/>
     <use x="1964.013672" xlink:href="#DejaVuSans-Bold-105"/>
     <use x="1998.291016" xlink:href="#DejaVuSans-Bold-116"/>
     <use x="2046.09375" xlink:href="#DejaVuSans-Bold-76"/>
     <use x="2109.814453" xlink:href="#DejaVuSans-Bold-97"/>
     <use x="2177.294922" xlink:href="#DejaVuSans-Bold-98"/>
     <use x="2248.876953" xlink:href="#DejaVuSans-Bold-44"/>
     <use x="2286.865234" xlink:href="#DejaVuSans-Bold-32"/>
     <use x="2321.679688" xlink:href="#DejaVuSans-Bold-65"/>
     <use x="2399.072266" xlink:href="#DejaVuSans-Bold-112"/>
     <use x="2470.654297" xlink:href="#DejaVuSans-Bold-114"/>
     <use x="2519.970703" xlink:href="#DejaVuSans-Bold-105"/>
     <use x="2554.248047" xlink:href="#DejaVuSans-Bold-108"/>
     <use x="2588.525391" xlink:href="#DejaVuSans-Bold-32"/>
     <use x="2623.339844" xlink:href="#DejaVuSans-Bold-50"/>
     <use x="2692.919922" xlink:href="#DejaVuSans-Bold-48"/>
     <use x="2762.5" xlink:href="#DejaVuSans-Bold-49"/>
     <use x="2832.080078" xlink:href="#DejaVuSans-Bold-57"/>
    </g>
   </g>
   <g id="legend_1">
    <g id="patch_56">
     <path d="M 494.87595 828.43755 
L 769.195481 828.43755 
Q 772.195481 828.43755 772.195481 825.43755 
L 772.195481 734.185987 
Q 772.195481 731.185987 769.195481 731.185987 
L 494.87595 731.185987 
Q 491.87595 731.185987 491.87595 734.185987 
L 491.87595 825.43755 
Q 491.87595 828.43755 494.87595 828.43755 
z
" style="fill:none;opacity:0.8;stroke:#cccccc;stroke-linejoin:miter;"/>
    </g>
    <g id="text_11">
     <!-- $\bf{Coding\:similarity\:by\:feature}$ -->
     <defs>
      <path d="M 67 4 
Q 61.8125 1.3125 56.203125 -0.046875 
Q 50.59375 -1.421875 44.484375 -1.421875 
Q 26.265625 -1.421875 15.625 8.765625 
Q 4.984375 18.953125 4.984375 36.375 
Q 4.984375 53.859375 15.625 64.03125 
Q 26.265625 74.21875 44.484375 74.21875 
Q 50.59375 74.21875 56.203125 72.84375 
Q 61.8125 71.484375 67 68.796875 
L 67 53.71875 
Q 61.765625 57.28125 56.6875 58.9375 
Q 51.609375 60.59375 46 60.59375 
Q 35.9375 60.59375 30.171875 54.140625 
Q 24.421875 47.703125 24.421875 36.375 
Q 24.421875 25.09375 30.171875 18.640625 
Q 35.9375 12.203125 46 12.203125 
Q 51.609375 12.203125 56.6875 13.859375 
Q 61.765625 15.53125 67 19.09375 
z
" id="DejaVuSans-Bold-67"/>
      <path d="M 1.21875 54.6875 
L 18.703125 54.6875 
L 33.40625 17.578125 
L 45.90625 54.6875 
L 63.375 54.6875 
L 40.375 -5.171875 
Q 36.921875 -14.3125 32.296875 -17.9375 
Q 27.6875 -21.578125 20.125 -21.578125 
L 10.015625 -21.578125 
L 10.015625 -10.109375 
L 15.484375 -10.109375 
Q 19.921875 -10.109375 21.9375 -8.6875 
Q 23.96875 -7.28125 25.09375 -3.609375 
L 25.59375 -2.09375 
z
" id="DejaVuSans-Bold-121"/>
      <path d="M 44.390625 75.984375 
L 44.390625 64.5 
L 34.71875 64.5 
Q 31 64.5 29.53125 63.15625 
Q 28.078125 61.8125 28.078125 58.5 
L 28.078125 54.6875 
L 43.015625 54.6875 
L 43.015625 42.1875 
L 28.078125 42.1875 
L 28.078125 0 
L 10.59375 0 
L 10.59375 42.1875 
L 1.90625 42.1875 
L 1.90625 54.6875 
L 10.59375 54.6875 
L 10.59375 58.5 
Q 10.59375 67.4375 15.578125 71.703125 
Q 20.5625 75.984375 31 75.984375 
z
" id="DejaVuSans-Bold-102"/>
     </defs>
     <g style="fill:#ffffff;" transform="translate(497.87595 748.585987)scale(0.15 -0.15)">
      <use transform="translate(0 0.015625)" xlink:href="#DejaVuSans-Bold-67"/>
      <use transform="translate(73.388672 0.015625)" xlink:href="#DejaVuSans-Bold-111"/>
      <use transform="translate(142.089844 0.015625)" xlink:href="#DejaVuSans-Bold-100"/>
      <use transform="translate(213.671875 0.015625)" xlink:href="#DejaVuSans-Bold-105"/>
      <use transform="translate(247.949219 0.015625)" xlink:href="#DejaVuSans-Bold-110"/>
      <use transform="translate(319.140625 0.015625)" xlink:href="#DejaVuSans-Bold-103"/>
      <use transform="translate(413.877807 0.015625)" xlink:href="#DejaVuSans-Bold-115"/>
      <use transform="translate(473.399291 0.015625)" xlink:href="#DejaVuSans-Bold-105"/>
      <use transform="translate(507.676635 0.015625)" xlink:href="#DejaVuSans-Bold-109"/>
      <use transform="translate(611.875854 0.015625)" xlink:href="#DejaVuSans-Bold-105"/>
      <use transform="translate(646.153197 0.015625)" xlink:href="#DejaVuSans-Bold-108"/>
      <use transform="translate(680.430541 0.015625)" xlink:href="#DejaVuSans-Bold-97"/>
      <use transform="translate(747.91101 0.015625)" xlink:href="#DejaVuSans-Bold-114"/>
      <use transform="translate(797.227416 0.015625)" xlink:href="#DejaVuSans-Bold-105"/>
      <use transform="translate(831.50476 0.015625)" xlink:href="#DejaVuSans-Bold-116"/>
      <use transform="translate(879.307494 0.015625)" xlink:href="#DejaVuSans-Bold-121"/>
      <use transform="translate(967.648191 0.015625)" xlink:href="#DejaVuSans-Bold-98"/>
      <use transform="translate(1039.230223 0.015625)" xlink:href="#DejaVuSans-Bold-121"/>
      <use transform="translate(1127.57092 0.015625)" xlink:href="#DejaVuSans-Bold-102"/>
      <use transform="translate(1171.076779 0.015625)" xlink:href="#DejaVuSans-Bold-101"/>
      <use transform="translate(1238.899045 0.015625)" xlink:href="#DejaVuSans-Bold-97"/>
      <use transform="translate(1306.379514 0.015625)" xlink:href="#DejaVuSans-Bold-116"/>
      <use transform="translate(1354.182248 0.015625)" xlink:href="#DejaVuSans-Bold-117"/>
      <use transform="translate(1425.373654 0.015625)" xlink:href="#DejaVuSans-Bold-114"/>
      <use transform="translate(1474.690061 0.015625)" xlink:href="#DejaVuSans-Bold-101"/>
     </g>
    </g>
    <g id="line2d_1">
     <path d="M 497.87595 770.033644 
L 527.87595 770.033644 
" style="fill:none;stroke:#ffffff;stroke-dasharray:1.5,2.475;stroke-dashoffset:0;stroke-width:1.5;"/>
    </g>
    <g id="line2d_2"/>
    <g id="text_12">
     <!-- Commit time series -->
     <defs>
      <path d="M 44.28125 53.078125 
L 44.28125 44.578125 
Q 40.484375 46.53125 36.375 47.5 
Q 32.28125 48.484375 27.875 48.484375 
Q 21.1875 48.484375 17.84375 46.4375 
Q 14.5 44.390625 14.5 40.28125 
Q 14.5 37.15625 16.890625 35.375 
Q 19.28125 33.59375 26.515625 31.984375 
L 29.59375 31.296875 
Q 39.15625 29.25 43.1875 25.515625 
Q 47.21875 21.78125 47.21875 15.09375 
Q 47.21875 7.46875 41.1875 3.015625 
Q 35.15625 -1.421875 24.609375 -1.421875 
Q 20.21875 -1.421875 15.453125 -0.5625 
Q 10.6875 0.296875 5.421875 2 
L 5.421875 11.28125 
Q 10.40625 8.6875 15.234375 7.390625 
Q 20.0625 6.109375 24.8125 6.109375 
Q 31.15625 6.109375 34.5625 8.28125 
Q 37.984375 10.453125 37.984375 14.40625 
Q 37.984375 18.0625 35.515625 20.015625 
Q 33.0625 21.96875 24.703125 23.78125 
L 21.578125 24.515625 
Q 13.234375 26.265625 9.515625 29.90625 
Q 5.8125 33.546875 5.8125 39.890625 
Q 5.8125 47.609375 11.28125 51.796875 
Q 16.75 56 26.8125 56 
Q 31.78125 56 36.171875 55.265625 
Q 40.578125 54.546875 44.28125 53.078125 
z
" id="DejaVuSans-115"/>
     </defs>
     <g style="fill:#ffffff;" transform="translate(539.87595 775.283644)scale(0.15 -0.15)">
      <use xlink:href="#DejaVuSans-67"/>
      <use x="69.824219" xlink:href="#DejaVuSans-111"/>
      <use x="131.005859" xlink:href="#DejaVuSans-109"/>
      <use x="228.417969" xlink:href="#DejaVuSans-109"/>
      <use x="325.830078" xlink:href="#DejaVuSans-105"/>
      <use x="353.613281" xlink:href="#DejaVuSans-116"/>
      <use x="392.822266" xlink:href="#DejaVuSans-32"/>
      <use x="424.609375" xlink:href="#DejaVuSans-116"/>
      <use x="463.818359" xlink:href="#DejaVuSans-105"/>
      <use x="491.601562" xlink:href="#DejaVuSans-109"/>
      <use x="589.013672" xlink:href="#DejaVuSans-101"/>
      <use x="650.537109" xlink:href="#DejaVuSans-32"/>
      <use x="682.324219" xlink:href="#DejaVuSans-115"/>
      <use x="734.423828" xlink:href="#DejaVuSans-101"/>
      <use x="795.947266" xlink:href="#DejaVuSans-114"/>
      <use x="837.060547" xlink:href="#DejaVuSans-105"/>
      <use x="864.84375" xlink:href="#DejaVuSans-101"/>
      <use x="926.367188" xlink:href="#DejaVuSans-115"/>
     </g>
    </g>
    <g id="line2d_3">
     <path d="M 497.87595 792.050831 
L 527.87595 792.050831 
" style="fill:none;stroke:#ffffff;stroke-linecap:square;stroke-width:1.5;"/>
    </g>
    <g id="line2d_4"/>
    <g id="text_13">
     <!-- Programming language usage -->
     <g style="fill:#ffffff;" transform="translate(539.87595 797.300831)scale(0.15 -0.15)">
      <use xlink:href="#DejaVuSans-80"/>
      <use x="60.287109" xlink:href="#DejaVuSans-114"/>
      <use x="101.369141" xlink:href="#DejaVuSans-111"/>
      <use x="162.550781" xlink:href="#DejaVuSans-103"/>
      <use x="226.027344" xlink:href="#DejaVuSans-114"/>
      <use x="267.140625" xlink:href="#DejaVuSans-97"/>
      <use x="328.419922" xlink:href="#DejaVuSans-109"/>
      <use x="425.832031" xlink:href="#DejaVuSans-109"/>
      <use x="523.244141" xlink:href="#DejaVuSans-105"/>
      <use x="551.027344" xlink:href="#DejaVuSans-110"/>
      <use x="614.40625" xlink:href="#DejaVuSans-103"/>
      <use x="677.882812" xlink:href="#DejaVuSans-32"/>
      <use x="709.669922" xlink:href="#DejaVuSans-108"/>
      <use x="737.453125" xlink:href="#DejaVuSans-97"/>
      <use x="798.732422" xlink:href="#DejaVuSans-110"/>
      <use x="862.111328" xlink:href="#DejaVuSans-103"/>
      <use x="925.587891" xlink:href="#DejaVuSans-117"/>
      <use x="988.966797" xlink:href="#DejaVuSans-97"/>
      <use x="1050.246094" xlink:href="#DejaVuSans-103"/>
      <use x="1113.722656" xlink:href="#DejaVuSans-101"/>
      <use x="1175.246094" xlink:href="#DejaVuSans-32"/>
      <use x="1207.033203" xlink:href="#DejaVuSans-117"/>
      <use x="1270.412109" xlink:href="#DejaVuSans-115"/>
      <use x="1322.511719" xlink:href="#DejaVuSans-97"/>
      <use x="1383.791016" xlink:href="#DejaVuSans-103"/>
      <use x="1447.267578" xlink:href="#DejaVuSans-101"/>
     </g>
    </g>
    <g id="line2d_5">
     <path d="M 497.87595 814.068019 
L 527.87595 814.068019 
" style="fill:none;stroke:#d3d3d3;stroke-dasharray:5.55,2.4;stroke-dashoffset:0;stroke-width:1.5;"/>
    </g>
    <g id="line2d_6"/>
    <g id="text_14">
     <!-- Source code identifiers -->
     <defs>
      <path d="M 53.515625 70.515625 
L 53.515625 60.890625 
Q 47.90625 63.578125 42.921875 64.890625 
Q 37.9375 66.21875 33.296875 66.21875 
Q 25.25 66.21875 20.875 63.09375 
Q 16.5 59.96875 16.5 54.203125 
Q 16.5 49.359375 19.40625 46.890625 
Q 22.3125 44.4375 30.421875 42.921875 
L 36.375 41.703125 
Q 47.40625 39.59375 52.65625 34.296875 
Q 57.90625 29 57.90625 20.125 
Q 57.90625 9.515625 50.796875 4.046875 
Q 43.703125 -1.421875 29.984375 -1.421875 
Q 24.8125 -1.421875 18.96875 -0.25 
Q 13.140625 0.921875 6.890625 3.21875 
L 6.890625 13.375 
Q 12.890625 10.015625 18.65625 8.296875 
Q 24.421875 6.59375 29.984375 6.59375 
Q 38.421875 6.59375 43.015625 9.90625 
Q 47.609375 13.234375 47.609375 19.390625 
Q 47.609375 24.75 44.3125 27.78125 
Q 41.015625 30.8125 33.5 32.328125 
L 27.484375 33.5 
Q 16.453125 35.6875 11.515625 40.375 
Q 6.59375 45.0625 6.59375 53.421875 
Q 6.59375 63.09375 13.40625 68.65625 
Q 20.21875 74.21875 32.171875 74.21875 
Q 37.3125 74.21875 42.625 73.28125 
Q 47.953125 72.359375 53.515625 70.515625 
z
" id="DejaVuSans-83"/>
      <path d="M 48.78125 52.59375 
L 48.78125 44.1875 
Q 44.96875 46.296875 41.140625 47.34375 
Q 37.3125 48.390625 33.40625 48.390625 
Q 24.65625 48.390625 19.8125 42.84375 
Q 14.984375 37.3125 14.984375 27.296875 
Q 14.984375 17.28125 19.8125 11.734375 
Q 24.65625 6.203125 33.40625 6.203125 
Q 37.3125 6.203125 41.140625 7.25 
Q 44.96875 8.296875 48.78125 10.40625 
L 48.78125 2.09375 
Q 45.015625 0.34375 40.984375 -0.53125 
Q 36.96875 -1.421875 32.421875 -1.421875 
Q 20.0625 -1.421875 12.78125 6.34375 
Q 5.515625 14.109375 5.515625 27.296875 
Q 5.515625 40.671875 12.859375 48.328125 
Q 20.21875 56 33.015625 56 
Q 37.15625 56 41.109375 55.140625 
Q 45.0625 54.296875 48.78125 52.59375 
z
" id="DejaVuSans-99"/>
      <path d="M 45.40625 46.390625 
L 45.40625 75.984375 
L 54.390625 75.984375 
L 54.390625 0 
L 45.40625 0 
L 45.40625 8.203125 
Q 42.578125 3.328125 38.25 0.953125 
Q 33.9375 -1.421875 27.875 -1.421875 
Q 17.96875 -1.421875 11.734375 6.484375 
Q 5.515625 14.40625 5.515625 27.296875 
Q 5.515625 40.1875 11.734375 48.09375 
Q 17.96875 56 27.875 56 
Q 33.9375 56 38.25 53.625 
Q 42.578125 51.265625 45.40625 46.390625 
z
M 14.796875 27.296875 
Q 14.796875 17.390625 18.875 11.75 
Q 22.953125 6.109375 30.078125 6.109375 
Q 37.203125 6.109375 41.296875 11.75 
Q 45.40625 17.390625 45.40625 27.296875 
Q 45.40625 37.203125 41.296875 42.84375 
Q 37.203125 48.484375 30.078125 48.484375 
Q 22.953125 48.484375 18.875 42.84375 
Q 14.796875 37.203125 14.796875 27.296875 
z
" id="DejaVuSans-100"/>
      <path d="M 37.109375 75.984375 
L 37.109375 68.5 
L 28.515625 68.5 
Q 23.6875 68.5 21.796875 66.546875 
Q 19.921875 64.59375 19.921875 59.515625 
L 19.921875 54.6875 
L 34.71875 54.6875 
L 34.71875 47.703125 
L 19.921875 47.703125 
L 19.921875 0 
L 10.890625 0 
L 10.890625 47.703125 
L 2.296875 47.703125 
L 2.296875 54.6875 
L 10.890625 54.6875 
L 10.890625 58.5 
Q 10.890625 67.625 15.140625 71.796875 
Q 19.390625 75.984375 28.609375 75.984375 
z
" id="DejaVuSans-102"/>
     </defs>
     <g style="fill:#ffffff;" transform="translate(539.87595 819.318019)scale(0.15 -0.15)">
      <use xlink:href="#DejaVuSans-83"/>
      <use x="63.476562" xlink:href="#DejaVuSans-111"/>
      <use x="124.658203" xlink:href="#DejaVuSans-117"/>
      <use x="188.037109" xlink:href="#DejaVuSans-114"/>
      <use x="229.119141" xlink:href="#DejaVuSans-99"/>
      <use x="284.099609" xlink:href="#DejaVuSans-101"/>
      <use x="345.623047" xlink:href="#DejaVuSans-32"/>
      <use x="377.410156" xlink:href="#DejaVuSans-99"/>
      <use x="432.390625" xlink:href="#DejaVuSans-111"/>
      <use x="493.572266" xlink:href="#DejaVuSans-100"/>
      <use x="557.048828" xlink:href="#DejaVuSans-101"/>
      <use x="618.572266" xlink:href="#DejaVuSans-32"/>
      <use x="650.359375" xlink:href="#DejaVuSans-105"/>
      <use x="678.142578" xlink:href="#DejaVuSans-100"/>
      <use x="741.619141" xlink:href="#DejaVuSans-101"/>
      <use x="803.142578" xlink:href="#DejaVuSans-110"/>
      <use x="866.521484" xlink:href="#DejaVuSans-116"/>
      <use x="905.730469" xlink:href="#DejaVuSans-105"/>
      <use x="933.513672" xlink:href="#DejaVuSans-102"/>
      <use x="968.71875" xlink:href="#DejaVuSans-105"/>
      <use x="996.501953" xlink:href="#DejaVuSans-101"/>
      <use x="1058.025391" xlink:href="#DejaVuSans-114"/>
      <use x="1099.138672" xlink:href="#DejaVuSans-115"/>
     </g>
    </g>
   </g>
   <g id="legend_2">
    <g id="patch_57">
     <path d="M 116.590256 828.43755 
L 339.2301 828.43755 
Q 342.2301 828.43755 342.2301 825.43755 
L 342.2301 734.185987 
Q 342.2301 731.185987 339.2301 731.185987 
L 116.590256 731.185987 
Q 113.590256 731.185987 113.590256 734.185987 
L 113.590256 825.43755 
Q 113.590256 828.43755 116.590256 828.43755 
z
" style="fill:none;opacity:0.8;stroke:#cccccc;stroke-linejoin:miter;"/>
    </g>
    <g id="text_15">
     <!-- $\bf{Engineering\:departments}$ -->
     <g style="fill:#ffffff;" transform="translate(119.590256 748.585987)scale(0.15 -0.15)">
      <use transform="translate(0 0.015625)" xlink:href="#DejaVuSans-Bold-69"/>
      <use transform="translate(68.310547 0.015625)" xlink:href="#DejaVuSans-Bold-110"/>
      <use transform="translate(139.501953 0.015625)" xlink:href="#DejaVuSans-Bold-103"/>
      <use transform="translate(211.083984 0.015625)" xlink:href="#DejaVuSans-Bold-105"/>
      <use transform="translate(245.361328 0.015625)" xlink:href="#DejaVuSans-Bold-110"/>
      <use transform="translate(316.552734 0.015625)" xlink:href="#DejaVuSans-Bold-101"/>
      <use transform="translate(384.375 0.015625)" xlink:href="#DejaVuSans-Bold-101"/>
      <use transform="translate(452.197266 0.015625)" xlink:href="#DejaVuSans-Bold-114"/>
      <use transform="translate(501.513672 0.015625)" xlink:href="#DejaVuSans-Bold-105"/>
      <use transform="translate(535.791016 0.015625)" xlink:href="#DejaVuSans-Bold-110"/>
      <use transform="translate(606.982422 0.015625)" xlink:href="#DejaVuSans-Bold-103"/>
      <use transform="translate(701.719604 0.015625)" xlink:href="#DejaVuSans-Bold-100"/>
      <use transform="translate(773.301635 0.015625)" xlink:href="#DejaVuSans-Bold-101"/>
      <use transform="translate(841.1239 0.015625)" xlink:href="#DejaVuSans-Bold-112"/>
      <use transform="translate(912.705932 0.015625)" xlink:href="#DejaVuSans-Bold-97"/>
      <use transform="translate(980.1864 0.015625)" xlink:href="#DejaVuSans-Bold-114"/>
      <use transform="translate(1029.502807 0.015625)" xlink:href="#DejaVuSans-Bold-116"/>
      <use transform="translate(1077.305541 0.015625)" xlink:href="#DejaVuSans-Bold-109"/>
      <use transform="translate(1181.50476 0.015625)" xlink:href="#DejaVuSans-Bold-101"/>
      <use transform="translate(1249.327025 0.015625)" xlink:href="#DejaVuSans-Bold-110"/>
      <use transform="translate(1320.518432 0.015625)" xlink:href="#DejaVuSans-Bold-116"/>
      <use transform="translate(1368.321166 0.015625)" xlink:href="#DejaVuSans-Bold-115"/>
     </g>
    </g>
    <g id="patch_58">
     <path d="M 119.590256 775.283644 
L 149.590256 775.283644 
L 149.590256 764.783644 
L 119.590256 764.783644 
z
" style="fill:#2e7ebc;stroke:#2e7ebc;stroke-linejoin:miter;"/>
    </g>
    <g id="text_16">
     <!-- Backend -->
     <defs>
      <path d="M 9.078125 75.984375 
L 18.109375 75.984375 
L 18.109375 31.109375 
L 44.921875 54.6875 
L 56.390625 54.6875 
L 27.390625 29.109375 
L 57.625 0 
L 45.90625 0 
L 18.109375 26.703125 
L 18.109375 0 
L 9.078125 0 
z
" id="DejaVuSans-107"/>
     </defs>
     <g style="fill:#ffffff;" transform="translate(161.590256 775.283644)scale(0.15 -0.15)">
      <use xlink:href="#DejaVuSans-66"/>
      <use x="68.603516" xlink:href="#DejaVuSans-97"/>
      <use x="129.882812" xlink:href="#DejaVuSans-99"/>
      <use x="184.863281" xlink:href="#DejaVuSans-107"/>
      <use x="242.726562" xlink:href="#DejaVuSans-101"/>
      <use x="304.25" xlink:href="#DejaVuSans-110"/>
      <use x="367.628906" xlink:href="#DejaVuSans-100"/>
     </g>
    </g>
    <g id="patch_59">
     <path d="M 119.590256 797.300831 
L 149.590256 797.300831 
L 149.590256 786.800831 
L 119.590256 786.800831 
z
" style="fill:#3ba358;stroke:#3ba358;stroke-linejoin:miter;"/>
    </g>
    <g id="text_17">
     <!-- Git -->
     <g style="fill:#ffffff;" transform="translate(161.590256 797.300831)scale(0.15 -0.15)">
      <use xlink:href="#DejaVuSans-71"/>
      <use x="77.490234" xlink:href="#DejaVuSans-105"/>
      <use x="105.273438" xlink:href="#DejaVuSans-116"/>
     </g>
    </g>
    <g id="patch_60">
     <path d="M 119.590256 819.318019 
L 149.590256 819.318019 
L 149.590256 808.818019 
L 119.590256 808.818019 
z
" style="fill:#fe9829;stroke:#fe9829;stroke-linejoin:miter;"/>
    </g>
    <g id="text_18">
     <!-- Frontend -->
     <g style="fill:#ffffff;" transform="translate(161.590256 819.318019)scale(0.15 -0.15)">
      <use xlink:href="#DejaVuSans-70"/>
      <use x="57.410156" xlink:href="#DejaVuSans-114"/>
      <use x="98.492188" xlink:href="#DejaVuSans-111"/>
      <use x="159.673828" xlink:href="#DejaVuSans-110"/>
      <use x="223.052734" xlink:href="#DejaVuSans-116"/>
      <use x="262.261719" xlink:href="#DejaVuSans-101"/>
      <use x="323.785156" xlink:href="#DejaVuSans-110"/>
      <use x="387.164062" xlink:href="#DejaVuSans-100"/>
     </g>
    </g>
    <g id="patch_61">
     <path d="M 259.18635 775.283644 
L 289.18635 775.283644 
L 289.18635 764.783644 
L 259.18635 764.783644 
z
" style="fill:#d92523;stroke:#d92523;stroke-linejoin:miter;"/>
    </g>
    <g id="text_19">
     <!-- Core -->
     <g style="fill:#ffffff;" transform="translate(301.18635 775.283644)scale(0.15 -0.15)">
      <use xlink:href="#DejaVuSans-67"/>
      <use x="69.824219" xlink:href="#DejaVuSans-111"/>
      <use x="131.005859" xlink:href="#DejaVuSans-114"/>
      <use x="172.087891" xlink:href="#DejaVuSans-101"/>
     </g>
    </g>
    <g id="patch_62">
     <path d="M 259.18635 797.300831 
L 289.18635 797.300831 
L 289.18635 786.800831 
L 259.18635 786.800831 
z
" style="fill:#404040;stroke:#404040;stroke-linejoin:miter;"/>
    </g>
    <g id="text_20">
     <!-- QE -->
     <defs>
      <path d="M 39.40625 66.21875 
Q 28.65625 66.21875 22.328125 58.203125 
Q 16.015625 50.203125 16.015625 36.375 
Q 16.015625 22.609375 22.328125 14.59375 
Q 28.65625 6.59375 39.40625 6.59375 
Q 50.140625 6.59375 56.421875 14.59375 
Q 62.703125 22.609375 62.703125 36.375 
Q 62.703125 50.203125 56.421875 58.203125 
Q 50.140625 66.21875 39.40625 66.21875 
z
M 53.21875 1.3125 
L 66.21875 -12.890625 
L 54.296875 -12.890625 
L 43.5 -1.21875 
Q 41.890625 -1.3125 41.03125 -1.359375 
Q 40.1875 -1.421875 39.40625 -1.421875 
Q 24.03125 -1.421875 14.8125 8.859375 
Q 5.609375 19.140625 5.609375 36.375 
Q 5.609375 53.65625 14.8125 63.9375 
Q 24.03125 74.21875 39.40625 74.21875 
Q 54.734375 74.21875 63.90625 63.9375 
Q 73.09375 53.65625 73.09375 36.375 
Q 73.09375 23.6875 67.984375 14.640625 
Q 62.890625 5.609375 53.21875 1.3125 
z
" id="DejaVuSans-81"/>
     </defs>
     <g style="fill:#ffffff;" transform="translate(301.18635 797.300831)scale(0.15 -0.15)">
      <use xlink:href="#DejaVuSans-81"/>
      <use x="78.710938" xlink:href="#DejaVuSans-69"/>
     </g>
    </g>
    <g id="patch_63">
     <path d="M 259.18635 819.318019 
L 289.18635 819.318019 
L 289.18635 808.818019 
L 259.18635 808.818019 
z
" style="fill:#c01588;stroke:#c01588;stroke-linejoin:miter;"/>
    </g>
    <g id="text_21">
     <!-- UX -->
     <g style="fill:#ffffff;" transform="translate(301.18635 819.318019)scale(0.15 -0.15)">
      <use xlink:href="#DejaVuSans-85"/>
      <use x="73.193359" xlink:href="#DejaVuSans-88"/>
     </g>
    </g>
   </g>
  </g>
 </g>
</svg>
