<?xml version="1.0" encoding="utf-8" standalone="no"?>
<!DOCTYPE svg PUBLIC "-//W3C//DTD SVG 1.1//EN"
  "http://www.w3.org/Graphics/SVG/1.1/DTD/svg11.dtd">
<!-- Created with matplotlib (https://matplotlib.org/) -->
<svg height="576pt" version="1.1" viewBox="0 0 576 576" width="576pt" xmlns="http://www.w3.org/2000/svg" xmlns:xlink="http://www.w3.org/1999/xlink">
 <defs>
  <style type="text/css">
*{stroke-linecap:butt;stroke-linejoin:round;}
  </style>
 </defs>
 <g id="figure_1">
  <g id="patch_1">
   <path d="M 0 576 
L 576 576 
L 576 0 
L 0 0 
z
" style="fill:none;"/>
  </g>
  <g id="axes_1">
   <g id="PathCollection_1">
    <defs>
     <path d="M 0 3 
C 0.795609 3 1.55874 2.683901 2.12132 2.12132 
C 2.683901 1.55874 3 0.795609 3 0 
C 3 -0.795609 2.683901 -1.55874 2.12132 -2.12132 
C 1.55874 -2.683901 0.795609 -3 0 -3 
C -0.795609 -3 -1.55874 -2.683901 -2.12132 -2.12132 
C -2.683901 -1.55874 -3 -0.795609 -3 0 
C -3 0.795609 -2.683901 1.55874 -2.12132 2.12132 
C -1.55874 2.683901 -0.795609 3 0 3 
z
" id="mfc749ee001" style="stroke:#808080;stroke-opacity:0.4;"/>
    </defs>
    <g clip-path="url(#pd89785a3f0)">
     <use style="fill:#808080;fill-opacity:0.4;stroke:#808080;stroke-opacity:0.4;" x="139.074914" xlink:href="#mfc749ee001" y="285.120777"/>
     <use style="fill:#808080;fill-opacity:0.4;stroke:#808080;stroke-opacity:0.4;" x="474.278735" xlink:href="#mfc749ee001" y="273.341438"/>
     <use style="fill:#808080;fill-opacity:0.4;stroke:#808080;stroke-opacity:0.4;" x="413.109391" xlink:href="#mfc749ee001" y="196.351928"/>
     <use style="fill:#808080;fill-opacity:0.4;stroke:#808080;stroke-opacity:0.4;" x="460.268871" xlink:href="#mfc749ee001" y="237.854144"/>
     <use style="fill:#808080;fill-opacity:0.4;stroke:#808080;stroke-opacity:0.4;" x="310.768967" xlink:href="#mfc749ee001" y="142.733259"/>
     <use style="fill:#808080;fill-opacity:0.4;stroke:#808080;stroke-opacity:0.4;" x="357.945267" xlink:href="#mfc749ee001" y="169.991707"/>
     <use style="fill:#808080;fill-opacity:0.4;stroke:#808080;stroke-opacity:0.4;" x="459.429013" xlink:href="#mfc749ee001" y="266.60061"/>
     <use style="fill:#808080;fill-opacity:0.4;stroke:#808080;stroke-opacity:0.4;" x="411.586933" xlink:href="#mfc749ee001" y="178.470797"/>
     <use style="fill:#808080;fill-opacity:0.4;stroke:#808080;stroke-opacity:0.4;" x="365.512929" xlink:href="#mfc749ee001" y="75.818434"/>
     <use style="fill:#808080;fill-opacity:0.4;stroke:#808080;stroke-opacity:0.4;" x="390.799764" xlink:href="#mfc749ee001" y="123.850386"/>
     <use style="fill:#808080;fill-opacity:0.4;stroke:#808080;stroke-opacity:0.4;" x="359.815788" xlink:href="#mfc749ee001" y="39.267755"/>
     <use style="fill:#808080;fill-opacity:0.4;stroke:#808080;stroke-opacity:0.4;" x="445.652972" xlink:href="#mfc749ee001" y="237.330736"/>
     <use style="fill:#808080;fill-opacity:0.4;stroke:#808080;stroke-opacity:0.4;" x="392.102075" xlink:href="#mfc749ee001" y="89.803953"/>
     <use style="fill:#808080;fill-opacity:0.4;stroke:#808080;stroke-opacity:0.4;" x="312.527665" xlink:href="#mfc749ee001" y="106.446187"/>
     <use style="fill:#808080;fill-opacity:0.4;stroke:#808080;stroke-opacity:0.4;" x="309.496174" xlink:href="#mfc749ee001" y="153.286554"/>
     <use style="fill:#808080;fill-opacity:0.4;stroke:#808080;stroke-opacity:0.4;" x="311.275014" xlink:href="#mfc749ee001" y="77.472045"/>
     <use style="fill:#808080;fill-opacity:0.4;stroke:#808080;stroke-opacity:0.4;" x="386.812955" xlink:href="#mfc749ee001" y="84.48868"/>
     <use style="fill:#808080;fill-opacity:0.4;stroke:#808080;stroke-opacity:0.4;" x="443.453663" xlink:href="#mfc749ee001" y="249.358211"/>
     <use style="fill:#808080;fill-opacity:0.4;stroke:#808080;stroke-opacity:0.4;" x="368.068245" xlink:href="#mfc749ee001" y="74.013471"/>
     <use style="fill:#808080;fill-opacity:0.4;stroke:#808080;stroke-opacity:0.4;" x="386.92448" xlink:href="#mfc749ee001" y="77.432906"/>
     <use style="fill:#808080;fill-opacity:0.4;stroke:#808080;stroke-opacity:0.4;" x="472.467753" xlink:href="#mfc749ee001" y="267.553307"/>
     <use style="fill:#808080;fill-opacity:0.4;stroke:#808080;stroke-opacity:0.4;" x="342.283606" xlink:href="#mfc749ee001" y="49.698382"/>
     <use style="fill:#808080;fill-opacity:0.4;stroke:#808080;stroke-opacity:0.4;" x="218.874482" xlink:href="#mfc749ee001" y="179.657868"/>
     <use style="fill:#808080;fill-opacity:0.4;stroke:#808080;stroke-opacity:0.4;" x="383.026868" xlink:href="#mfc749ee001" y="133.426222"/>
     <use style="fill:#808080;fill-opacity:0.4;stroke:#808080;stroke-opacity:0.4;" x="459.495604" xlink:href="#mfc749ee001" y="234.006065"/>
     <use style="fill:#808080;fill-opacity:0.4;stroke:#808080;stroke-opacity:0.4;" x="341.520842" xlink:href="#mfc749ee001" y="66.137417"/>
     <use style="fill:#808080;fill-opacity:0.4;stroke:#808080;stroke-opacity:0.4;" x="368.685659" xlink:href="#mfc749ee001" y="50.864229"/>
     <use style="fill:#808080;fill-opacity:0.4;stroke:#808080;stroke-opacity:0.4;" x="294.373888" xlink:href="#mfc749ee001" y="132.427192"/>
     <use style="fill:#808080;fill-opacity:0.4;stroke:#808080;stroke-opacity:0.4;" x="416.237308" xlink:href="#mfc749ee001" y="199.980896"/>
     <use style="fill:#808080;fill-opacity:0.4;stroke:#808080;stroke-opacity:0.4;" x="410.925619" xlink:href="#mfc749ee001" y="194.045649"/>
     <use style="fill:#808080;fill-opacity:0.4;stroke:#808080;stroke-opacity:0.4;" x="303.09552" xlink:href="#mfc749ee001" y="147.711226"/>
     <use style="fill:#808080;fill-opacity:0.4;stroke:#808080;stroke-opacity:0.4;" x="350.954578" xlink:href="#mfc749ee001" y="163.919816"/>
     <use style="fill:#808080;fill-opacity:0.4;stroke:#808080;stroke-opacity:0.4;" x="369.841271" xlink:href="#mfc749ee001" y="225.410214"/>
     <use style="fill:#808080;fill-opacity:0.4;stroke:#808080;stroke-opacity:0.4;" x="411.88956" xlink:href="#mfc749ee001" y="188.917326"/>
     <use style="fill:#808080;fill-opacity:0.4;stroke:#808080;stroke-opacity:0.4;" x="211.368328" xlink:href="#mfc749ee001" y="225.770548"/>
     <use style="fill:#808080;fill-opacity:0.4;stroke:#808080;stroke-opacity:0.4;" x="330.684741" xlink:href="#mfc749ee001" y="155.217576"/>
     <use style="fill:#808080;fill-opacity:0.4;stroke:#808080;stroke-opacity:0.4;" x="134.983911" xlink:href="#mfc749ee001" y="293.723282"/>
     <use style="fill:#808080;fill-opacity:0.4;stroke:#808080;stroke-opacity:0.4;" x="101.454676" xlink:href="#mfc749ee001" y="356.112015"/>
     <use style="fill:#808080;fill-opacity:0.4;stroke:#808080;stroke-opacity:0.4;" x="112.240317" xlink:href="#mfc749ee001" y="433.548019"/>
     <use style="fill:#808080;fill-opacity:0.4;stroke:#808080;stroke-opacity:0.4;" x="116.726475" xlink:href="#mfc749ee001" y="454.038915"/>
     <use style="fill:#808080;fill-opacity:0.4;stroke:#808080;stroke-opacity:0.4;" x="68.942297" xlink:href="#mfc749ee001" y="495.967962"/>
     <use style="fill:#808080;fill-opacity:0.4;stroke:#808080;stroke-opacity:0.4;" x="112.897371" xlink:href="#mfc749ee001" y="451.673616"/>
     <use style="fill:#808080;fill-opacity:0.4;stroke:#808080;stroke-opacity:0.4;" x="125.354114" xlink:href="#mfc749ee001" y="444.410398"/>
     <use style="fill:#808080;fill-opacity:0.4;stroke:#808080;stroke-opacity:0.4;" x="419.871849" xlink:href="#mfc749ee001" y="205.000328"/>
     <use style="fill:#808080;fill-opacity:0.4;stroke:#808080;stroke-opacity:0.4;" x="352.44148" xlink:href="#mfc749ee001" y="39.473549"/>
     <use style="fill:#808080;fill-opacity:0.4;stroke:#808080;stroke-opacity:0.4;" x="187.86149" xlink:href="#mfc749ee001" y="215.222975"/>
     <use style="fill:#808080;fill-opacity:0.4;stroke:#808080;stroke-opacity:0.4;" x="175.448604" xlink:href="#mfc749ee001" y="279.862504"/>
     <use style="fill:#808080;fill-opacity:0.4;stroke:#808080;stroke-opacity:0.4;" x="324.594035" xlink:href="#mfc749ee001" y="213.755076"/>
     <use style="fill:#808080;fill-opacity:0.4;stroke:#808080;stroke-opacity:0.4;" x="112.755435" xlink:href="#mfc749ee001" y="249.287969"/>
     <use style="fill:#808080;fill-opacity:0.4;stroke:#808080;stroke-opacity:0.4;" x="203.426422" xlink:href="#mfc749ee001" y="162.241168"/>
     <use style="fill:#808080;fill-opacity:0.4;stroke:#808080;stroke-opacity:0.4;" x="117.349787" xlink:href="#mfc749ee001" y="256.659928"/>
     <use style="fill:#808080;fill-opacity:0.4;stroke:#808080;stroke-opacity:0.4;" x="305.286437" xlink:href="#mfc749ee001" y="71.943331"/>
     <use style="fill:#808080;fill-opacity:0.4;stroke:#808080;stroke-opacity:0.4;" x="391.963609" xlink:href="#mfc749ee001" y="121.932937"/>
     <use style="fill:#808080;fill-opacity:0.4;stroke:#808080;stroke-opacity:0.4;" x="222.590061" xlink:href="#mfc749ee001" y="180.548282"/>
     <use style="fill:#808080;fill-opacity:0.4;stroke:#808080;stroke-opacity:0.4;" x="201.699201" xlink:href="#mfc749ee001" y="179.55799"/>
     <use style="fill:#808080;fill-opacity:0.4;stroke:#808080;stroke-opacity:0.4;" x="209.261967" xlink:href="#mfc749ee001" y="163.478491"/>
     <use style="fill:#808080;fill-opacity:0.4;stroke:#808080;stroke-opacity:0.4;" x="206.779039" xlink:href="#mfc749ee001" y="235.104877"/>
     <use style="fill:#808080;fill-opacity:0.4;stroke:#808080;stroke-opacity:0.4;" x="218.040895" xlink:href="#mfc749ee001" y="184.01408"/>
     <use style="fill:#808080;fill-opacity:0.4;stroke:#808080;stroke-opacity:0.4;" x="289.676133" xlink:href="#mfc749ee001" y="134.444087"/>
     <use style="fill:#808080;fill-opacity:0.4;stroke:#808080;stroke-opacity:0.4;" x="123.574112" xlink:href="#mfc749ee001" y="303.692818"/>
     <use style="fill:#808080;fill-opacity:0.4;stroke:#808080;stroke-opacity:0.4;" x="232.832719" xlink:href="#mfc749ee001" y="204.9932"/>
     <use style="fill:#808080;fill-opacity:0.4;stroke:#808080;stroke-opacity:0.4;" x="218.829084" xlink:href="#mfc749ee001" y="150.456713"/>
     <use style="fill:#808080;fill-opacity:0.4;stroke:#808080;stroke-opacity:0.4;" x="230.54267" xlink:href="#mfc749ee001" y="163.37246"/>
     <use style="fill:#808080;fill-opacity:0.4;stroke:#808080;stroke-opacity:0.4;" x="342.813385" xlink:href="#mfc749ee001" y="170.675878"/>
     <use style="fill:#808080;fill-opacity:0.4;stroke:#808080;stroke-opacity:0.4;" x="410.356144" xlink:href="#mfc749ee001" y="177.349149"/>
     <use style="fill:#808080;fill-opacity:0.4;stroke:#808080;stroke-opacity:0.4;" x="227.444897" xlink:href="#mfc749ee001" y="173.159171"/>
     <use style="fill:#808080;fill-opacity:0.4;stroke:#808080;stroke-opacity:0.4;" x="383.046665" xlink:href="#mfc749ee001" y="74.056292"/>
     <use style="fill:#808080;fill-opacity:0.4;stroke:#808080;stroke-opacity:0.4;" x="316.636177" xlink:href="#mfc749ee001" y="87.903155"/>
     <use style="fill:#808080;fill-opacity:0.4;stroke:#808080;stroke-opacity:0.4;" x="315.159666" xlink:href="#mfc749ee001" y="82.151492"/>
     <use style="fill:#808080;fill-opacity:0.4;stroke:#808080;stroke-opacity:0.4;" x="369.336238" xlink:href="#mfc749ee001" y="136.735778"/>
     <use style="fill:#808080;fill-opacity:0.4;stroke:#808080;stroke-opacity:0.4;" x="194.849967" xlink:href="#mfc749ee001" y="184.529311"/>
     <use style="fill:#808080;fill-opacity:0.4;stroke:#808080;stroke-opacity:0.4;" x="208.472407" xlink:href="#mfc749ee001" y="181.605235"/>
     <use style="fill:#808080;fill-opacity:0.4;stroke:#808080;stroke-opacity:0.4;" x="116.508012" xlink:href="#mfc749ee001" y="425.541993"/>
     <use style="fill:#808080;fill-opacity:0.4;stroke:#808080;stroke-opacity:0.4;" x="55.182229" xlink:href="#mfc749ee001" y="489.541083"/>
     <use style="fill:#808080;fill-opacity:0.4;stroke:#808080;stroke-opacity:0.4;" x="224.856791" xlink:href="#mfc749ee001" y="181.137156"/>
     <use style="fill:#808080;fill-opacity:0.4;stroke:#808080;stroke-opacity:0.4;" x="61.14433" xlink:href="#mfc749ee001" y="504.115833"/>
     <use style="fill:#808080;fill-opacity:0.4;stroke:#808080;stroke-opacity:0.4;" x="114.328501" xlink:href="#mfc749ee001" y="244.266954"/>
     <use style="fill:#808080;fill-opacity:0.4;stroke:#808080;stroke-opacity:0.4;" x="166.315234" xlink:href="#mfc749ee001" y="296.09737"/>
     <use style="fill:#808080;fill-opacity:0.4;stroke:#808080;stroke-opacity:0.4;" x="107.24481" xlink:href="#mfc749ee001" y="462.91575"/>
     <use style="fill:#808080;fill-opacity:0.4;stroke:#808080;stroke-opacity:0.4;" x="77.886313" xlink:href="#mfc749ee001" y="502.839211"/>
     <use style="fill:#808080;fill-opacity:0.4;stroke:#808080;stroke-opacity:0.4;" x="93.616361" xlink:href="#mfc749ee001" y="433.796514"/>
     <use style="fill:#808080;fill-opacity:0.4;stroke:#808080;stroke-opacity:0.4;" x="91.224834" xlink:href="#mfc749ee001" y="439.124072"/>
     <use style="fill:#808080;fill-opacity:0.4;stroke:#808080;stroke-opacity:0.4;" x="226.448218" xlink:href="#mfc749ee001" y="210.783617"/>
     <use style="fill:#808080;fill-opacity:0.4;stroke:#808080;stroke-opacity:0.4;" x="150.542225" xlink:href="#mfc749ee001" y="371.129937"/>
     <use style="fill:#808080;fill-opacity:0.4;stroke:#808080;stroke-opacity:0.4;" x="100.11292" xlink:href="#mfc749ee001" y="398.983517"/>
     <use style="fill:#808080;fill-opacity:0.4;stroke:#808080;stroke-opacity:0.4;" x="229.452231" xlink:href="#mfc749ee001" y="161.313488"/>
     <use style="fill:#808080;fill-opacity:0.4;stroke:#808080;stroke-opacity:0.4;" x="465.499196" xlink:href="#mfc749ee001" y="241.464569"/>
     <use style="fill:#808080;fill-opacity:0.4;stroke:#808080;stroke-opacity:0.4;" x="56.206008" xlink:href="#mfc749ee001" y="523.48161"/>
     <use style="fill:#808080;fill-opacity:0.4;stroke:#808080;stroke-opacity:0.4;" x="107.991963" xlink:href="#mfc749ee001" y="431.361328"/>
     <use style="fill:#808080;fill-opacity:0.4;stroke:#808080;stroke-opacity:0.4;" x="56.928276" xlink:href="#mfc749ee001" y="522.771542"/>
     <use style="fill:#808080;fill-opacity:0.4;stroke:#808080;stroke-opacity:0.4;" x="127.593397" xlink:href="#mfc749ee001" y="442.971385"/>
     <use style="fill:#808080;fill-opacity:0.4;stroke:#808080;stroke-opacity:0.4;" x="108.923065" xlink:href="#mfc749ee001" y="459.130052"/>
     <use style="fill:#808080;fill-opacity:0.4;stroke:#808080;stroke-opacity:0.4;" x="123.240282" xlink:href="#mfc749ee001" y="408.535297"/>
     <use style="fill:#808080;fill-opacity:0.4;stroke:#808080;stroke-opacity:0.4;" x="124.583852" xlink:href="#mfc749ee001" y="397.720508"/>
     <use style="fill:#808080;fill-opacity:0.4;stroke:#808080;stroke-opacity:0.4;" x="361.819686" xlink:href="#mfc749ee001" y="226.730792"/>
     <use style="fill:#808080;fill-opacity:0.4;stroke:#808080;stroke-opacity:0.4;" x="367.192636" xlink:href="#mfc749ee001" y="216.146145"/>
     <use style="fill:#808080;fill-opacity:0.4;stroke:#808080;stroke-opacity:0.4;" x="114.969768" xlink:href="#mfc749ee001" y="257.615245"/>
     <use style="fill:#808080;fill-opacity:0.4;stroke:#808080;stroke-opacity:0.4;" x="331.855637" xlink:href="#mfc749ee001" y="200.19715"/>
     <use style="fill:#808080;fill-opacity:0.4;stroke:#808080;stroke-opacity:0.4;" x="355.109521" xlink:href="#mfc749ee001" y="207.104863"/>
     <use style="fill:#808080;fill-opacity:0.4;stroke:#808080;stroke-opacity:0.4;" x="157.273193" xlink:href="#mfc749ee001" y="295.671891"/>
     <use style="fill:#808080;fill-opacity:0.4;stroke:#808080;stroke-opacity:0.4;" x="351.34124" xlink:href="#mfc749ee001" y="207.21549"/>
     <use style="fill:#808080;fill-opacity:0.4;stroke:#808080;stroke-opacity:0.4;" x="353.420046" xlink:href="#mfc749ee001" y="206.52706"/>
     <use style="fill:#808080;fill-opacity:0.4;stroke:#808080;stroke-opacity:0.4;" x="156.846119" xlink:href="#mfc749ee001" y="369.478107"/>
     <use style="fill:#808080;fill-opacity:0.4;stroke:#808080;stroke-opacity:0.4;" x="202.442402" xlink:href="#mfc749ee001" y="207.333658"/>
     <use style="fill:#808080;fill-opacity:0.4;stroke:#808080;stroke-opacity:0.4;" x="440.929475" xlink:href="#mfc749ee001" y="248.39422"/>
     <use style="fill:#808080;fill-opacity:0.4;stroke:#808080;stroke-opacity:0.4;" x="302.101902" xlink:href="#mfc749ee001" y="154.923393"/>
     <use style="fill:#808080;fill-opacity:0.4;stroke:#808080;stroke-opacity:0.4;" x="340.524963" xlink:href="#mfc749ee001" y="160.473175"/>
     <use style="fill:#808080;fill-opacity:0.4;stroke:#808080;stroke-opacity:0.4;" x="309.032549" xlink:href="#mfc749ee001" y="149.588681"/>
     <use style="fill:#808080;fill-opacity:0.4;stroke:#808080;stroke-opacity:0.4;" x="281.822129" xlink:href="#mfc749ee001" y="145.289332"/>
     <use style="fill:#808080;fill-opacity:0.4;stroke:#808080;stroke-opacity:0.4;" x="380.232539" xlink:href="#mfc749ee001" y="68.382403"/>
     <use style="fill:#808080;fill-opacity:0.4;stroke:#808080;stroke-opacity:0.4;" x="325.524226" xlink:href="#mfc749ee001" y="146.976849"/>
     <use style="fill:#808080;fill-opacity:0.4;stroke:#808080;stroke-opacity:0.4;" x="129.39195" xlink:href="#mfc749ee001" y="412.504121"/>
     <use style="fill:#808080;fill-opacity:0.4;stroke:#808080;stroke-opacity:0.4;" x="108.112586" xlink:href="#mfc749ee001" y="377.748324"/>
     <use style="fill:#808080;fill-opacity:0.4;stroke:#808080;stroke-opacity:0.4;" x="103.057707" xlink:href="#mfc749ee001" y="364.251012"/>
     <use style="fill:#808080;fill-opacity:0.4;stroke:#808080;stroke-opacity:0.4;" x="162.942178" xlink:href="#mfc749ee001" y="352.909401"/>
     <use style="fill:#808080;fill-opacity:0.4;stroke:#808080;stroke-opacity:0.4;" x="143.025688" xlink:href="#mfc749ee001" y="303.529372"/>
     <use style="fill:#808080;fill-opacity:0.4;stroke:#808080;stroke-opacity:0.4;" x="108.598148" xlink:href="#mfc749ee001" y="368.647745"/>
     <use style="fill:#808080;fill-opacity:0.4;stroke:#808080;stroke-opacity:0.4;" x="139.246834" xlink:href="#mfc749ee001" y="386.855774"/>
     <use style="fill:#808080;fill-opacity:0.4;stroke:#808080;stroke-opacity:0.4;" x="247.803426" xlink:href="#mfc749ee001" y="159.767906"/>
     <use style="fill:#808080;fill-opacity:0.4;stroke:#808080;stroke-opacity:0.4;" x="331.01096" xlink:href="#mfc749ee001" y="154.358066"/>
     <use style="fill:#808080;fill-opacity:0.4;stroke:#808080;stroke-opacity:0.4;" x="329.97373" xlink:href="#mfc749ee001" y="177.84631"/>
     <use style="fill:#808080;fill-opacity:0.4;stroke:#808080;stroke-opacity:0.4;" x="330.367768" xlink:href="#mfc749ee001" y="164.470574"/>
     <use style="fill:#808080;fill-opacity:0.4;stroke:#808080;stroke-opacity:0.4;" x="300.846897" xlink:href="#mfc749ee001" y="147.010323"/>
     <use style="fill:#808080;fill-opacity:0.4;stroke:#808080;stroke-opacity:0.4;" x="344.28662" xlink:href="#mfc749ee001" y="169.955526"/>
     <use style="fill:#808080;fill-opacity:0.4;stroke:#808080;stroke-opacity:0.4;" x="331.958426" xlink:href="#mfc749ee001" y="185.550908"/>
     <use style="fill:#808080;fill-opacity:0.4;stroke:#808080;stroke-opacity:0.4;" x="164.823044" xlink:href="#mfc749ee001" y="290.902471"/>
     <use style="fill:#808080;fill-opacity:0.4;stroke:#808080;stroke-opacity:0.4;" x="231.334687" xlink:href="#mfc749ee001" y="250.976401"/>
     <use style="fill:#808080;fill-opacity:0.4;stroke:#808080;stroke-opacity:0.4;" x="126.979073" xlink:href="#mfc749ee001" y="267.447734"/>
     <use style="fill:#808080;fill-opacity:0.4;stroke:#808080;stroke-opacity:0.4;" x="135.780343" xlink:href="#mfc749ee001" y="275.180301"/>
     <use style="fill:#808080;fill-opacity:0.4;stroke:#808080;stroke-opacity:0.4;" x="348.461964" xlink:href="#mfc749ee001" y="192.017228"/>
     <use style="fill:#808080;fill-opacity:0.4;stroke:#808080;stroke-opacity:0.4;" x="328.396542" xlink:href="#mfc749ee001" y="207.794857"/>
     <use style="fill:#808080;fill-opacity:0.4;stroke:#808080;stroke-opacity:0.4;" x="160.952276" xlink:href="#mfc749ee001" y="364.710191"/>
     <use style="fill:#808080;fill-opacity:0.4;stroke:#808080;stroke-opacity:0.4;" x="159.439052" xlink:href="#mfc749ee001" y="344.591574"/>
     <use style="fill:#808080;fill-opacity:0.4;stroke:#808080;stroke-opacity:0.4;" x="139.733829" xlink:href="#mfc749ee001" y="356.891567"/>
     <use style="fill:#808080;fill-opacity:0.4;stroke:#808080;stroke-opacity:0.4;" x="214.558878" xlink:href="#mfc749ee001" y="237.554211"/>
     <use style="fill:#808080;fill-opacity:0.4;stroke:#808080;stroke-opacity:0.4;" x="213.535624" xlink:href="#mfc749ee001" y="193.914454"/>
     <use style="fill:#808080;fill-opacity:0.4;stroke:#808080;stroke-opacity:0.4;" x="196.379205" xlink:href="#mfc749ee001" y="241.174971"/>
     <use style="fill:#808080;fill-opacity:0.4;stroke:#808080;stroke-opacity:0.4;" x="355.296576" xlink:href="#mfc749ee001" y="207.021817"/>
     <use style="fill:#808080;fill-opacity:0.4;stroke:#808080;stroke-opacity:0.4;" x="204.168511" xlink:href="#mfc749ee001" y="206.634704"/>
     <use style="fill:#808080;fill-opacity:0.4;stroke:#808080;stroke-opacity:0.4;" x="157.249098" xlink:href="#mfc749ee001" y="347.181533"/>
     <use style="fill:#808080;fill-opacity:0.4;stroke:#808080;stroke-opacity:0.4;" x="158.807" xlink:href="#mfc749ee001" y="312.150306"/>
     <use style="fill:#808080;fill-opacity:0.4;stroke:#808080;stroke-opacity:0.4;" x="204.568556" xlink:href="#mfc749ee001" y="156.072317"/>
     <use style="fill:#808080;fill-opacity:0.4;stroke:#808080;stroke-opacity:0.4;" x="160.772063" xlink:href="#mfc749ee001" y="294.066157"/>
     <use style="fill:#808080;fill-opacity:0.4;stroke:#808080;stroke-opacity:0.4;" x="412.167497" xlink:href="#mfc749ee001" y="193.382381"/>
     <use style="fill:#808080;fill-opacity:0.4;stroke:#808080;stroke-opacity:0.4;" x="218.542638" xlink:href="#mfc749ee001" y="213.327676"/>
     <use style="fill:#808080;fill-opacity:0.4;stroke:#808080;stroke-opacity:0.4;" x="250.707922" xlink:href="#mfc749ee001" y="165.419589"/>
     <use style="fill:#808080;fill-opacity:0.4;stroke:#808080;stroke-opacity:0.4;" x="368.921769" xlink:href="#mfc749ee001" y="125.965892"/>
     <use style="fill:#808080;fill-opacity:0.4;stroke:#808080;stroke-opacity:0.4;" x="321.292152" xlink:href="#mfc749ee001" y="112.132069"/>
     <use style="fill:#808080;fill-opacity:0.4;stroke:#808080;stroke-opacity:0.4;" x="333.329831" xlink:href="#mfc749ee001" y="57.808825"/>
     <use style="fill:#808080;fill-opacity:0.4;stroke:#808080;stroke-opacity:0.4;" x="331.391528" xlink:href="#mfc749ee001" y="59.645199"/>
     <use style="fill:#808080;fill-opacity:0.4;stroke:#808080;stroke-opacity:0.4;" x="338.629789" xlink:href="#mfc749ee001" y="58.689755"/>
     <use style="fill:#808080;fill-opacity:0.4;stroke:#808080;stroke-opacity:0.4;" x="416.952822" xlink:href="#mfc749ee001" y="185.389323"/>
     <use style="fill:#808080;fill-opacity:0.4;stroke:#808080;stroke-opacity:0.4;" x="379.799409" xlink:href="#mfc749ee001" y="73.005667"/>
     <use style="fill:#808080;fill-opacity:0.4;stroke:#808080;stroke-opacity:0.4;" x="379.146392" xlink:href="#mfc749ee001" y="64.934947"/>
     <use style="fill:#808080;fill-opacity:0.4;stroke:#808080;stroke-opacity:0.4;" x="343.202809" xlink:href="#mfc749ee001" y="46.375284"/>
     <use style="fill:#808080;fill-opacity:0.4;stroke:#808080;stroke-opacity:0.4;" x="107.312545" xlink:href="#mfc749ee001" y="369.917898"/>
     <use style="fill:#808080;fill-opacity:0.4;stroke:#808080;stroke-opacity:0.4;" x="131.835472" xlink:href="#mfc749ee001" y="356.136605"/>
     <use style="fill:#808080;fill-opacity:0.4;stroke:#808080;stroke-opacity:0.4;" x="129.063516" xlink:href="#mfc749ee001" y="351.226693"/>
     <use style="fill:#808080;fill-opacity:0.4;stroke:#808080;stroke-opacity:0.4;" x="213.036683" xlink:href="#mfc749ee001" y="184.364466"/>
     <use style="fill:#808080;fill-opacity:0.4;stroke:#808080;stroke-opacity:0.4;" x="170.806928" xlink:href="#mfc749ee001" y="288.666118"/>
     <use style="fill:#808080;fill-opacity:0.4;stroke:#808080;stroke-opacity:0.4;" x="334.182257" xlink:href="#mfc749ee001" y="185.659802"/>
     <use style="fill:#808080;fill-opacity:0.4;stroke:#808080;stroke-opacity:0.4;" x="326.666208" xlink:href="#mfc749ee001" y="169.489229"/>
     <use style="fill:#808080;fill-opacity:0.4;stroke:#808080;stroke-opacity:0.4;" x="159.145039" xlink:href="#mfc749ee001" y="294.997052"/>
     <use style="fill:#808080;fill-opacity:0.4;stroke:#808080;stroke-opacity:0.4;" x="344.696074" xlink:href="#mfc749ee001" y="67.696562"/>
     <use style="fill:#808080;fill-opacity:0.4;stroke:#808080;stroke-opacity:0.4;" x="130.81721" xlink:href="#mfc749ee001" y="388.350919"/>
     <use style="fill:#808080;fill-opacity:0.4;stroke:#808080;stroke-opacity:0.4;" x="132.55186" xlink:href="#mfc749ee001" y="354.094767"/>
     <use style="fill:#808080;fill-opacity:0.4;stroke:#808080;stroke-opacity:0.4;" x="142.623063" xlink:href="#mfc749ee001" y="373.43032"/>
     <use style="fill:#808080;fill-opacity:0.4;stroke:#808080;stroke-opacity:0.4;" x="106.436796" xlink:href="#mfc749ee001" y="344.983705"/>
     <use style="fill:#808080;fill-opacity:0.4;stroke:#808080;stroke-opacity:0.4;" x="208.653043" xlink:href="#mfc749ee001" y="228.25762"/>
     <use style="fill:#808080;fill-opacity:0.4;stroke:#808080;stroke-opacity:0.4;" x="106.46331" xlink:href="#mfc749ee001" y="437.854271"/>
     <use style="fill:#808080;fill-opacity:0.4;stroke:#808080;stroke-opacity:0.4;" x="135.873736" xlink:href="#mfc749ee001" y="399.179583"/>
     <use style="fill:#808080;fill-opacity:0.4;stroke:#808080;stroke-opacity:0.4;" x="101.71356" xlink:href="#mfc749ee001" y="398.636029"/>
     <use style="fill:#808080;fill-opacity:0.4;stroke:#808080;stroke-opacity:0.4;" x="68.282378" xlink:href="#mfc749ee001" y="486.501151"/>
     <use style="fill:#808080;fill-opacity:0.4;stroke:#808080;stroke-opacity:0.4;" x="60.813551" xlink:href="#mfc749ee001" y="493.048766"/>
     <use style="fill:#808080;fill-opacity:0.4;stroke:#808080;stroke-opacity:0.4;" x="112.518822" xlink:href="#mfc749ee001" y="471.145802"/>
     <use style="fill:#808080;fill-opacity:0.4;stroke:#808080;stroke-opacity:0.4;" x="112.927885" xlink:href="#mfc749ee001" y="469.156957"/>
     <use style="fill:#808080;fill-opacity:0.4;stroke:#808080;stroke-opacity:0.4;" x="81.966822" xlink:href="#mfc749ee001" y="496.918336"/>
     <use style="fill:#808080;fill-opacity:0.4;stroke:#808080;stroke-opacity:0.4;" x="77.706607" xlink:href="#mfc749ee001" y="503.25414"/>
     <use style="fill:#808080;fill-opacity:0.4;stroke:#808080;stroke-opacity:0.4;" x="76.362497" xlink:href="#mfc749ee001" y="471.619127"/>
     <use style="fill:#808080;fill-opacity:0.4;stroke:#808080;stroke-opacity:0.4;" x="104.1842" xlink:href="#mfc749ee001" y="480.549106"/>
     <use style="fill:#808080;fill-opacity:0.4;stroke:#808080;stroke-opacity:0.4;" x="119.052165" xlink:href="#mfc749ee001" y="404.431922"/>
     <use style="fill:#808080;fill-opacity:0.4;stroke:#808080;stroke-opacity:0.4;" x="120.655773" xlink:href="#mfc749ee001" y="404.735301"/>
     <use style="fill:#808080;fill-opacity:0.4;stroke:#808080;stroke-opacity:0.4;" x="157.979878" xlink:href="#mfc749ee001" y="309.221623"/>
     <use style="fill:#808080;fill-opacity:0.4;stroke:#808080;stroke-opacity:0.4;" x="208.45841" xlink:href="#mfc749ee001" y="215.508699"/>
     <use style="fill:#808080;fill-opacity:0.4;stroke:#808080;stroke-opacity:0.4;" x="145.887646" xlink:href="#mfc749ee001" y="372.382684"/>
     <use style="fill:#808080;fill-opacity:0.4;stroke:#808080;stroke-opacity:0.4;" x="90.768967" xlink:href="#mfc749ee001" y="496.145867"/>
     <use style="fill:#808080;fill-opacity:0.4;stroke:#808080;stroke-opacity:0.4;" x="160.930949" xlink:href="#mfc749ee001" y="294.714922"/>
     <use style="fill:#808080;fill-opacity:0.4;stroke:#808080;stroke-opacity:0.4;" x="412.808568" xlink:href="#mfc749ee001" y="182.63458"/>
     <use style="fill:#808080;fill-opacity:0.4;stroke:#808080;stroke-opacity:0.4;" x="212.512575" xlink:href="#mfc749ee001" y="209.614507"/>
     <use style="fill:#808080;fill-opacity:0.4;stroke:#808080;stroke-opacity:0.4;" x="350.35872" xlink:href="#mfc749ee001" y="161.729202"/>
     <use style="fill:#808080;fill-opacity:0.4;stroke:#808080;stroke-opacity:0.4;" x="158.097887" xlink:href="#mfc749ee001" y="316.579674"/>
     <use style="fill:#808080;fill-opacity:0.4;stroke:#808080;stroke-opacity:0.4;" x="372.575977" xlink:href="#mfc749ee001" y="39.776677"/>
     <use style="fill:#808080;fill-opacity:0.4;stroke:#808080;stroke-opacity:0.4;" x="128.19468" xlink:href="#mfc749ee001" y="325.144446"/>
     <use style="fill:#808080;fill-opacity:0.4;stroke:#808080;stroke-opacity:0.4;" x="126.237631" xlink:href="#mfc749ee001" y="266.580303"/>
     <use style="fill:#808080;fill-opacity:0.4;stroke:#808080;stroke-opacity:0.4;" x="132.061526" xlink:href="#mfc749ee001" y="272.971976"/>
     <use style="fill:#808080;fill-opacity:0.4;stroke:#808080;stroke-opacity:0.4;" x="204.241168" xlink:href="#mfc749ee001" y="237.788118"/>
     <use style="fill:#808080;fill-opacity:0.4;stroke:#808080;stroke-opacity:0.4;" x="290.500078" xlink:href="#mfc749ee001" y="128.431151"/>
     <use style="fill:#808080;fill-opacity:0.4;stroke:#808080;stroke-opacity:0.4;" x="215.971693" xlink:href="#mfc749ee001" y="212.493161"/>
     <use style="fill:#808080;fill-opacity:0.4;stroke:#808080;stroke-opacity:0.4;" x="315.475997" xlink:href="#mfc749ee001" y="85.15142"/>
     <use style="fill:#808080;fill-opacity:0.4;stroke:#808080;stroke-opacity:0.4;" x="390.69985" xlink:href="#mfc749ee001" y="94.176981"/>
     <use style="fill:#808080;fill-opacity:0.4;stroke:#808080;stroke-opacity:0.4;" x="303.055443" xlink:href="#mfc749ee001" y="110.506429"/>
     <use style="fill:#808080;fill-opacity:0.4;stroke:#808080;stroke-opacity:0.4;" x="325.671623" xlink:href="#mfc749ee001" y="70.838234"/>
     <use style="fill:#808080;fill-opacity:0.4;stroke:#808080;stroke-opacity:0.4;" x="85.173806" xlink:href="#mfc749ee001" y="499.621837"/>
     <use style="fill:#808080;fill-opacity:0.4;stroke:#808080;stroke-opacity:0.4;" x="57.390301" xlink:href="#mfc749ee001" y="521.553194"/>
     <use style="fill:#808080;fill-opacity:0.4;stroke:#808080;stroke-opacity:0.4;" x="56.188146" xlink:href="#mfc749ee001" y="521.169214"/>
     <use style="fill:#808080;fill-opacity:0.4;stroke:#808080;stroke-opacity:0.4;" x="61.835265" xlink:href="#mfc749ee001" y="496.313831"/>
     <use style="fill:#808080;fill-opacity:0.4;stroke:#808080;stroke-opacity:0.4;" x="58.873295" xlink:href="#mfc749ee001" y="493.700358"/>
     <use style="fill:#808080;fill-opacity:0.4;stroke:#808080;stroke-opacity:0.4;" x="60.766534" xlink:href="#mfc749ee001" y="495.085603"/>
     <use style="fill:#808080;fill-opacity:0.4;stroke:#808080;stroke-opacity:0.4;" x="104.804591" xlink:href="#mfc749ee001" y="439.360231"/>
     <use style="fill:#808080;fill-opacity:0.4;stroke:#808080;stroke-opacity:0.4;" x="107.135053" xlink:href="#mfc749ee001" y="433.79925"/>
     <use style="fill:#808080;fill-opacity:0.4;stroke:#808080;stroke-opacity:0.4;" x="97.468667" xlink:href="#mfc749ee001" y="412.802289"/>
     <use style="fill:#808080;fill-opacity:0.4;stroke:#808080;stroke-opacity:0.4;" x="97.89361" xlink:href="#mfc749ee001" y="432.495664"/>
     <use style="fill:#808080;fill-opacity:0.4;stroke:#808080;stroke-opacity:0.4;" x="112.901362" xlink:href="#mfc749ee001" y="318.988745"/>
     <use style="fill:#808080;fill-opacity:0.4;stroke:#808080;stroke-opacity:0.4;" x="112.685867" xlink:href="#mfc749ee001" y="403.027943"/>
     <use style="fill:#808080;fill-opacity:0.4;stroke:#808080;stroke-opacity:0.4;" x="111.360429" xlink:href="#mfc749ee001" y="399.570154"/>
     <use style="fill:#808080;fill-opacity:0.4;stroke:#808080;stroke-opacity:0.4;" x="116.99844" xlink:href="#mfc749ee001" y="368.46974"/>
     <use style="fill:#808080;fill-opacity:0.4;stroke:#808080;stroke-opacity:0.4;" x="120.048425" xlink:href="#mfc749ee001" y="393.129963"/>
     <use style="fill:#808080;fill-opacity:0.4;stroke:#808080;stroke-opacity:0.4;" x="139.729605" xlink:href="#mfc749ee001" y="341.359964"/>
     <use style="fill:#808080;fill-opacity:0.4;stroke:#808080;stroke-opacity:0.4;" x="132.17413" xlink:href="#mfc749ee001" y="313.740199"/>
     <use style="fill:#808080;fill-opacity:0.4;stroke:#808080;stroke-opacity:0.4;" x="131.117223" xlink:href="#mfc749ee001" y="316.380489"/>
     <use style="fill:#808080;fill-opacity:0.4;stroke:#808080;stroke-opacity:0.4;" x="128.307441" xlink:href="#mfc749ee001" y="305.362602"/>
     <use style="fill:#808080;fill-opacity:0.4;stroke:#808080;stroke-opacity:0.4;" x="158.829657" xlink:href="#mfc749ee001" y="297.821963"/>
     <use style="fill:#808080;fill-opacity:0.4;stroke:#808080;stroke-opacity:0.4;" x="118.732802" xlink:href="#mfc749ee001" y="262.118536"/>
     <use style="fill:#808080;fill-opacity:0.4;stroke:#808080;stroke-opacity:0.4;" x="121.133641" xlink:href="#mfc749ee001" y="260.407761"/>
     <use style="fill:#808080;fill-opacity:0.4;stroke:#808080;stroke-opacity:0.4;" x="116.299625" xlink:href="#mfc749ee001" y="257.810534"/>
     <use style="fill:#808080;fill-opacity:0.4;stroke:#808080;stroke-opacity:0.4;" x="227.186001" xlink:href="#mfc749ee001" y="246.944811"/>
     <use style="fill:#808080;fill-opacity:0.4;stroke:#808080;stroke-opacity:0.4;" x="211.693425" xlink:href="#mfc749ee001" y="244.433154"/>
     <use style="fill:#808080;fill-opacity:0.4;stroke:#808080;stroke-opacity:0.4;" x="214.595621" xlink:href="#mfc749ee001" y="241.699489"/>
     <use style="fill:#808080;fill-opacity:0.4;stroke:#808080;stroke-opacity:0.4;" x="200.52425" xlink:href="#mfc749ee001" y="243.978533"/>
     <use style="fill:#808080;fill-opacity:0.4;stroke:#808080;stroke-opacity:0.4;" x="196.928957" xlink:href="#mfc749ee001" y="214.03"/>
     <use style="fill:#808080;fill-opacity:0.4;stroke:#808080;stroke-opacity:0.4;" x="200.699805" xlink:href="#mfc749ee001" y="223.492444"/>
     <use style="fill:#808080;fill-opacity:0.4;stroke:#808080;stroke-opacity:0.4;" x="213.850967" xlink:href="#mfc749ee001" y="212.419409"/>
     <use style="fill:#808080;fill-opacity:0.4;stroke:#808080;stroke-opacity:0.4;" x="325.431186" xlink:href="#mfc749ee001" y="163.264431"/>
     <use style="fill:#808080;fill-opacity:0.4;stroke:#808080;stroke-opacity:0.4;" x="317.022922" xlink:href="#mfc749ee001" y="153.889852"/>
     <use style="fill:#808080;fill-opacity:0.4;stroke:#808080;stroke-opacity:0.4;" x="294.164924" xlink:href="#mfc749ee001" y="163.84824"/>
     <use style="fill:#808080;fill-opacity:0.4;stroke:#808080;stroke-opacity:0.4;" x="206.390229" xlink:href="#mfc749ee001" y="155.012908"/>
     <use style="fill:#808080;fill-opacity:0.4;stroke:#808080;stroke-opacity:0.4;" x="215.466199" xlink:href="#mfc749ee001" y="152.297746"/>
     <use style="fill:#808080;fill-opacity:0.4;stroke:#808080;stroke-opacity:0.4;" x="220.100613" xlink:href="#mfc749ee001" y="149.149685"/>
     <use style="fill:#808080;fill-opacity:0.4;stroke:#808080;stroke-opacity:0.4;" x="222.936982" xlink:href="#mfc749ee001" y="157.194669"/>
     <use style="fill:#808080;fill-opacity:0.4;stroke:#808080;stroke-opacity:0.4;" x="226.380737" xlink:href="#mfc749ee001" y="154.599327"/>
     <use style="fill:#808080;fill-opacity:0.4;stroke:#808080;stroke-opacity:0.4;" x="220.263388" xlink:href="#mfc749ee001" y="155.166696"/>
     <use style="fill:#808080;fill-opacity:0.4;stroke:#808080;stroke-opacity:0.4;" x="137.323928" xlink:href="#mfc749ee001" y="428.189351"/>
     <use style="fill:#808080;fill-opacity:0.4;stroke:#808080;stroke-opacity:0.4;" x="155.064153" xlink:href="#mfc749ee001" y="342.11227"/>
     <use style="fill:#808080;fill-opacity:0.4;stroke:#808080;stroke-opacity:0.4;" x="150.132506" xlink:href="#mfc749ee001" y="302.583998"/>
     <use style="fill:#808080;fill-opacity:0.4;stroke:#808080;stroke-opacity:0.4;" x="137.658613" xlink:href="#mfc749ee001" y="306.189835"/>
     <use style="fill:#808080;fill-opacity:0.4;stroke:#808080;stroke-opacity:0.4;" x="132.562429" xlink:href="#mfc749ee001" y="293.776743"/>
     <use style="fill:#808080;fill-opacity:0.4;stroke:#808080;stroke-opacity:0.4;" x="136.134453" xlink:href="#mfc749ee001" y="365.559458"/>
     <use style="fill:#808080;fill-opacity:0.4;stroke:#808080;stroke-opacity:0.4;" x="114.33385" xlink:href="#mfc749ee001" y="450.698491"/>
     <use style="fill:#808080;fill-opacity:0.4;stroke:#808080;stroke-opacity:0.4;" x="145.16294" xlink:href="#mfc749ee001" y="342.991933"/>
     <use style="fill:#808080;fill-opacity:0.4;stroke:#808080;stroke-opacity:0.4;" x="95.958815" xlink:href="#mfc749ee001" y="407.752475"/>
     <use style="fill:#808080;fill-opacity:0.4;stroke:#808080;stroke-opacity:0.4;" x="143.983797" xlink:href="#mfc749ee001" y="381.509503"/>
     <use style="fill:#808080;fill-opacity:0.4;stroke:#808080;stroke-opacity:0.4;" x="106.090603" xlink:href="#mfc749ee001" y="355.497368"/>
     <use style="fill:#808080;fill-opacity:0.4;stroke:#808080;stroke-opacity:0.4;" x="98.921371" xlink:href="#mfc749ee001" y="361.819398"/>
     <use style="fill:#808080;fill-opacity:0.4;stroke:#808080;stroke-opacity:0.4;" x="108.298107" xlink:href="#mfc749ee001" y="422.500873"/>
     <use style="fill:#808080;fill-opacity:0.4;stroke:#808080;stroke-opacity:0.4;" x="64.552612" xlink:href="#mfc749ee001" y="493.569461"/>
     <use style="fill:#808080;fill-opacity:0.4;stroke:#808080;stroke-opacity:0.4;" x="59.316324" xlink:href="#mfc749ee001" y="519.225263"/>
     <use style="fill:#808080;fill-opacity:0.4;stroke:#808080;stroke-opacity:0.4;" x="121.715154" xlink:href="#mfc749ee001" y="272.222396"/>
     <use style="fill:#808080;fill-opacity:0.4;stroke:#808080;stroke-opacity:0.4;" x="125.984654" xlink:href="#mfc749ee001" y="267.643457"/>
    </g>
   </g>
   <g id="PathCollection_2">
    <defs>
     <path d="M 0 3 
C 0.795609 3 1.55874 2.683901 2.12132 2.12132 
C 2.683901 1.55874 3 0.795609 3 0 
C 3 -0.795609 2.683901 -1.55874 2.12132 -2.12132 
C 1.55874 -2.683901 0.795609 -3 0 -3 
C -0.795609 -3 -1.55874 -2.683901 -2.12132 -2.12132 
C -2.683901 -1.55874 -3 -0.795609 -3 0 
C -3 0.795609 -2.683901 1.55874 -2.12132 2.12132 
C -1.55874 2.683901 -0.795609 3 0 3 
z
" id="mc6616a9377" style="stroke:#b22222;"/>
    </defs>
    <g clip-path="url(#pd89785a3f0)">
     <use style="fill:#b22222;stroke:#b22222;" x="348.351584" xlink:href="#mc6616a9377" y="41.446356"/>
     <use style="fill:#b22222;stroke:#b22222;" x="482.333438" xlink:href="#mc6616a9377" y="274.685658"/>
     <use style="fill:#b22222;stroke:#b22222;" x="174.190278" xlink:href="#mc6616a9377" y="308.593705"/>
     <use style="fill:#b22222;stroke:#b22222;" x="363.72487" xlink:href="#mc6616a9377" y="225.694061"/>
     <use style="fill:#b22222;stroke:#b22222;" x="376.163733" xlink:href="#mc6616a9377" y="225.723522"/>
     <use style="fill:#b22222;stroke:#b22222;" x="335.625295" xlink:href="#mc6616a9377" y="161.738101"/>
     <use style="fill:#b22222;stroke:#b22222;" x="377.269025" xlink:href="#mc6616a9377" y="143.853448"/>
    </g>
   </g>
   <g id="PathCollection_3">
    <defs>
     <path d="M 0 3 
C 0.795609 3 1.55874 2.683901 2.12132 2.12132 
C 2.683901 1.55874 3 0.795609 3 0 
C 3 -0.795609 2.683901 -1.55874 2.12132 -2.12132 
C 1.55874 -2.683901 0.795609 -3 0 -3 
C -0.795609 -3 -1.55874 -2.683901 -2.12132 -2.12132 
C -2.683901 -1.55874 -3 -0.795609 -3 0 
C -3 0.795609 -2.683901 1.55874 -2.12132 2.12132 
C -1.55874 2.683901 -0.795609 3 0 3 
z
" id="md5164054c8" style="stroke:#ff0000;"/>
    </defs>
    <g clip-path="url(#pd89785a3f0)">
     <use style="fill:#ff0000;stroke:#ff0000;" x="485.686934" xlink:href="#md5164054c8" y="277.314106"/>
     <use style="fill:#ff0000;stroke:#ff0000;" x="492.338947" xlink:href="#md5164054c8" y="282.505142"/>
     <use style="fill:#ff0000;stroke:#ff0000;" x="486.261935" xlink:href="#md5164054c8" y="279.32623"/>
     <use style="fill:#ff0000;stroke:#ff0000;" x="497.444388" xlink:href="#md5164054c8" y="285.433521"/>
     <use style="fill:#ff0000;stroke:#ff0000;" x="499.137426" xlink:href="#md5164054c8" y="287.59292"/>
     <use style="fill:#ff0000;stroke:#ff0000;" x="379.109404" xlink:href="#md5164054c8" y="228.379031"/>
     <use style="fill:#ff0000;stroke:#ff0000;" x="482.695716" xlink:href="#md5164054c8" y="275.795345"/>
    </g>
   </g>
   <g id="PathCollection_4">
    <defs>
     <path d="M 0 3 
C 0.795609 3 1.55874 2.683901 2.12132 2.12132 
C 2.683901 1.55874 3 0.795609 3 0 
C 3 -0.795609 2.683901 -1.55874 2.12132 -2.12132 
C 1.55874 -2.683901 0.795609 -3 0 -3 
C -0.795609 -3 -1.55874 -2.683901 -2.12132 -2.12132 
C -2.683901 -1.55874 -3 -0.795609 -3 0 
C -3 0.795609 -2.683901 1.55874 -2.12132 2.12132 
C -1.55874 2.683901 -0.795609 3 0 3 
z
" id="md249a09bb0" style="stroke:#00ffff;"/>
    </defs>
    <g clip-path="url(#pd89785a3f0)">
     <use style="fill:#00ffff;stroke:#00ffff;" x="354.18494" xlink:href="#md249a09bb0" y="103.339437"/>
     <use style="fill:#00ffff;stroke:#00ffff;" x="381.99066" xlink:href="#md249a09bb0" y="128.069285"/>
     <use style="fill:#00ffff;stroke:#00ffff;" x="489.057121" xlink:href="#md249a09bb0" y="279.987169"/>
     <use style="fill:#00ffff;stroke:#00ffff;" x="442.967804" xlink:href="#md249a09bb0" y="251.104408"/>
     <use style="fill:#00ffff;stroke:#00ffff;" x="372.156336" xlink:href="#md249a09bb0" y="71.240305"/>
     <use style="fill:#00ffff;stroke:#00ffff;" x="373.551231" xlink:href="#md249a09bb0" y="38.915226"/>
    </g>
   </g>
   <g id="PathCollection_5">
    <defs>
     <path d="M 0 3 
C 0.795609 3 1.55874 2.683901 2.12132 2.12132 
C 2.683901 1.55874 3 0.795609 3 0 
C 3 -0.795609 2.683901 -1.55874 2.12132 -2.12132 
C 1.55874 -2.683901 0.795609 -3 0 -3 
C -0.795609 -3 -1.55874 -2.683901 -2.12132 -2.12132 
C -2.683901 -1.55874 -3 -0.795609 -3 0 
C -3 0.795609 -2.683901 1.55874 -2.12132 2.12132 
C -1.55874 2.683901 -0.795609 3 0 3 
z
" id="mc43910a83b" style="stroke:#87ceeb;"/>
    </defs>
    <g clip-path="url(#pd89785a3f0)">
     <use style="fill:#87ceeb;stroke:#87ceeb;" x="386.660088" xlink:href="#mc43910a83b" y="101.868048"/>
     <use style="fill:#87ceeb;stroke:#87ceeb;" x="379.472724" xlink:href="#mc43910a83b" y="210.956966"/>
     <use style="fill:#87ceeb;stroke:#87ceeb;" x="358.56108" xlink:href="#mc43910a83b" y="50.394465"/>
     <use style="fill:#87ceeb;stroke:#87ceeb;" x="484.04337" xlink:href="#mc43910a83b" y="273.611909"/>
     <use style="fill:#87ceeb;stroke:#87ceeb;" x="348.326643" xlink:href="#mc43910a83b" y="188.179367"/>
     <use style="fill:#87ceeb;stroke:#87ceeb;" x="390.869853" xlink:href="#mc43910a83b" y="119.844908"/>
    </g>
   </g>
   <g id="PathCollection_6">
    <defs>
     <path d="M 0 3 
C 0.795609 3 1.55874 2.683901 2.12132 2.12132 
C 2.683901 1.55874 3 0.795609 3 0 
C 3 -0.795609 2.683901 -1.55874 2.12132 -2.12132 
C 1.55874 -2.683901 0.795609 -3 0 -3 
C -0.795609 -3 -1.55874 -2.683901 -2.12132 -2.12132 
C -2.683901 -1.55874 -3 -0.795609 -3 0 
C -3 0.795609 -2.683901 1.55874 -2.12132 2.12132 
C -1.55874 2.683901 -0.795609 3 0 3 
z
" id="m1f59127a56" style="stroke:#1e90ff;"/>
    </defs>
    <g clip-path="url(#pd89785a3f0)">
     <use style="fill:#1e90ff;stroke:#1e90ff;" x="468.395524" xlink:href="#m1f59127a56" y="269.26092"/>
     <use style="fill:#1e90ff;stroke:#1e90ff;" x="432.33209" xlink:href="#m1f59127a56" y="237.993145"/>
     <use style="fill:#1e90ff;stroke:#1e90ff;" x="431.971523" xlink:href="#m1f59127a56" y="235.479524"/>
     <use style="fill:#1e90ff;stroke:#1e90ff;" x="390.096177" xlink:href="#m1f59127a56" y="124.673896"/>
    </g>
   </g>
   <g id="PathCollection_7">
    <defs>
     <path d="M 0 3 
C 0.795609 3 1.55874 2.683901 2.12132 2.12132 
C 2.683901 1.55874 3 0.795609 3 0 
C 3 -0.795609 2.683901 -1.55874 2.12132 -2.12132 
C 1.55874 -2.683901 0.795609 -3 0 -3 
C -0.795609 -3 -1.55874 -2.683901 -2.12132 -2.12132 
C -2.683901 -1.55874 -3 -0.795609 -3 0 
C -3 0.795609 -2.683901 1.55874 -2.12132 2.12132 
C -1.55874 2.683901 -0.795609 3 0 3 
z
" id="m1461f42e45" style="stroke:#0000ff;"/>
    </defs>
    <g clip-path="url(#pd89785a3f0)">
     <use style="fill:#0000ff;stroke:#0000ff;" x="364.274186" xlink:href="#m1461f42e45" y="128.68198"/>
    </g>
   </g>
   <g id="PathCollection_8">
    <defs>
     <path d="M 0 3 
C 0.795609 3 1.55874 2.683901 2.12132 2.12132 
C 2.683901 1.55874 3 0.795609 3 0 
C 3 -0.795609 2.683901 -1.55874 2.12132 -2.12132 
C 1.55874 -2.683901 0.795609 -3 0 -3 
C -0.795609 -3 -1.55874 -2.683901 -2.12132 -2.12132 
C -2.683901 -1.55874 -3 -0.795609 -3 0 
C -3 0.795609 -2.683901 1.55874 -2.12132 2.12132 
C -1.55874 2.683901 -0.795609 3 0 3 
z
" id="mf331546939" style="stroke:#0000cd;"/>
    </defs>
    <g clip-path="url(#pd89785a3f0)">
     <use style="fill:#0000cd;stroke:#0000cd;" x="307.063193" xlink:href="#mf331546939" y="128.029352"/>
     <use style="fill:#0000cd;stroke:#0000cd;" x="338.024814" xlink:href="#mf331546939" y="44.812235"/>
     <use style="fill:#0000cd;stroke:#0000cd;" x="470.917163" xlink:href="#mf331546939" y="267.8285"/>
     <use style="fill:#0000cd;stroke:#0000cd;" x="385.837217" xlink:href="#mf331546939" y="192.991578"/>
     <use style="fill:#0000cd;stroke:#0000cd;" x="339.084056" xlink:href="#mf331546939" y="63.413793"/>
    </g>
   </g>
   <g id="PathCollection_9">
    <defs>
     <path d="M 0 3 
C 0.795609 3 1.55874 2.683901 2.12132 2.12132 
C 2.683901 1.55874 3 0.795609 3 0 
C 3 -0.795609 2.683901 -1.55874 2.12132 -2.12132 
C 1.55874 -2.683901 0.795609 -3 0 -3 
C -0.795609 -3 -1.55874 -2.683901 -2.12132 -2.12132 
C -2.683901 -1.55874 -3 -0.795609 -3 0 
C -3 0.795609 -2.683901 1.55874 -2.12132 2.12132 
C -1.55874 2.683901 -0.795609 3 0 3 
z
" id="me82b17a34c" style="stroke:#ffd700;"/>
    </defs>
    <g clip-path="url(#pd89785a3f0)">
     <use style="fill:#ffd700;stroke:#ffd700;" x="453.134683" xlink:href="#me82b17a34c" y="261.36208"/>
     <use style="fill:#ffd700;stroke:#ffd700;" x="376.540598" xlink:href="#me82b17a34c" y="131.945083"/>
     <use style="fill:#ffd700;stroke:#ffd700;" x="381.98333" xlink:href="#me82b17a34c" y="42.811377"/>
     <use style="fill:#ffd700;stroke:#ffd700;" x="332.362754" xlink:href="#me82b17a34c" y="200.568815"/>
    </g>
   </g>
   <g id="PathCollection_10">
    <defs>
     <path d="M 0 3 
C 0.795609 3 1.55874 2.683901 2.12132 2.12132 
C 2.683901 1.55874 3 0.795609 3 0 
C 3 -0.795609 2.683901 -1.55874 2.12132 -2.12132 
C 1.55874 -2.683901 0.795609 -3 0 -3 
C -0.795609 -3 -1.55874 -2.683901 -2.12132 -2.12132 
C -2.683901 -1.55874 -3 -0.795609 -3 0 
C -3 0.795609 -2.683901 1.55874 -2.12132 2.12132 
C -1.55874 2.683901 -0.795609 3 0 3 
z
" id="m542184179b" style="stroke:#ffa500;"/>
    </defs>
    <g clip-path="url(#pd89785a3f0)">
     <use style="fill:#ffa500;stroke:#ffa500;" x="310.04041" xlink:href="#m542184179b" y="70.936715"/>
     <use style="fill:#ffa500;stroke:#ffa500;" x="460.406221" xlink:href="#m542184179b" y="235.41144"/>
     <use style="fill:#ffa500;stroke:#ffa500;" x="388.787986" xlink:href="#m542184179b" y="121.257419"/>
    </g>
   </g>
   <g id="PathCollection_11">
    <defs>
     <path d="M 0 3 
C 0.795609 3 1.55874 2.683901 2.12132 2.12132 
C 2.683901 1.55874 3 0.795609 3 0 
C 3 -0.795609 2.683901 -1.55874 2.12132 -2.12132 
C 1.55874 -2.683901 0.795609 -3 0 -3 
C -0.795609 -3 -1.55874 -2.683901 -2.12132 -2.12132 
C -2.683901 -1.55874 -3 -0.795609 -3 0 
C -3 0.795609 -2.683901 1.55874 -2.12132 2.12132 
C -1.55874 2.683901 -0.795609 3 0 3 
z
" id="m8e25c16fb6" style="stroke:#ff00ff;"/>
    </defs>
    <g clip-path="url(#pd89785a3f0)">
     <use style="fill:#ff00ff;stroke:#ff00ff;" x="462.026472" xlink:href="#m8e25c16fb6" y="248.202593"/>
     <use style="fill:#ff00ff;stroke:#ff00ff;" x="388.147399" xlink:href="#m8e25c16fb6" y="116.072802"/>
     <use style="fill:#ff00ff;stroke:#ff00ff;" x="299.485018" xlink:href="#m8e25c16fb6" y="108.619898"/>
     <use style="fill:#ff00ff;stroke:#ff00ff;" x="363.907377" xlink:href="#m8e25c16fb6" y="83.990442"/>
    </g>
   </g>
   <g id="PathCollection_12">
    <defs>
     <path d="M 0 3 
C 0.795609 3 1.55874 2.683901 2.12132 2.12132 
C 2.683901 1.55874 3 0.795609 3 0 
C 3 -0.795609 2.683901 -1.55874 2.12132 -2.12132 
C 1.55874 -2.683901 0.795609 -3 0 -3 
C -0.795609 -3 -1.55874 -2.683901 -2.12132 -2.12132 
C -2.683901 -1.55874 -3 -0.795609 -3 0 
C -3 0.795609 -2.683901 1.55874 -2.12132 2.12132 
C -1.55874 2.683901 -0.795609 3 0 3 
z
" id="m715b5adcea" style="stroke:#00ff00;"/>
    </defs>
    <g clip-path="url(#pd89785a3f0)">
     <use style="fill:#00ff00;stroke:#00ff00;" x="496.600586" xlink:href="#m715b5adcea" y="285.776696"/>
     <use style="fill:#00ff00;stroke:#00ff00;" x="470.864043" xlink:href="#m715b5adcea" y="267.948152"/>
     <use style="fill:#00ff00;stroke:#00ff00;" x="380.153426" xlink:href="#m715b5adcea" y="49.071883"/>
     <use style="fill:#00ff00;stroke:#00ff00;" x="381.103859" xlink:href="#m715b5adcea" y="47.215164"/>
    </g>
   </g>
   <g id="PathCollection_13">
    <defs>
     <path d="M 0 3 
C 0.795609 3 1.55874 2.683901 2.12132 2.12132 
C 2.683901 1.55874 3 0.795609 3 0 
C 3 -0.795609 2.683901 -1.55874 2.12132 -2.12132 
C 1.55874 -2.683901 0.795609 -3 0 -3 
C -0.795609 -3 -1.55874 -2.683901 -2.12132 -2.12132 
C -2.683901 -1.55874 -3 -0.795609 -3 0 
C -3 0.795609 -2.683901 1.55874 -2.12132 2.12132 
C -1.55874 2.683901 -0.795609 3 0 3 
z
" id="m2cc095c945" style="stroke:#008000;"/>
    </defs>
    <g clip-path="url(#pd89785a3f0)">
     <use style="fill:#008000;stroke:#008000;" x="386.113908" xlink:href="#m2cc095c945" y="58.361554"/>
     <use style="fill:#008000;stroke:#008000;" x="467.705444" xlink:href="#m2cc095c945" y="262.780232"/>
     <use style="fill:#008000;stroke:#008000;" x="312.62411" xlink:href="#m2cc095c945" y="74.822322"/>
    </g>
   </g>
   <g id="legend_1">
    <g id="text_1">
     <!-- $\bf{Engineering\:teams\:@GitLab}$ -->
     <defs>
      <path d="M 9.1875 72.90625 
L 59.90625 72.90625 
L 59.90625 58.6875 
L 27.984375 58.6875 
L 27.984375 45.125 
L 58.015625 45.125 
L 58.015625 30.90625 
L 27.984375 30.90625 
L 27.984375 14.203125 
L 60.984375 14.203125 
L 60.984375 0 
L 9.1875 0 
z
" id="DejaVuSans-Bold-69"/>
      <path d="M 63.375 33.296875 
L 63.375 0 
L 45.796875 0 
L 45.796875 5.421875 
L 45.796875 25.484375 
Q 45.796875 32.5625 45.484375 35.25 
Q 45.171875 37.9375 44.390625 39.203125 
Q 43.359375 40.921875 41.59375 41.875 
Q 39.84375 42.828125 37.59375 42.828125 
Q 32.125 42.828125 29 38.59375 
Q 25.875 34.375 25.875 26.90625 
L 25.875 0 
L 8.40625 0 
L 8.40625 54.6875 
L 25.875 54.6875 
L 25.875 46.6875 
Q 29.828125 51.46875 34.265625 53.734375 
Q 38.71875 56 44.09375 56 
Q 53.5625 56 58.46875 50.1875 
Q 63.375 44.390625 63.375 33.296875 
z
" id="DejaVuSans-Bold-110"/>
      <path d="M 45.609375 9.28125 
Q 42 4.5 37.640625 2.25 
Q 33.296875 0 27.59375 0 
Q 17.578125 0 11.03125 7.875 
Q 4.5 15.765625 4.5 27.984375 
Q 4.5 40.234375 11.03125 48.0625 
Q 17.578125 55.90625 27.59375 55.90625 
Q 33.296875 55.90625 37.640625 53.65625 
Q 42 51.421875 45.609375 46.578125 
L 45.609375 54.6875 
L 63.1875 54.6875 
L 63.1875 5.515625 
Q 63.1875 -7.671875 54.859375 -14.625 
Q 46.53125 -21.578125 30.71875 -21.578125 
Q 25.59375 -21.578125 20.796875 -20.796875 
Q 16.015625 -20.015625 11.1875 -18.40625 
L 11.1875 -4.78125 
Q 15.765625 -7.421875 20.15625 -8.71875 
Q 24.5625 -10.015625 29 -10.015625 
Q 37.59375 -10.015625 41.59375 -6.25 
Q 45.609375 -2.484375 45.609375 5.515625 
z
M 34.078125 43.3125 
Q 28.65625 43.3125 25.625 39.296875 
Q 22.609375 35.296875 22.609375 27.984375 
Q 22.609375 20.453125 25.53125 16.578125 
Q 28.46875 12.703125 34.078125 12.703125 
Q 39.546875 12.703125 42.578125 16.703125 
Q 45.609375 20.703125 45.609375 27.984375 
Q 45.609375 35.296875 42.578125 39.296875 
Q 39.546875 43.3125 34.078125 43.3125 
z
" id="DejaVuSans-Bold-103"/>
      <path d="M 8.40625 54.6875 
L 25.875 54.6875 
L 25.875 0 
L 8.40625 0 
z
M 8.40625 75.984375 
L 25.875 75.984375 
L 25.875 61.71875 
L 8.40625 61.71875 
z
" id="DejaVuSans-Bold-105"/>
      <path d="M 62.984375 27.484375 
L 62.984375 22.515625 
L 22.125 22.515625 
Q 22.75 16.359375 26.5625 13.28125 
Q 30.375 10.203125 37.203125 10.203125 
Q 42.71875 10.203125 48.5 11.84375 
Q 54.296875 13.484375 60.40625 16.796875 
L 60.40625 3.328125 
Q 54.203125 0.984375 48 -0.21875 
Q 41.796875 -1.421875 35.59375 -1.421875 
Q 20.75 -1.421875 12.515625 6.125 
Q 4.296875 13.671875 4.296875 27.296875 
Q 4.296875 40.671875 12.375 48.328125 
Q 20.453125 56 34.625 56 
Q 47.515625 56 55.25 48.234375 
Q 62.984375 40.484375 62.984375 27.484375 
z
M 45.015625 33.296875 
Q 45.015625 38.28125 42.109375 41.328125 
Q 39.203125 44.390625 34.515625 44.390625 
Q 29.4375 44.390625 26.265625 41.53125 
Q 23.09375 38.671875 22.3125 33.296875 
z
" id="DejaVuSans-Bold-101"/>
      <path d="M 49.03125 39.796875 
Q 46.734375 40.875 44.453125 41.375 
Q 42.1875 41.890625 39.890625 41.890625 
Q 33.15625 41.890625 29.515625 37.5625 
Q 25.875 33.25 25.875 25.203125 
L 25.875 0 
L 8.40625 0 
L 8.40625 54.6875 
L 25.875 54.6875 
L 25.875 45.703125 
Q 29.25 51.078125 33.609375 53.53125 
Q 37.984375 56 44.09375 56 
Q 44.96875 56 45.984375 55.921875 
Q 47.015625 55.859375 48.96875 55.609375 
z
" id="DejaVuSans-Bold-114"/>
      <path d="M 27.484375 70.21875 
L 27.484375 54.6875 
L 45.515625 54.6875 
L 45.515625 42.1875 
L 27.484375 42.1875 
L 27.484375 19 
Q 27.484375 15.1875 29 13.84375 
Q 30.515625 12.5 35.015625 12.5 
L 44 12.5 
L 44 0 
L 29 0 
Q 18.65625 0 14.328125 4.3125 
Q 10.015625 8.640625 10.015625 19 
L 10.015625 42.1875 
L 1.3125 42.1875 
L 1.3125 54.6875 
L 10.015625 54.6875 
L 10.015625 70.21875 
z
" id="DejaVuSans-Bold-116"/>
      <path d="M 32.90625 24.609375 
Q 27.4375 24.609375 24.671875 22.75 
Q 21.921875 20.90625 21.921875 17.28125 
Q 21.921875 13.96875 24.140625 12.078125 
Q 26.375 10.203125 30.328125 10.203125 
Q 35.25 10.203125 38.625 13.734375 
Q 42 17.28125 42 22.609375 
L 42 24.609375 
z
M 59.625 31.203125 
L 59.625 0 
L 42 0 
L 42 8.109375 
Q 38.484375 3.125 34.078125 0.84375 
Q 29.6875 -1.421875 23.390625 -1.421875 
Q 14.890625 -1.421875 9.59375 3.53125 
Q 4.296875 8.5 4.296875 16.40625 
Q 4.296875 26.03125 10.90625 30.515625 
Q 17.53125 35.015625 31.6875 35.015625 
L 42 35.015625 
L 42 36.375 
Q 42 40.53125 38.71875 42.453125 
Q 35.453125 44.390625 28.515625 44.390625 
Q 22.90625 44.390625 18.0625 43.265625 
Q 13.234375 42.140625 9.078125 39.890625 
L 9.078125 53.21875 
Q 14.703125 54.59375 20.359375 55.296875 
Q 26.03125 56 31.6875 56 
Q 46.484375 56 53.046875 50.171875 
Q 59.625 44.34375 59.625 31.203125 
z
" id="DejaVuSans-Bold-97"/>
      <path d="M 59.078125 45.609375 
Q 62.40625 50.6875 66.96875 53.34375 
Q 71.53125 56 77 56 
Q 86.421875 56 91.359375 50.1875 
Q 96.296875 44.390625 96.296875 33.296875 
L 96.296875 0 
L 78.71875 0 
L 78.71875 28.515625 
Q 78.765625 29.15625 78.78125 29.828125 
Q 78.8125 30.515625 78.8125 31.78125 
Q 78.8125 37.59375 77.09375 40.203125 
Q 75.390625 42.828125 71.578125 42.828125 
Q 66.609375 42.828125 63.890625 38.71875 
Q 61.1875 34.625 61.078125 26.859375 
L 61.078125 0 
L 43.5 0 
L 43.5 28.515625 
Q 43.5 37.59375 41.9375 40.203125 
Q 40.375 42.828125 36.375 42.828125 
Q 31.34375 42.828125 28.609375 38.703125 
Q 25.875 34.578125 25.875 26.90625 
L 25.875 0 
L 8.296875 0 
L 8.296875 54.6875 
L 25.875 54.6875 
L 25.875 46.6875 
Q 29.109375 51.3125 33.28125 53.65625 
Q 37.453125 56 42.484375 56 
Q 48.140625 56 52.484375 53.265625 
Q 56.84375 50.53125 59.078125 45.609375 
z
" id="DejaVuSans-Bold-109"/>
      <path d="M 51.125 52.984375 
L 51.125 39.703125 
Q 45.515625 42.046875 40.28125 43.21875 
Q 35.0625 44.390625 30.421875 44.390625 
Q 25.4375 44.390625 23.015625 43.140625 
Q 20.609375 41.890625 20.609375 39.3125 
Q 20.609375 37.203125 22.4375 36.078125 
Q 24.265625 34.96875 29 34.421875 
L 32.078125 33.984375 
Q 45.515625 32.28125 50.140625 28.375 
Q 54.78125 24.46875 54.78125 16.109375 
Q 54.78125 7.375 48.328125 2.96875 
Q 41.890625 -1.421875 29.109375 -1.421875 
Q 23.6875 -1.421875 17.890625 -0.5625 
Q 12.109375 0.296875 6 2 
L 6 15.28125 
Q 11.234375 12.75 16.71875 11.46875 
Q 22.21875 10.203125 27.875 10.203125 
Q 33.015625 10.203125 35.59375 11.609375 
Q 38.1875 13.03125 38.1875 15.828125 
Q 38.1875 18.171875 36.40625 19.3125 
Q 34.625 20.453125 29.296875 21.09375 
L 26.21875 21.484375 
Q 14.546875 22.953125 9.859375 26.90625 
Q 5.171875 30.859375 5.171875 38.921875 
Q 5.171875 47.609375 11.125 51.796875 
Q 17.09375 56 29.390625 56 
Q 34.234375 56 39.546875 55.265625 
Q 44.875 54.546875 51.125 52.984375 
z
" id="DejaVuSans-Bold-115"/>
      <path d="M 40.578125 26.3125 
Q 40.578125 20.3125 43.140625 16.84375 
Q 45.703125 13.375 50.09375 13.375 
Q 54.4375 13.375 57.03125 16.859375 
Q 59.625 20.359375 59.625 26.3125 
Q 59.625 32.234375 57 35.671875 
Q 54.390625 39.109375 50 39.109375 
Q 45.703125 39.109375 43.140625 35.671875 
Q 40.578125 32.234375 40.578125 26.3125 
z
M 60.59375 11.625 
Q 59.125 8.15625 55.875 6.21875 
Q 52.640625 4.296875 48.296875 4.296875 
Q 39.890625 4.296875 34.640625 10.375 
Q 29.390625 16.453125 29.390625 26.21875 
Q 29.390625 35.984375 34.65625 42.078125 
Q 39.9375 48.1875 48.296875 48.1875 
Q 52.640625 48.1875 55.875 46.234375 
Q 59.125 44.28125 60.59375 40.828125 
L 60.59375 47.21875 
L 70.796875 47.21875 
L 70.796875 13.375 
Q 76.859375 14.3125 80.328125 19.21875 
Q 83.796875 24.125 83.796875 31.78125 
Q 83.796875 36.671875 82.375 40.9375 
Q 80.953125 45.21875 78.078125 48.78125 
Q 73.4375 54.734375 66.46875 57.953125 
Q 59.515625 61.1875 51.421875 61.1875 
Q 45.75 61.1875 40.578125 59.6875 
Q 35.40625 58.203125 31 55.328125 
Q 23.78125 50.53125 19.75 42.9375 
Q 15.71875 35.359375 15.71875 26.515625 
Q 15.71875 19.234375 18.328125 12.859375 
Q 20.953125 6.5 25.875 1.609375 
Q 30.765625 -3.171875 37.078125 -5.6875 
Q 43.40625 -8.203125 50.59375 -8.203125 
Q 56.734375 -8.203125 62.890625 -5.90625 
Q 69.046875 -3.609375 73.390625 0.296875 
L 78.609375 -7.625 
Q 72.515625 -12.359375 65.3125 -14.875 
Q 58.109375 -17.390625 50.6875 -17.390625 
Q 41.65625 -17.390625 33.640625 -14.1875 
Q 25.640625 -10.984375 19.390625 -4.890625 
Q 13.140625 1.21875 9.859375 9.25 
Q 6.59375 17.28125 6.59375 26.515625 
Q 6.59375 35.40625 9.90625 43.453125 
Q 13.234375 51.515625 19.390625 57.625 
Q 25.53125 63.671875 33.703125 66.984375 
Q 41.890625 70.3125 50.6875 70.3125 
Q 61.625 70.3125 70.5625 66.140625 
Q 79.5 61.96875 85.5 54.109375 
Q 89.15625 49.3125 91.03125 43.71875 
Q 92.921875 38.140625 92.921875 31.984375 
Q 92.921875 18.75 84.953125 11.421875 
Q 77 4.109375 62.5 4.109375 
L 60.59375 4.109375 
z
" id="DejaVuSans-Bold-64"/>
      <path d="M 74.703125 5.421875 
Q 67.671875 2 60.109375 0.28125 
Q 52.546875 -1.421875 44.484375 -1.421875 
Q 26.265625 -1.421875 15.625 8.765625 
Q 4.984375 18.953125 4.984375 36.375 
Q 4.984375 54 15.8125 64.109375 
Q 26.65625 74.21875 45.515625 74.21875 
Q 52.78125 74.21875 59.4375 72.84375 
Q 66.109375 71.484375 72.015625 68.796875 
L 72.015625 53.71875 
Q 65.921875 57.171875 59.890625 58.875 
Q 53.859375 60.59375 47.796875 60.59375 
Q 36.578125 60.59375 30.5 54.3125 
Q 24.421875 48.046875 24.421875 36.375 
Q 24.421875 24.8125 30.28125 18.5 
Q 36.140625 12.203125 46.921875 12.203125 
Q 49.859375 12.203125 52.375 12.5625 
Q 54.890625 12.9375 56.890625 13.71875 
L 56.890625 27.875 
L 45.40625 27.875 
L 45.40625 40.484375 
L 74.703125 40.484375 
z
" id="DejaVuSans-Bold-71"/>
      <path d="M 9.1875 72.90625 
L 27.984375 72.90625 
L 27.984375 14.203125 
L 60.984375 14.203125 
L 60.984375 0 
L 9.1875 0 
z
" id="DejaVuSans-Bold-76"/>
      <path d="M 37.5 11.28125 
Q 43.109375 11.28125 46.0625 15.375 
Q 49.03125 19.484375 49.03125 27.296875 
Q 49.03125 35.109375 46.0625 39.203125 
Q 43.109375 43.3125 37.5 43.3125 
Q 31.890625 43.3125 28.875 39.1875 
Q 25.875 35.0625 25.875 27.296875 
Q 25.875 19.53125 28.875 15.40625 
Q 31.890625 11.28125 37.5 11.28125 
z
M 25.875 46.6875 
Q 29.5 51.46875 33.890625 53.734375 
Q 38.28125 56 44 56 
Q 54.109375 56 60.59375 47.96875 
Q 67.09375 39.9375 67.09375 27.296875 
Q 67.09375 14.65625 60.59375 6.609375 
Q 54.109375 -1.421875 44 -1.421875 
Q 38.28125 -1.421875 33.890625 0.84375 
Q 29.5 3.125 25.875 7.90625 
L 25.875 0 
L 8.40625 0 
L 8.40625 75.984375 
L 25.875 75.984375 
z
" id="DejaVuSans-Bold-98"/>
     </defs>
     <g style="fill:#ffffff;" transform="translate(242.006 370.077187)scale(0.14 -0.14)">
      <use transform="translate(0 0.015625)" xlink:href="#DejaVuSans-Bold-69"/>
      <use transform="translate(68.310547 0.015625)" xlink:href="#DejaVuSans-Bold-110"/>
      <use transform="translate(139.501953 0.015625)" xlink:href="#DejaVuSans-Bold-103"/>
      <use transform="translate(211.083984 0.015625)" xlink:href="#DejaVuSans-Bold-105"/>
      <use transform="translate(245.361328 0.015625)" xlink:href="#DejaVuSans-Bold-110"/>
      <use transform="translate(316.552734 0.015625)" xlink:href="#DejaVuSans-Bold-101"/>
      <use transform="translate(384.375 0.015625)" xlink:href="#DejaVuSans-Bold-101"/>
      <use transform="translate(452.197266 0.015625)" xlink:href="#DejaVuSans-Bold-114"/>
      <use transform="translate(501.513672 0.015625)" xlink:href="#DejaVuSans-Bold-105"/>
      <use transform="translate(535.791016 0.015625)" xlink:href="#DejaVuSans-Bold-110"/>
      <use transform="translate(606.982422 0.015625)" xlink:href="#DejaVuSans-Bold-103"/>
      <use transform="translate(701.719604 0.015625)" xlink:href="#DejaVuSans-Bold-116"/>
      <use transform="translate(749.522338 0.015625)" xlink:href="#DejaVuSans-Bold-101"/>
      <use transform="translate(817.344604 0.015625)" xlink:href="#DejaVuSans-Bold-97"/>
      <use transform="translate(884.825072 0.015625)" xlink:href="#DejaVuSans-Bold-109"/>
      <use transform="translate(989.024291 0.015625)" xlink:href="#DejaVuSans-Bold-115"/>
      <use transform="translate(1071.700926 0.015625)" xlink:href="#DejaVuSans-Bold-64"/>
      <use transform="translate(1171.700926 0.015625)" xlink:href="#DejaVuSans-Bold-71"/>
      <use transform="translate(1253.781004 0.015625)" xlink:href="#DejaVuSans-Bold-105"/>
      <use transform="translate(1288.058348 0.015625)" xlink:href="#DejaVuSans-Bold-116"/>
      <use transform="translate(1335.861082 0.015625)" xlink:href="#DejaVuSans-Bold-76"/>
      <use transform="translate(1399.581785 0.015625)" xlink:href="#DejaVuSans-Bold-97"/>
      <use transform="translate(1467.062254 0.015625)" xlink:href="#DejaVuSans-Bold-98"/>
     </g>
    </g>
    <g id="PathCollection_14">
     <g>
      <use style="fill:#008000;stroke:#008000;" x="256.006" xlink:href="#m2cc095c945" y="392.12"/>
     </g>
    </g>
    <g id="text_2">
     <!-- Verify -->
     <defs>
      <path d="M 28.609375 0 
L 0.78125 72.90625 
L 11.078125 72.90625 
L 34.1875 11.53125 
L 57.328125 72.90625 
L 67.578125 72.90625 
L 39.796875 0 
z
" id="DejaVuSans-86"/>
      <path d="M 56.203125 29.59375 
L 56.203125 25.203125 
L 14.890625 25.203125 
Q 15.484375 15.921875 20.484375 11.0625 
Q 25.484375 6.203125 34.421875 6.203125 
Q 39.59375 6.203125 44.453125 7.46875 
Q 49.3125 8.734375 54.109375 11.28125 
L 54.109375 2.78125 
Q 49.265625 0.734375 44.1875 -0.34375 
Q 39.109375 -1.421875 33.890625 -1.421875 
Q 20.796875 -1.421875 13.15625 6.1875 
Q 5.515625 13.8125 5.515625 26.8125 
Q 5.515625 40.234375 12.765625 48.109375 
Q 20.015625 56 32.328125 56 
Q 43.359375 56 49.78125 48.890625 
Q 56.203125 41.796875 56.203125 29.59375 
z
M 47.21875 32.234375 
Q 47.125 39.59375 43.09375 43.984375 
Q 39.0625 48.390625 32.421875 48.390625 
Q 24.90625 48.390625 20.390625 44.140625 
Q 15.875 39.890625 15.1875 32.171875 
z
" id="DejaVuSans-101"/>
      <path d="M 41.109375 46.296875 
Q 39.59375 47.171875 37.8125 47.578125 
Q 36.03125 48 33.890625 48 
Q 26.265625 48 22.1875 43.046875 
Q 18.109375 38.09375 18.109375 28.8125 
L 18.109375 0 
L 9.078125 0 
L 9.078125 54.6875 
L 18.109375 54.6875 
L 18.109375 46.1875 
Q 20.953125 51.171875 25.484375 53.578125 
Q 30.03125 56 36.53125 56 
Q 37.453125 56 38.578125 55.875 
Q 39.703125 55.765625 41.0625 55.515625 
z
" id="DejaVuSans-114"/>
      <path d="M 9.421875 54.6875 
L 18.40625 54.6875 
L 18.40625 0 
L 9.421875 0 
z
M 9.421875 75.984375 
L 18.40625 75.984375 
L 18.40625 64.59375 
L 9.421875 64.59375 
z
" id="DejaVuSans-105"/>
      <path d="M 37.109375 75.984375 
L 37.109375 68.5 
L 28.515625 68.5 
Q 23.6875 68.5 21.796875 66.546875 
Q 19.921875 64.59375 19.921875 59.515625 
L 19.921875 54.6875 
L 34.71875 54.6875 
L 34.71875 47.703125 
L 19.921875 47.703125 
L 19.921875 0 
L 10.890625 0 
L 10.890625 47.703125 
L 2.296875 47.703125 
L 2.296875 54.6875 
L 10.890625 54.6875 
L 10.890625 58.5 
Q 10.890625 67.625 15.140625 71.796875 
Q 19.390625 75.984375 28.609375 75.984375 
z
" id="DejaVuSans-102"/>
      <path d="M 32.171875 -5.078125 
Q 28.375 -14.84375 24.75 -17.8125 
Q 21.140625 -20.796875 15.09375 -20.796875 
L 7.90625 -20.796875 
L 7.90625 -13.28125 
L 13.1875 -13.28125 
Q 16.890625 -13.28125 18.9375 -11.515625 
Q 21 -9.765625 23.484375 -3.21875 
L 25.09375 0.875 
L 2.984375 54.6875 
L 12.5 54.6875 
L 29.59375 11.921875 
L 46.6875 54.6875 
L 56.203125 54.6875 
z
" id="DejaVuSans-121"/>
     </defs>
     <g style="fill:#ffffff;" transform="translate(281.206 395.795)scale(0.14 -0.14)">
      <use xlink:href="#DejaVuSans-86"/>
      <use x="68.298828" xlink:href="#DejaVuSans-101"/>
      <use x="129.822266" xlink:href="#DejaVuSans-114"/>
      <use x="170.935547" xlink:href="#DejaVuSans-105"/>
      <use x="198.71875" xlink:href="#DejaVuSans-102"/>
      <use x="233.908203" xlink:href="#DejaVuSans-121"/>
     </g>
    </g>
    <g id="PathCollection_15">
     <g>
      <use style="fill:#00ff00;stroke:#00ff00;" x="256.006" xlink:href="#m715b5adcea" y="412.669375"/>
     </g>
    </g>
    <g id="text_3">
     <!-- Gitaly -->
     <defs>
      <path d="M 59.515625 10.40625 
L 59.515625 29.984375 
L 43.40625 29.984375 
L 43.40625 38.09375 
L 69.28125 38.09375 
L 69.28125 6.78125 
Q 63.578125 2.734375 56.6875 0.65625 
Q 49.8125 -1.421875 42 -1.421875 
Q 24.90625 -1.421875 15.25 8.5625 
Q 5.609375 18.5625 5.609375 36.375 
Q 5.609375 54.25 15.25 64.234375 
Q 24.90625 74.21875 42 74.21875 
Q 49.125 74.21875 55.546875 72.453125 
Q 61.96875 70.703125 67.390625 67.28125 
L 67.390625 56.78125 
Q 61.921875 61.421875 55.765625 63.765625 
Q 49.609375 66.109375 42.828125 66.109375 
Q 29.4375 66.109375 22.71875 58.640625 
Q 16.015625 51.171875 16.015625 36.375 
Q 16.015625 21.625 22.71875 14.15625 
Q 29.4375 6.6875 42.828125 6.6875 
Q 48.046875 6.6875 52.140625 7.59375 
Q 56.25 8.5 59.515625 10.40625 
z
" id="DejaVuSans-71"/>
      <path d="M 18.3125 70.21875 
L 18.3125 54.6875 
L 36.8125 54.6875 
L 36.8125 47.703125 
L 18.3125 47.703125 
L 18.3125 18.015625 
Q 18.3125 11.328125 20.140625 9.421875 
Q 21.96875 7.515625 27.59375 7.515625 
L 36.8125 7.515625 
L 36.8125 0 
L 27.59375 0 
Q 17.1875 0 13.234375 3.875 
Q 9.28125 7.765625 9.28125 18.015625 
L 9.28125 47.703125 
L 2.6875 47.703125 
L 2.6875 54.6875 
L 9.28125 54.6875 
L 9.28125 70.21875 
z
" id="DejaVuSans-116"/>
      <path d="M 34.28125 27.484375 
Q 23.390625 27.484375 19.1875 25 
Q 14.984375 22.515625 14.984375 16.5 
Q 14.984375 11.71875 18.140625 8.90625 
Q 21.296875 6.109375 26.703125 6.109375 
Q 34.1875 6.109375 38.703125 11.40625 
Q 43.21875 16.703125 43.21875 25.484375 
L 43.21875 27.484375 
z
M 52.203125 31.203125 
L 52.203125 0 
L 43.21875 0 
L 43.21875 8.296875 
Q 40.140625 3.328125 35.546875 0.953125 
Q 30.953125 -1.421875 24.3125 -1.421875 
Q 15.921875 -1.421875 10.953125 3.296875 
Q 6 8.015625 6 15.921875 
Q 6 25.140625 12.171875 29.828125 
Q 18.359375 34.515625 30.609375 34.515625 
L 43.21875 34.515625 
L 43.21875 35.40625 
Q 43.21875 41.609375 39.140625 45 
Q 35.0625 48.390625 27.6875 48.390625 
Q 23 48.390625 18.546875 47.265625 
Q 14.109375 46.140625 10.015625 43.890625 
L 10.015625 52.203125 
Q 14.9375 54.109375 19.578125 55.046875 
Q 24.21875 56 28.609375 56 
Q 40.484375 56 46.34375 49.84375 
Q 52.203125 43.703125 52.203125 31.203125 
z
" id="DejaVuSans-97"/>
      <path d="M 9.421875 75.984375 
L 18.40625 75.984375 
L 18.40625 0 
L 9.421875 0 
z
" id="DejaVuSans-108"/>
     </defs>
     <g style="fill:#ffffff;" transform="translate(281.206 416.344375)scale(0.14 -0.14)">
      <use xlink:href="#DejaVuSans-71"/>
      <use x="77.490234" xlink:href="#DejaVuSans-105"/>
      <use x="105.273438" xlink:href="#DejaVuSans-116"/>
      <use x="144.482422" xlink:href="#DejaVuSans-97"/>
      <use x="205.761719" xlink:href="#DejaVuSans-108"/>
      <use x="233.544922" xlink:href="#DejaVuSans-121"/>
     </g>
    </g>
    <g id="PathCollection_16">
     <g>
      <use style="fill:#ff00ff;stroke:#ff00ff;" x="256.006" xlink:href="#m8e25c16fb6" y="433.21875"/>
     </g>
    </g>
    <g id="text_4">
     <!-- Dev UX -->
     <defs>
      <path d="M 19.671875 64.796875 
L 19.671875 8.109375 
L 31.59375 8.109375 
Q 46.6875 8.109375 53.6875 14.9375 
Q 60.6875 21.78125 60.6875 36.53125 
Q 60.6875 51.171875 53.6875 57.984375 
Q 46.6875 64.796875 31.59375 64.796875 
z
M 9.8125 72.90625 
L 30.078125 72.90625 
Q 51.265625 72.90625 61.171875 64.09375 
Q 71.09375 55.28125 71.09375 36.53125 
Q 71.09375 17.671875 61.125 8.828125 
Q 51.171875 0 30.078125 0 
L 9.8125 0 
z
" id="DejaVuSans-68"/>
      <path d="M 2.984375 54.6875 
L 12.5 54.6875 
L 29.59375 8.796875 
L 46.6875 54.6875 
L 56.203125 54.6875 
L 35.6875 0 
L 23.484375 0 
z
" id="DejaVuSans-118"/>
      <path id="DejaVuSans-32"/>
      <path d="M 8.6875 72.90625 
L 18.609375 72.90625 
L 18.609375 28.609375 
Q 18.609375 16.890625 22.84375 11.734375 
Q 27.09375 6.59375 36.625 6.59375 
Q 46.09375 6.59375 50.34375 11.734375 
Q 54.59375 16.890625 54.59375 28.609375 
L 54.59375 72.90625 
L 64.5 72.90625 
L 64.5 27.390625 
Q 64.5 13.140625 57.4375 5.859375 
Q 50.390625 -1.421875 36.625 -1.421875 
Q 22.796875 -1.421875 15.734375 5.859375 
Q 8.6875 13.140625 8.6875 27.390625 
z
" id="DejaVuSans-85"/>
      <path d="M 6.296875 72.90625 
L 16.890625 72.90625 
L 35.015625 45.796875 
L 53.21875 72.90625 
L 63.8125 72.90625 
L 40.375 37.890625 
L 65.375 0 
L 54.78125 0 
L 34.28125 31 
L 13.625 0 
L 2.984375 0 
L 29 38.921875 
z
" id="DejaVuSans-88"/>
     </defs>
     <g style="fill:#ffffff;" transform="translate(281.206 436.89375)scale(0.14 -0.14)">
      <use xlink:href="#DejaVuSans-68"/>
      <use x="77.001953" xlink:href="#DejaVuSans-101"/>
      <use x="138.525391" xlink:href="#DejaVuSans-118"/>
      <use x="197.705078" xlink:href="#DejaVuSans-32"/>
      <use x="229.492188" xlink:href="#DejaVuSans-85"/>
      <use x="302.685547" xlink:href="#DejaVuSans-88"/>
     </g>
    </g>
    <g id="PathCollection_17">
     <g>
      <use style="fill:#ffa500;stroke:#ffa500;" x="256.006" xlink:href="#m542184179b" y="453.768125"/>
     </g>
    </g>
    <g id="text_5">
     <!-- Plan FE -->
     <defs>
      <path d="M 19.671875 64.796875 
L 19.671875 37.40625 
L 32.078125 37.40625 
Q 38.96875 37.40625 42.71875 40.96875 
Q 46.484375 44.53125 46.484375 51.125 
Q 46.484375 57.671875 42.71875 61.234375 
Q 38.96875 64.796875 32.078125 64.796875 
z
M 9.8125 72.90625 
L 32.078125 72.90625 
Q 44.34375 72.90625 50.609375 67.359375 
Q 56.890625 61.8125 56.890625 51.125 
Q 56.890625 40.328125 50.609375 34.8125 
Q 44.34375 29.296875 32.078125 29.296875 
L 19.671875 29.296875 
L 19.671875 0 
L 9.8125 0 
z
" id="DejaVuSans-80"/>
      <path d="M 54.890625 33.015625 
L 54.890625 0 
L 45.90625 0 
L 45.90625 32.71875 
Q 45.90625 40.484375 42.875 44.328125 
Q 39.84375 48.1875 33.796875 48.1875 
Q 26.515625 48.1875 22.3125 43.546875 
Q 18.109375 38.921875 18.109375 30.90625 
L 18.109375 0 
L 9.078125 0 
L 9.078125 54.6875 
L 18.109375 54.6875 
L 18.109375 46.1875 
Q 21.34375 51.125 25.703125 53.5625 
Q 30.078125 56 35.796875 56 
Q 45.21875 56 50.046875 50.171875 
Q 54.890625 44.34375 54.890625 33.015625 
z
" id="DejaVuSans-110"/>
      <path d="M 9.8125 72.90625 
L 51.703125 72.90625 
L 51.703125 64.59375 
L 19.671875 64.59375 
L 19.671875 43.109375 
L 48.578125 43.109375 
L 48.578125 34.8125 
L 19.671875 34.8125 
L 19.671875 0 
L 9.8125 0 
z
" id="DejaVuSans-70"/>
      <path d="M 9.8125 72.90625 
L 55.90625 72.90625 
L 55.90625 64.59375 
L 19.671875 64.59375 
L 19.671875 43.015625 
L 54.390625 43.015625 
L 54.390625 34.71875 
L 19.671875 34.71875 
L 19.671875 8.296875 
L 56.78125 8.296875 
L 56.78125 0 
L 9.8125 0 
z
" id="DejaVuSans-69"/>
     </defs>
     <g style="fill:#ffffff;" transform="translate(281.206 457.443125)scale(0.14 -0.14)">
      <use xlink:href="#DejaVuSans-80"/>
      <use x="60.302734" xlink:href="#DejaVuSans-108"/>
      <use x="88.085938" xlink:href="#DejaVuSans-97"/>
      <use x="149.365234" xlink:href="#DejaVuSans-110"/>
      <use x="212.744141" xlink:href="#DejaVuSans-32"/>
      <use x="244.53125" xlink:href="#DejaVuSans-70"/>
      <use x="302.050781" xlink:href="#DejaVuSans-69"/>
     </g>
    </g>
    <g id="PathCollection_18">
     <g>
      <use style="fill:#ffd700;stroke:#ffd700;" x="256.006" xlink:href="#me82b17a34c" y="474.3175"/>
     </g>
    </g>
    <g id="text_6">
     <!-- Monitor FE -->
     <defs>
      <path d="M 9.8125 72.90625 
L 24.515625 72.90625 
L 43.109375 23.296875 
L 61.8125 72.90625 
L 76.515625 72.90625 
L 76.515625 0 
L 66.890625 0 
L 66.890625 64.015625 
L 48.09375 14.015625 
L 38.1875 14.015625 
L 19.390625 64.015625 
L 19.390625 0 
L 9.8125 0 
z
" id="DejaVuSans-77"/>
      <path d="M 30.609375 48.390625 
Q 23.390625 48.390625 19.1875 42.75 
Q 14.984375 37.109375 14.984375 27.296875 
Q 14.984375 17.484375 19.15625 11.84375 
Q 23.34375 6.203125 30.609375 6.203125 
Q 37.796875 6.203125 41.984375 11.859375 
Q 46.1875 17.53125 46.1875 27.296875 
Q 46.1875 37.015625 41.984375 42.703125 
Q 37.796875 48.390625 30.609375 48.390625 
z
M 30.609375 56 
Q 42.328125 56 49.015625 48.375 
Q 55.71875 40.765625 55.71875 27.296875 
Q 55.71875 13.875 49.015625 6.21875 
Q 42.328125 -1.421875 30.609375 -1.421875 
Q 18.84375 -1.421875 12.171875 6.21875 
Q 5.515625 13.875 5.515625 27.296875 
Q 5.515625 40.765625 12.171875 48.375 
Q 18.84375 56 30.609375 56 
z
" id="DejaVuSans-111"/>
     </defs>
     <g style="fill:#ffffff;" transform="translate(281.206 477.9925)scale(0.14 -0.14)">
      <use xlink:href="#DejaVuSans-77"/>
      <use x="86.279297" xlink:href="#DejaVuSans-111"/>
      <use x="147.460938" xlink:href="#DejaVuSans-110"/>
      <use x="210.839844" xlink:href="#DejaVuSans-105"/>
      <use x="238.623047" xlink:href="#DejaVuSans-116"/>
      <use x="277.832031" xlink:href="#DejaVuSans-111"/>
      <use x="339.013672" xlink:href="#DejaVuSans-114"/>
      <use x="380.126953" xlink:href="#DejaVuSans-32"/>
      <use x="411.914062" xlink:href="#DejaVuSans-70"/>
      <use x="469.433594" xlink:href="#DejaVuSans-69"/>
     </g>
    </g>
    <g id="PathCollection_19">
     <g>
      <use style="fill:#0000cd;stroke:#0000cd;" x="256.006" xlink:href="#mf331546939" y="494.866875"/>
     </g>
    </g>
    <g id="text_7">
     <!-- Plan BE -->
     <defs>
      <path d="M 19.671875 34.8125 
L 19.671875 8.109375 
L 35.5 8.109375 
Q 43.453125 8.109375 47.28125 11.40625 
Q 51.125 14.703125 51.125 21.484375 
Q 51.125 28.328125 47.28125 31.5625 
Q 43.453125 34.8125 35.5 34.8125 
z
M 19.671875 64.796875 
L 19.671875 42.828125 
L 34.28125 42.828125 
Q 41.5 42.828125 45.03125 45.53125 
Q 48.578125 48.25 48.578125 53.8125 
Q 48.578125 59.328125 45.03125 62.0625 
Q 41.5 64.796875 34.28125 64.796875 
z
M 9.8125 72.90625 
L 35.015625 72.90625 
Q 46.296875 72.90625 52.390625 68.21875 
Q 58.5 63.53125 58.5 54.890625 
Q 58.5 48.1875 55.375 44.234375 
Q 52.25 40.28125 46.1875 39.3125 
Q 53.46875 37.75 57.5 32.78125 
Q 61.53125 27.828125 61.53125 20.40625 
Q 61.53125 10.640625 54.890625 5.3125 
Q 48.25 0 35.984375 0 
L 9.8125 0 
z
" id="DejaVuSans-66"/>
     </defs>
     <g style="fill:#ffffff;" transform="translate(281.206 498.541875)scale(0.14 -0.14)">
      <use xlink:href="#DejaVuSans-80"/>
      <use x="60.302734" xlink:href="#DejaVuSans-108"/>
      <use x="88.085938" xlink:href="#DejaVuSans-97"/>
      <use x="149.365234" xlink:href="#DejaVuSans-110"/>
      <use x="212.744141" xlink:href="#DejaVuSans-32"/>
      <use x="244.53125" xlink:href="#DejaVuSans-66"/>
      <use x="313.134766" xlink:href="#DejaVuSans-69"/>
     </g>
    </g>
    <g id="PathCollection_20">
     <g>
      <use style="fill:#0000ff;stroke:#0000ff;" x="256.006" xlink:href="#m1461f42e45" y="515.41625"/>
     </g>
    </g>
    <g id="text_8">
     <!-- Manage BE -->
     <defs>
      <path d="M 45.40625 27.984375 
Q 45.40625 37.75 41.375 43.109375 
Q 37.359375 48.484375 30.078125 48.484375 
Q 22.859375 48.484375 18.828125 43.109375 
Q 14.796875 37.75 14.796875 27.984375 
Q 14.796875 18.265625 18.828125 12.890625 
Q 22.859375 7.515625 30.078125 7.515625 
Q 37.359375 7.515625 41.375 12.890625 
Q 45.40625 18.265625 45.40625 27.984375 
z
M 54.390625 6.78125 
Q 54.390625 -7.171875 48.1875 -13.984375 
Q 42 -20.796875 29.203125 -20.796875 
Q 24.46875 -20.796875 20.265625 -20.09375 
Q 16.0625 -19.390625 12.109375 -17.921875 
L 12.109375 -9.1875 
Q 16.0625 -11.328125 19.921875 -12.34375 
Q 23.78125 -13.375 27.78125 -13.375 
Q 36.625 -13.375 41.015625 -8.765625 
Q 45.40625 -4.15625 45.40625 5.171875 
L 45.40625 9.625 
Q 42.625 4.78125 38.28125 2.390625 
Q 33.9375 0 27.875 0 
Q 17.828125 0 11.671875 7.65625 
Q 5.515625 15.328125 5.515625 27.984375 
Q 5.515625 40.671875 11.671875 48.328125 
Q 17.828125 56 27.875 56 
Q 33.9375 56 38.28125 53.609375 
Q 42.625 51.21875 45.40625 46.390625 
L 45.40625 54.6875 
L 54.390625 54.6875 
z
" id="DejaVuSans-103"/>
     </defs>
     <g style="fill:#ffffff;" transform="translate(281.206 519.09125)scale(0.14 -0.14)">
      <use xlink:href="#DejaVuSans-77"/>
      <use x="86.279297" xlink:href="#DejaVuSans-97"/>
      <use x="147.558594" xlink:href="#DejaVuSans-110"/>
      <use x="210.9375" xlink:href="#DejaVuSans-97"/>
      <use x="272.216797" xlink:href="#DejaVuSans-103"/>
      <use x="335.693359" xlink:href="#DejaVuSans-101"/>
      <use x="397.216797" xlink:href="#DejaVuSans-32"/>
      <use x="429.003906" xlink:href="#DejaVuSans-66"/>
      <use x="497.607422" xlink:href="#DejaVuSans-69"/>
     </g>
    </g>
    <g id="PathCollection_21">
     <g>
      <use style="fill:#1e90ff;stroke:#1e90ff;" x="401.71975" xlink:href="#m1f59127a56" y="392.12"/>
     </g>
    </g>
    <g id="text_9">
     <!-- Distribution BE -->
     <defs>
      <path d="M 44.28125 53.078125 
L 44.28125 44.578125 
Q 40.484375 46.53125 36.375 47.5 
Q 32.28125 48.484375 27.875 48.484375 
Q 21.1875 48.484375 17.84375 46.4375 
Q 14.5 44.390625 14.5 40.28125 
Q 14.5 37.15625 16.890625 35.375 
Q 19.28125 33.59375 26.515625 31.984375 
L 29.59375 31.296875 
Q 39.15625 29.25 43.1875 25.515625 
Q 47.21875 21.78125 47.21875 15.09375 
Q 47.21875 7.46875 41.1875 3.015625 
Q 35.15625 -1.421875 24.609375 -1.421875 
Q 20.21875 -1.421875 15.453125 -0.5625 
Q 10.6875 0.296875 5.421875 2 
L 5.421875 11.28125 
Q 10.40625 8.6875 15.234375 7.390625 
Q 20.0625 6.109375 24.8125 6.109375 
Q 31.15625 6.109375 34.5625 8.28125 
Q 37.984375 10.453125 37.984375 14.40625 
Q 37.984375 18.0625 35.515625 20.015625 
Q 33.0625 21.96875 24.703125 23.78125 
L 21.578125 24.515625 
Q 13.234375 26.265625 9.515625 29.90625 
Q 5.8125 33.546875 5.8125 39.890625 
Q 5.8125 47.609375 11.28125 51.796875 
Q 16.75 56 26.8125 56 
Q 31.78125 56 36.171875 55.265625 
Q 40.578125 54.546875 44.28125 53.078125 
z
" id="DejaVuSans-115"/>
      <path d="M 48.6875 27.296875 
Q 48.6875 37.203125 44.609375 42.84375 
Q 40.53125 48.484375 33.40625 48.484375 
Q 26.265625 48.484375 22.1875 42.84375 
Q 18.109375 37.203125 18.109375 27.296875 
Q 18.109375 17.390625 22.1875 11.75 
Q 26.265625 6.109375 33.40625 6.109375 
Q 40.53125 6.109375 44.609375 11.75 
Q 48.6875 17.390625 48.6875 27.296875 
z
M 18.109375 46.390625 
Q 20.953125 51.265625 25.265625 53.625 
Q 29.59375 56 35.59375 56 
Q 45.5625 56 51.78125 48.09375 
Q 58.015625 40.1875 58.015625 27.296875 
Q 58.015625 14.40625 51.78125 6.484375 
Q 45.5625 -1.421875 35.59375 -1.421875 
Q 29.59375 -1.421875 25.265625 0.953125 
Q 20.953125 3.328125 18.109375 8.203125 
L 18.109375 0 
L 9.078125 0 
L 9.078125 75.984375 
L 18.109375 75.984375 
z
" id="DejaVuSans-98"/>
      <path d="M 8.5 21.578125 
L 8.5 54.6875 
L 17.484375 54.6875 
L 17.484375 21.921875 
Q 17.484375 14.15625 20.5 10.265625 
Q 23.53125 6.390625 29.59375 6.390625 
Q 36.859375 6.390625 41.078125 11.03125 
Q 45.3125 15.671875 45.3125 23.6875 
L 45.3125 54.6875 
L 54.296875 54.6875 
L 54.296875 0 
L 45.3125 0 
L 45.3125 8.40625 
Q 42.046875 3.421875 37.71875 1 
Q 33.40625 -1.421875 27.6875 -1.421875 
Q 18.265625 -1.421875 13.375 4.4375 
Q 8.5 10.296875 8.5 21.578125 
z
M 31.109375 56 
z
" id="DejaVuSans-117"/>
     </defs>
     <g style="fill:#ffffff;" transform="translate(426.91975 395.795)scale(0.14 -0.14)">
      <use xlink:href="#DejaVuSans-68"/>
      <use x="77.001953" xlink:href="#DejaVuSans-105"/>
      <use x="104.785156" xlink:href="#DejaVuSans-115"/>
      <use x="156.884766" xlink:href="#DejaVuSans-116"/>
      <use x="196.09375" xlink:href="#DejaVuSans-114"/>
      <use x="237.207031" xlink:href="#DejaVuSans-105"/>
      <use x="264.990234" xlink:href="#DejaVuSans-98"/>
      <use x="328.466797" xlink:href="#DejaVuSans-117"/>
      <use x="391.845703" xlink:href="#DejaVuSans-116"/>
      <use x="431.054688" xlink:href="#DejaVuSans-105"/>
      <use x="458.837891" xlink:href="#DejaVuSans-111"/>
      <use x="520.019531" xlink:href="#DejaVuSans-110"/>
      <use x="583.398438" xlink:href="#DejaVuSans-32"/>
      <use x="615.185547" xlink:href="#DejaVuSans-66"/>
      <use x="683.789062" xlink:href="#DejaVuSans-69"/>
     </g>
    </g>
    <g id="PathCollection_22">
     <g>
      <use style="fill:#87ceeb;stroke:#87ceeb;" x="401.71975" xlink:href="#mc43910a83b" y="412.669375"/>
     </g>
    </g>
    <g id="text_10">
     <!-- Geo BE -->
     <g style="fill:#ffffff;" transform="translate(426.91975 416.344375)scale(0.14 -0.14)">
      <use xlink:href="#DejaVuSans-71"/>
      <use x="77.490234" xlink:href="#DejaVuSans-101"/>
      <use x="139.013672" xlink:href="#DejaVuSans-111"/>
      <use x="200.195312" xlink:href="#DejaVuSans-32"/>
      <use x="231.982422" xlink:href="#DejaVuSans-66"/>
      <use x="300.585938" xlink:href="#DejaVuSans-69"/>
     </g>
    </g>
    <g id="PathCollection_23">
     <g>
      <use style="fill:#00ffff;stroke:#00ffff;" x="401.71975" xlink:href="#md249a09bb0" y="433.21875"/>
     </g>
    </g>
    <g id="text_11">
     <!-- Create BE -->
     <defs>
      <path d="M 64.40625 67.28125 
L 64.40625 56.890625 
Q 59.421875 61.53125 53.78125 63.8125 
Q 48.140625 66.109375 41.796875 66.109375 
Q 29.296875 66.109375 22.65625 58.46875 
Q 16.015625 50.828125 16.015625 36.375 
Q 16.015625 21.96875 22.65625 14.328125 
Q 29.296875 6.6875 41.796875 6.6875 
Q 48.140625 6.6875 53.78125 8.984375 
Q 59.421875 11.28125 64.40625 15.921875 
L 64.40625 5.609375 
Q 59.234375 2.09375 53.4375 0.328125 
Q 47.65625 -1.421875 41.21875 -1.421875 
Q 24.65625 -1.421875 15.125 8.703125 
Q 5.609375 18.84375 5.609375 36.375 
Q 5.609375 53.953125 15.125 64.078125 
Q 24.65625 74.21875 41.21875 74.21875 
Q 47.75 74.21875 53.53125 72.484375 
Q 59.328125 70.75 64.40625 67.28125 
z
" id="DejaVuSans-67"/>
     </defs>
     <g style="fill:#ffffff;" transform="translate(426.91975 436.89375)scale(0.14 -0.14)">
      <use xlink:href="#DejaVuSans-67"/>
      <use x="69.824219" xlink:href="#DejaVuSans-114"/>
      <use x="110.90625" xlink:href="#DejaVuSans-101"/>
      <use x="172.429688" xlink:href="#DejaVuSans-97"/>
      <use x="233.708984" xlink:href="#DejaVuSans-116"/>
      <use x="272.917969" xlink:href="#DejaVuSans-101"/>
      <use x="334.441406" xlink:href="#DejaVuSans-32"/>
      <use x="366.228516" xlink:href="#DejaVuSans-66"/>
      <use x="434.832031" xlink:href="#DejaVuSans-69"/>
     </g>
    </g>
    <g id="PathCollection_24">
     <g>
      <use style="fill:#ff0000;stroke:#ff0000;" x="401.71975" xlink:href="#md5164054c8" y="453.768125"/>
     </g>
    </g>
    <g id="text_12">
     <!-- Core Alumni -->
     <defs>
      <path d="M 34.1875 63.1875 
L 20.796875 26.90625 
L 47.609375 26.90625 
z
M 28.609375 72.90625 
L 39.796875 72.90625 
L 67.578125 0 
L 57.328125 0 
L 50.6875 18.703125 
L 17.828125 18.703125 
L 11.1875 0 
L 0.78125 0 
z
" id="DejaVuSans-65"/>
      <path d="M 52 44.1875 
Q 55.375 50.25 60.0625 53.125 
Q 64.75 56 71.09375 56 
Q 79.640625 56 84.28125 50.015625 
Q 88.921875 44.046875 88.921875 33.015625 
L 88.921875 0 
L 79.890625 0 
L 79.890625 32.71875 
Q 79.890625 40.578125 77.09375 44.375 
Q 74.3125 48.1875 68.609375 48.1875 
Q 61.625 48.1875 57.5625 43.546875 
Q 53.515625 38.921875 53.515625 30.90625 
L 53.515625 0 
L 44.484375 0 
L 44.484375 32.71875 
Q 44.484375 40.625 41.703125 44.40625 
Q 38.921875 48.1875 33.109375 48.1875 
Q 26.21875 48.1875 22.15625 43.53125 
Q 18.109375 38.875 18.109375 30.90625 
L 18.109375 0 
L 9.078125 0 
L 9.078125 54.6875 
L 18.109375 54.6875 
L 18.109375 46.1875 
Q 21.1875 51.21875 25.484375 53.609375 
Q 29.78125 56 35.6875 56 
Q 41.65625 56 45.828125 52.96875 
Q 50 49.953125 52 44.1875 
z
" id="DejaVuSans-109"/>
     </defs>
     <g style="fill:#ffffff;" transform="translate(426.91975 457.443125)scale(0.14 -0.14)">
      <use xlink:href="#DejaVuSans-67"/>
      <use x="69.824219" xlink:href="#DejaVuSans-111"/>
      <use x="131.005859" xlink:href="#DejaVuSans-114"/>
      <use x="172.087891" xlink:href="#DejaVuSans-101"/>
      <use x="233.611328" xlink:href="#DejaVuSans-32"/>
      <use x="265.398438" xlink:href="#DejaVuSans-65"/>
      <use x="333.806641" xlink:href="#DejaVuSans-108"/>
      <use x="361.589844" xlink:href="#DejaVuSans-117"/>
      <use x="424.96875" xlink:href="#DejaVuSans-109"/>
      <use x="522.380859" xlink:href="#DejaVuSans-110"/>
      <use x="585.759766" xlink:href="#DejaVuSans-105"/>
     </g>
    </g>
    <g id="PathCollection_25">
     <g>
      <use style="fill:#b22222;stroke:#b22222;" x="401.71975" xlink:href="#mc6616a9377" y="474.3175"/>
     </g>
    </g>
    <g id="text_13">
     <!-- Core -->
     <g style="fill:#ffffff;" transform="translate(426.91975 477.9925)scale(0.14 -0.14)">
      <use xlink:href="#DejaVuSans-67"/>
      <use x="69.824219" xlink:href="#DejaVuSans-111"/>
      <use x="131.005859" xlink:href="#DejaVuSans-114"/>
      <use x="172.087891" xlink:href="#DejaVuSans-101"/>
     </g>
    </g>
    <g id="PathCollection_26">
     <g>
      <use style="fill:#808080;fill-opacity:0.4;stroke:#808080;stroke-opacity:0.4;" x="401.71975" xlink:href="#mfc749ee001" y="494.866875"/>
     </g>
    </g>
    <g id="text_14">
     <!-- External -->
     <defs>
      <path d="M 54.890625 54.6875 
L 35.109375 28.078125 
L 55.90625 0 
L 45.3125 0 
L 29.390625 21.484375 
L 13.484375 0 
L 2.875 0 
L 24.125 28.609375 
L 4.6875 54.6875 
L 15.28125 54.6875 
L 29.78125 35.203125 
L 44.28125 54.6875 
z
" id="DejaVuSans-120"/>
     </defs>
     <g style="fill:#ffffff;" transform="translate(426.91975 498.541875)scale(0.14 -0.14)">
      <use xlink:href="#DejaVuSans-69"/>
      <use x="63.183594" xlink:href="#DejaVuSans-120"/>
      <use x="122.363281" xlink:href="#DejaVuSans-116"/>
      <use x="161.572266" xlink:href="#DejaVuSans-101"/>
      <use x="223.095703" xlink:href="#DejaVuSans-114"/>
      <use x="264.193359" xlink:href="#DejaVuSans-110"/>
      <use x="327.572266" xlink:href="#DejaVuSans-97"/>
      <use x="388.851562" xlink:href="#DejaVuSans-108"/>
     </g>
    </g>
   </g>
  </g>
 </g>
 <defs>
  <clipPath id="pd89785a3f0">
   <rect height="537.4" width="492.14" x="32.55" y="10.8"/>
  </clipPath>
 </defs>
</svg>
