<?xml version="1.0" encoding="utf-8" standalone="no"?>
<!DOCTYPE svg PUBLIC "-//W3C//DTD SVG 1.1//EN"
  "http://www.w3.org/Graphics/SVG/1.1/DTD/svg11.dtd">
<!-- Created with matplotlib (https://matplotlib.org/) -->
<svg height="656.20785pt" version="1.1" viewBox="0 0 998.380556 656.20785" width="998.380556pt" xmlns="http://www.w3.org/2000/svg" xmlns:xlink="http://www.w3.org/1999/xlink">
 <defs>
  <style type="text/css">
*{stroke-linecap:butt;stroke-linejoin:round;}
  </style>
 </defs>
 <g id="figure_1">
  <g id="patch_1">
   <path d="M 0 656.20785 
L 998.380556 656.20785 
L 998.380556 0 
L 0 0 
z
" style="fill:none;"/>
  </g>
  <g id="axes_1">
   <g id="patch_2">
    <path d="M 674.680164 328.103925 
C 674.680164 270.68346 655.415579 214.890344 619.986545 169.703031 
C 584.55751 124.515717 534.972209 92.495506 479.210108 78.79522 
C 423.448006 65.094934 364.669804 70.491129 312.334326 94.115429 
C 259.998848 117.739729 217.072566 158.253064 190.463351 209.135865 
L 235.962086 232.929477 
C 257.249458 192.223236 291.590483 159.812568 333.458866 140.913128 
C 375.327248 122.013688 422.34981 117.696732 466.959491 128.656961 
C 511.569172 139.61719 551.237413 165.233359 579.580641 201.38321 
C 607.923868 237.53306 623.335536 282.167553 623.335536 328.103925 
L 674.680164 328.103925 
z
" style="fill:#2e7ebc;stroke:#ffffff;stroke-linejoin:miter;"/>
   </g>
   <g id="patch_3">
    <path d="M 190.463351 209.135865 
C 185.876194 217.90754 181.8002 226.937185 178.255791 236.179558 
C 174.711381 245.421931 171.704486 254.86157 169.250171 264.451181 
L 218.991542 277.18173 
C 220.954994 269.510041 223.36051 261.95833 226.196037 254.564431 
C 229.031565 247.170533 232.29236 239.946817 235.962086 232.929477 
L 190.463351 209.135865 
z
" style="fill:#3ba358;stroke:#ffffff;stroke-linejoin:miter;"/>
   </g>
   <g id="patch_4">
    <path d="M 169.250171 264.451181 
C 160.426658 298.926806 158.867266 334.86345 164.671249 369.973803 
C 170.475231 405.084156 183.51678 438.607164 202.965822 468.409142 
C 222.414864 498.211119 247.849821 523.646077 277.651797 543.09512 
C 307.453774 562.544163 340.976782 575.585714 376.087134 581.389698 
L 384.461112 530.732544 
C 356.37283 526.089356 329.554424 515.656116 305.712843 500.096881 
C 281.871262 484.537646 261.523296 464.18968 245.964063 440.348098 
C 230.404829 416.506516 219.97159 389.68811 215.328404 361.599827 
C 210.685218 333.511545 211.932731 304.76223 218.991542 277.18173 
L 169.250171 264.451181 
z
" style="fill:#fe9829;stroke:#ffffff;stroke-linejoin:miter;"/>
   </g>
   <g id="patch_5">
    <path d="M 376.087134 581.389698 
C 405.450716 586.243701 435.43598 585.954731 464.700559 580.535723 
C 493.965139 575.116715 522.065716 564.64976 547.744296 549.603439 
L 521.786841 505.303536 
C 501.243978 517.340593 478.763516 525.714157 455.351852 530.049363 
C 431.940189 534.384569 407.951977 534.615746 384.461112 530.732544 
L 376.087134 581.389698 
z
" style="fill:#d92523;stroke:#ffffff;stroke-linejoin:miter;"/>
   </g>
   <g id="patch_6">
    <path d="M 547.744296 549.603439 
C 559.134164 542.929564 569.992313 535.387092 580.222095 527.043155 
C 590.451876 518.699219 600.022849 509.57865 608.849821 499.762629 
L 570.671262 465.430888 
C 563.609684 473.283705 555.952906 480.58016 547.769081 487.255309 
C 539.585255 493.930458 530.898736 499.964437 521.786841 505.303536 
L 547.744296 549.603439 
z
" style="fill:#404040;stroke:#ffffff;stroke-linejoin:miter;"/>
   </g>
   <g id="patch_7">
    <path d="M 608.849821 499.762629 
C 629.861872 476.39621 646.406174 449.36914 657.658264 420.028275 
C 668.910354 390.687411 674.680164 359.528372 674.680164 328.103925 
L 623.335536 328.103925 
C 623.335536 353.243482 618.719688 378.170714 609.718016 401.643405 
C 600.716344 425.116097 587.480903 446.737753 570.671262 465.430888 
L 608.849821 499.762629 
z
" style="fill:#c01588;stroke:#ffffff;stroke-linejoin:miter;"/>
   </g>
   <g id="patch_8">
    <path d="M 623.335536 328.103925 
C 623.335536 318.864208 622.712011 309.635014 621.469213 300.479261 
C 620.226415 291.323508 618.367173 282.26205 615.904164 273.356661 
L 541.673987 293.886885 
C 543.213367 299.452753 544.375393 305.116164 545.152142 310.83851 
C 545.928891 316.560856 546.318594 322.329102 546.318594 328.103925 
L 623.335536 328.103925 
z
" style="fill:#e3eef9;stroke:#ffffff;stroke-linejoin:miter;"/>
   </g>
   <g id="patch_9">
    <path d="M 615.904164 273.356661 
C 612.031568 259.354695 606.684217 245.803063 599.951969 232.92949 
C 593.219721 220.055916 585.1405 207.932919 575.850069 196.764215 
L 516.640177 246.016606 
C 522.446696 252.997046 527.49621 260.57392 531.703865 268.619903 
C 535.91152 276.665886 539.253614 285.135656 541.673987 293.886885 
L 615.904164 273.356661 
z
" style="fill:#dbe9f6;stroke:#ffffff;stroke-linejoin:miter;"/>
   </g>
   <g id="patch_10">
    <path d="M 575.850069 196.764215 
C 575.006267 195.749819 574.15271 194.743579 573.289515 193.745633 
C 572.42632 192.747688 571.553528 191.758085 570.671261 190.776961 
L 513.403422 242.274572 
C 513.954839 242.887775 514.500334 243.506277 515.039831 244.129993 
C 515.579328 244.753709 516.112801 245.382609 516.640177 246.016606 
L 575.850069 196.764215 
z
" style="fill:#d3e4f3;stroke:#ffffff;stroke-linejoin:miter;"/>
   </g>
   <g id="patch_11">
    <path d="M 570.671261 190.776961 
C 568.906685 188.814667 567.104452 186.886567 565.265565 184.993733 
C 563.426678 183.1009 561.551479 181.243686 559.641013 179.423125 
L 506.509517 235.178425 
C 507.703559 236.316275 508.875558 237.477034 510.024862 238.660055 
C 511.174166 239.843076 512.300562 241.048139 513.403422 242.274572 
L 570.671261 190.776961 
z
" style="fill:#cbdef1;stroke:#ffffff;stroke-linejoin:miter;"/>
   </g>
   <g id="patch_12">
    <path d="M 559.641013 179.423125 
C 558.685802 178.512865 557.721842 177.611832 556.749265 176.720151 
C 555.776689 175.82847 554.795542 174.946182 553.805962 174.073411 
L 502.86261 231.834854 
C 503.481098 232.380336 504.094315 232.931766 504.702175 233.489066 
C 505.310035 234.046367 505.912511 234.609513 506.509517 235.178425 
L 559.641013 179.423125 
z
" style="fill:#c2d9ee;stroke:#ffffff;stroke-linejoin:miter;"/>
   </g>
   <g id="patch_13">
    <path d="M 553.805962 174.073411 
C 543.902581 165.339013 533.179876 157.580043 521.786839 150.904313 
C 510.393803 144.228582 498.383451 138.667155 485.922669 134.297309 
L 460.435552 206.97479 
C 468.223541 209.705944 475.730011 213.181836 482.850659 217.354167 
C 489.971306 221.526499 496.672997 226.375855 502.86261 231.834854 
L 553.805962 174.073411 
z
" style="fill:#b5d4e9;stroke:#ffffff;stroke-linejoin:miter;"/>
   </g>
   <g id="patch_14">
    <path d="M 485.922669 134.297309 
C 478.449895 131.676698 470.831804 129.490479 463.106565 127.749609 
C 455.381326 126.008738 447.561863 124.716126 439.687352 123.878251 
L 431.538479 200.462879 
C 436.460048 200.986551 441.347213 201.794433 446.175487 202.882477 
C 451.003762 203.970522 455.765068 205.336908 460.435552 206.97479 
L 485.922669 134.297309 
z
" style="fill:#a8cee4;stroke:#ffffff;stroke-linejoin:miter;"/>
   </g>
   <g id="patch_15">
    <path d="M 439.687352 123.878251 
C 433.125819 123.180081 426.534449 122.798537 419.936182 122.734949 
C 413.337915 122.671361 406.740416 122.925802 400.166646 123.497386 
L 406.838038 200.224838 
C 410.946644 199.867598 415.070081 199.708573 419.193998 199.748315 
C 423.317914 199.788058 427.437521 200.026522 431.538479 200.462879 
L 439.687352 123.878251 
z
" style="fill:#9ac8e0;stroke:#ffffff;stroke-linejoin:miter;"/>
   </g>
   <g id="patch_16">
    <path d="M 400.166646 123.497386 
C 390.961659 124.297753 381.821167 125.718388 372.807483 127.749609 
C 363.793798 129.780829 354.927452 132.418007 346.268888 135.643164 
L 373.151939 207.81595 
C 378.563541 205.800226 384.105008 204.15199 389.738561 202.882477 
C 395.372113 201.612965 401.084921 200.725067 406.838038 200.224838 
L 400.166646 123.497386 
z
" style="fill:#89bedc;stroke:#ffffff;stroke-linejoin:miter;"/>
   </g>
   <g id="patch_17">
    <path d="M 346.268888 135.643164 
C 340.085348 137.946421 334.016399 140.546345 328.083166 143.433887 
C 322.149932 146.32143 316.359304 149.493238 310.731435 152.938271 
L 350.941031 218.625391 
C 354.458449 216.472245 358.077591 214.489866 361.785863 212.685152 
C 365.494134 210.880437 369.287226 209.255485 373.151939 207.81595 
L 346.268888 135.643164 
z
" style="fill:#79b5d9;stroke:#ffffff;stroke-linejoin:miter;"/>
   </g>
   <g id="patch_18">
    <path d="M 310.731435 152.938271 
C 300.596885 159.142016 291.019821 166.213606 282.108086 174.073411 
C 273.196351 181.933216 264.98352 190.551623 257.562074 199.831585 
L 317.71018 247.933712 
C 322.348584 242.133736 327.481603 236.747232 333.051438 231.834854 
C 338.621272 226.922476 344.606937 222.502732 350.941031 218.625391 
L 310.731435 152.938271 
z
" style="fill:#68acd5;stroke:#ffffff;stroke-linejoin:miter;"/>
   </g>
   <g id="patch_19">
    <path d="M 257.562074 199.831585 
C 253.440833 204.984888 249.57034 210.333815 245.964065 215.859749 
C 242.35779 221.385683 239.019922 227.082206 235.962078 232.929492 
L 304.210183 268.619904 
C 306.121335 264.96535 308.207503 261.405024 310.461424 257.951315 
C 312.715346 254.497606 315.134405 251.154527 317.71018 247.933712 
L 257.562074 199.831585 
z
" style="fill:#5ba3d0;stroke:#ffffff;stroke-linejoin:miter;"/>
   </g>
   <g id="patch_20">
    <path d="M 235.962078 232.929492 
C 235.350623 234.098732 234.750449 235.273837 234.161642 236.454644 
C 233.572834 237.635452 232.995419 238.821906 232.429478 240.013841 
L 302.002308 273.047623 
C 302.356021 272.302663 302.716905 271.561129 303.08491 270.823125 
C 303.452915 270.08512 303.828023 269.350679 304.210183 268.619904 
L 235.962078 232.929492 
z
" style="fill:#c8e99b;stroke:#ffffff;stroke-linejoin:miter;"/>
   </g>
   <g id="patch_21">
    <path d="M 232.429478 240.013841 
C 229.599246 245.974626 227.057927 252.068347 224.814366 258.273796 
C 222.570805 264.479245 220.627608 270.789215 218.991538 277.181745 
L 293.603595 296.277562 
C 294.626139 292.282231 295.840637 288.3385 297.242863 284.460094 
C 298.645088 280.581688 300.233413 276.773113 302.002308 273.047623 
L 232.429478 240.013841 
z
" style="fill:#a2d88a;stroke:#ffffff;stroke-linejoin:miter;"/>
   </g>
   <g id="patch_22">
    <path d="M 218.991538 277.181745 
C 217.355467 283.574275 216.028424 290.04194 215.015026 296.56223 
C 214.001628 303.082521 213.303052 309.647864 212.921731 316.23541 
L 289.809966 320.686103 
C 290.048292 316.568887 290.484901 312.465548 291.118275 308.390366 
C 291.751649 304.315184 292.581051 300.272894 293.603595 296.277562 
L 218.991538 277.181745 
z
" style="fill:#fff9c5;stroke:#ffffff;stroke-linejoin:miter;"/>
   </g>
   <g id="patch_23">
    <path d="M 212.921731 316.23541 
C 212.464106 324.141137 212.464106 332.06672 212.921731 339.972447 
C 213.379356 347.878175 214.293841 355.750822 215.660603 363.550944 
L 291.521761 350.258312 
C 290.667534 345.383236 290.095982 340.462831 289.809966 335.521751 
C 289.52395 330.580672 289.52395 325.627183 289.809966 320.686103 
L 212.921731 316.23541 
z
" style="fill:#fff5b8;stroke:#ffffff;stroke-linejoin:miter;"/>
   </g>
   <g id="patch_24">
    <path d="M 215.660603 363.550944 
C 217.027365 371.351067 218.844118 379.065616 221.10176 386.655939 
C 223.359402 394.246262 226.054156 401.699661 229.17252 408.978792 
L 299.966709 378.650717 
C 298.017731 374.10126 296.33351 369.442885 294.922484 364.698934 
C 293.511458 359.954982 292.375987 355.133389 291.521761 350.258312 
L 215.660603 363.550944 
z
" style="fill:#ffefaa;stroke:#ffffff;stroke-linejoin:miter;"/>
   </g>
   <g id="patch_25">
    <path d="M 229.17252 408.978792 
C 231.251107 413.830796 233.515977 418.600863 235.962082 423.278366 
C 238.408187 427.955869 241.033709 432.537332 243.8328 437.012547 
L 309.129384 396.171814 
C 307.379952 393.374804 305.739001 390.51139 304.210185 387.58795 
C 302.681369 384.664511 301.265826 381.683219 299.966709 378.650717 
L 229.17252 408.978792 
z
" style="fill:#fee89d;stroke:#ffffff;stroke-linejoin:miter;"/>
   </g>
   <g id="patch_26">
    <path d="M 243.8328 437.012547 
C 247.331908 442.606956 251.098596 448.029483 255.119756 453.261255 
C 259.140915 458.493027 263.411876 463.527968 267.917773 468.348555 
L 324.182492 415.756819 
C 321.366306 412.743952 318.696956 409.597114 316.183731 406.327256 
C 313.670507 403.057399 311.316326 399.668319 309.129384 396.171814 
L 243.8328 437.012547 
z
" style="fill:#fee28e;stroke:#ffffff;stroke-linejoin:miter;"/>
   </g>
   <g id="patch_27">
    <path d="M 267.917773 468.348555 
C 268.818785 469.312494 269.729065 470.267727 270.648488 471.214121 
C 271.56791 472.160516 272.496431 473.098028 273.433921 474.026528 
L 327.630085 419.305552 
C 327.044153 418.72524 326.463828 418.139294 325.889189 417.547798 
C 325.31455 416.956301 324.745625 416.35928 324.182492 415.756819 
L 267.917773 468.348555 
z
" style="fill:#fed87a;stroke:#ffffff;stroke-linejoin:miter;"/>
   </g>
   <g id="patch_28">
    <path d="M 273.433921 474.026528 
C 279.060388 479.599033 285.004445 484.84146 291.23631 489.727543 
C 297.468176 494.613626 303.977424 499.135191 310.731441 503.269582 
L 350.941035 437.582461 
C 346.719774 434.998466 342.651494 432.172488 338.756578 429.118686 
C 334.861662 426.064885 331.146627 422.788368 327.630085 419.305552 
L 273.433921 474.026528 
z
" style="fill:#fece65;stroke:#ffffff;stroke-linejoin:miter;"/>
   </g>
   <g id="patch_29">
    <path d="M 310.731441 503.269582 
C 312.982223 504.647372 315.259352 505.981651 317.561558 507.271678 
C 319.863765 508.561704 322.190622 509.807237 324.540832 511.007584 
L 359.571904 442.418712 
C 358.103022 441.668495 356.648737 440.890037 355.209858 440.08377 
C 353.770979 439.277504 352.347773 438.443579 350.941035 437.582461 
L 310.731441 503.269582 
z
" style="fill:#fec550;stroke:#ffffff;stroke-linejoin:miter;"/>
   </g>
   <g id="patch_30">
    <path d="M 324.540832 511.007584 
C 328.066285 512.808173 331.643061 514.506457 335.266676 516.100307 
C 338.89029 517.694156 342.55923 519.182905 346.268895 520.564688 
L 373.151943 448.391902 
C 370.833403 447.528288 368.540315 446.597819 366.275556 445.601663 
C 364.010797 444.605507 361.775312 443.54408 359.571904 442.418712 
L 324.540832 511.007584 
z
" style="fill:#feb744;stroke:#ffffff;stroke-linejoin:miter;"/>
   </g>
   <g id="patch_31">
    <path d="M 346.268895 520.564688 
C 352.452436 522.867944 358.743387 524.871858 365.119854 526.569455 
C 371.496321 528.267052 377.950897 529.65636 384.461119 530.732545 
L 397.022084 454.746812 
C 392.953195 454.074197 388.919084 453.205879 384.933793 452.144881 
C 380.948501 451.083883 377.016656 449.831437 373.151943 448.391902 
L 346.268895 520.564688 
z
" style="fill:#feaa38;stroke:#ffffff;stroke-linejoin:miter;"/>
   </g>
   <g id="patch_32">
    <path d="M 384.461119 530.732545 
C 396.184593 532.670516 408.054169 533.587409 419.93619 533.4729 
C 431.818212 533.358392 443.667913 532.212913 455.351859 530.049362 
L 441.328796 454.319823 
C 434.02633 455.672042 426.620267 456.387967 419.194003 456.459535 
C 411.767739 456.531103 404.349254 455.958044 397.022084 454.746812 
L 384.461119 530.732545 
z
" style="fill:#fdcab5;stroke:#ffffff;stroke-linejoin:miter;"/>
   </g>
   <g id="patch_33">
    <path d="M 455.351859 530.049362 
C 467.035806 527.885811 478.509977 524.712339 489.645169 520.564682 
C 500.780361 516.417025 511.534619 511.310809 521.786848 505.303532 
L 482.850664 438.85368 
C 476.443021 442.608228 469.721609 445.799613 462.762114 448.391898 
C 455.80262 450.984184 448.631263 452.967604 441.328796 454.319823 
L 455.351859 530.049362 
z
" style="fill:#fcab8f;stroke:#ffffff;stroke-linejoin:miter;"/>
   </g>
   <g id="patch_34">
    <path d="M 521.786848 505.303532 
C 527.480065 501.967601 533.009207 498.359232 538.35503 494.490984 
C 543.700853 490.622736 548.857148 486.499102 553.805969 482.134433 
L 502.862615 424.372992 
C 499.769601 427.10091 496.546917 429.678182 493.205778 432.095837 
C 489.864638 434.513492 486.408925 436.768722 482.850664 438.85368 
L 521.786848 505.303532 
z
" style="fill:#cecece;stroke:#ffffff;stroke-linejoin:miter;"/>
   </g>
   <g id="patch_35">
    <path d="M 553.805969 482.134433 
C 554.795549 481.261661 555.776696 480.379373 556.749272 479.487692 
C 557.721849 478.596011 558.685809 477.694978 559.64102 476.784719 
L 506.509522 421.029421 
C 505.912515 421.598333 505.310039 422.161479 504.702179 422.718779 
C 504.094319 423.27608 503.481102 423.82751 502.862615 424.372992 
L 553.805969 482.134433 
z
" style="fill:#b5b5b5;stroke:#ffffff;stroke-linejoin:miter;"/>
   </g>
   <g id="patch_36">
    <path d="M 559.64102 476.784719 
C 561.551486 474.964158 563.426685 473.106943 565.265572 471.21411 
C 567.104459 469.321276 568.906692 467.393176 570.671267 465.430882 
L 513.403426 413.933273 
C 512.300566 415.159707 511.174171 416.36477 510.024866 417.54779 
C 508.875562 418.730811 507.703563 419.89157 506.509522 421.029421 
L 559.64102 476.784719 
z
" style="fill:#959595;stroke:#ffffff;stroke-linejoin:miter;"/>
   </g>
   <g id="patch_37">
    <path d="M 570.671267 465.430882 
C 576.849431 458.560464 582.556923 451.280948 587.754831 443.641962 
C 592.95274 436.002975 597.629226 428.021918 601.75241 419.753199 
L 532.82914 385.384721 
C 530.25215 390.552671 527.329346 395.540832 524.080653 400.315198 
C 520.831961 405.089564 517.264779 409.639262 513.403426 413.933273 
L 570.671267 465.430882 
z
" style="fill:#fcd0cc;stroke:#ffffff;stroke-linejoin:miter;"/>
   </g>
   <g id="patch_38">
    <path d="M 601.75241 419.753199 
C 604.107914 415.029422 606.280431 410.216591 608.265123 405.325429 
C 610.249814 400.434268 612.045205 395.46841 613.647294 390.438919 
L 540.263443 367.063296 
C 539.262137 370.206728 538.140018 373.310389 536.899586 376.367365 
C 535.659154 379.424341 534.30133 382.43236 532.82914 385.384721 
L 601.75241 419.753199 
z
" style="fill:#fbb6bc;stroke:#ffffff;stroke-linejoin:miter;"/>
   </g>
   <g id="patch_39">
    <path d="M 613.647294 390.438919 
C 614.848796 386.667005 615.940991 382.861142 616.922512 379.026098 
C 617.904033 375.191055 618.774468 371.328435 619.532727 367.44308 
L 543.941838 352.690897 
C 543.467927 355.119244 542.923905 357.533381 542.310454 359.930283 
C 541.697004 362.327185 541.014381 364.70585 540.263443 367.063296 
L 613.647294 390.438919 
z
" style="fill:#f994b1;stroke:#ffffff;stroke-linejoin:miter;"/>
   </g>
   <g id="patch_40">
    <path d="M 619.532727 367.44308 
C 620.038214 364.852944 620.49373 362.253305 620.899023 359.645612 
C 621.304317 357.03792 621.659311 354.422658 621.963809 351.801284 
L 545.461265 342.914774 
C 545.270954 344.553133 545.049082 346.187672 544.795774 347.81748 
C 544.542465 349.447287 544.257767 351.072062 543.941838 352.690897 
L 619.532727 367.44308 
z
" style="fill:#f767a1;stroke:#ffffff;stroke-linejoin:miter;"/>
   </g>
   <g id="patch_41">
    <path d="M 621.963809 351.801284 
C 622.420574 347.86907 622.763553 343.924471 622.992318 339.972433 
C 623.221082 336.020395 623.335536 332.062568 623.335536 328.103914 
L 546.318594 328.103918 
C 546.318594 330.578077 546.24706 333.051718 546.104083 335.521742 
C 545.961105 337.991766 545.746743 340.45714 545.461265 342.914774 
L 621.963809 351.801284 
z
" style="fill:#e23e99;stroke:#ffffff;stroke-linejoin:miter;"/>
   </g>
   <g id="matplotlib.axis_1"/>
   <g id="matplotlib.axis_2"/>
   <g id="patch_42">
    <path d="M 517.818276 397.637179 
Q 422.448093 318.71134 305.891478 360.23802 
" style="fill:none;stroke:#ffffff;stroke-linecap:round;stroke-width:1.5;"/>
    <path d="M 513.076285 386.898183 
L 517.818276 397.637179 
L 506.381885 394.987374 
" style="fill:none;stroke:#ffffff;stroke-linecap:round;stroke-width:1.5;"/>
    <path d="M 317.544448 361.659563 
L 305.891478 360.23802 
L 314.020495 351.768569 
" style="fill:none;stroke:#ffffff;stroke-linecap:round;stroke-width:1.5;"/>
   </g>
   <g id="patch_43">
    <path d="M 522.587546 270.881083 
Q 420.202044 329.108018 305.89065 288.270283 
" style="fill:none;stroke:#ffffff;stroke-linecap:round;stroke-width:1.5;"/>
    <path d="M 510.864949 271.508152 
L 522.587546 270.881083 
L 516.055643 280.635402 
" style="fill:none;stroke:#ffffff;stroke-linecap:round;stroke-width:1.5;"/>
    <path d="M 314.01237 296.746731 
L 305.89065 288.270283 
L 317.544841 286.858777 
" style="fill:none;stroke:#ffffff;stroke-linecap:round;stroke-width:1.5;"/>
   </g>
   <g id="patch_44">
    <path d="M 477.532587 225.905153 
Q 413.459922 322.468529 460.237879 440.216529 
" style="fill:none;stroke:#ffffff;stroke-linecap:round;stroke-width:1.5;"/>
    <path d="M 467.352663 231.751659 
L 477.532587 225.905153 
L 476.101838 237.556996 
" style="fill:none;stroke:#ffffff;stroke-linecap:round;stroke-width:1.5;"/>
    <path d="M 461.240317 428.52005 
L 460.237879 440.216529 
L 451.482159 432.396691 
" style="fill:none;stroke:#ffffff;stroke-linecap:round;stroke-width:1.5;"/>
   </g>
   <g id="patch_45">
    <path d="M 534.952283 310.475542 
Q 412.16936 322.214737 417.784964 447.658544 
" style="fill:none;stroke:#ffffff;stroke-dasharray:1.5,2.475;stroke-dashoffset:0;stroke-linecap:round;stroke-width:1.5;"/>
    <path d="M 524.000277 306.248715 
L 534.952283 310.475542 
L 524.999618 316.701051 
" style="fill:none;stroke:#ffffff;stroke-dasharray:1.5,2.475;stroke-dashoffset:0;stroke-linecap:round;stroke-width:1.5;"/>
    <path d="M 422.56014 436.934264 
L 417.784964 447.658544 
L 412.070645 437.403835 
" style="fill:none;stroke:#ffffff;stroke-dasharray:1.5,2.475;stroke-dashoffset:0;stroke-linecap:round;stroke-width:1.5;"/>
   </g>
   <g id="patch_46">
    <path d="M 343.31624 420.286498 
Q 411.462634 340.129611 417.748537 447.660414 
" style="fill:none;stroke:#d3d3d3;stroke-dasharray:5.55,2.4;stroke-dashoffset:0;stroke-linecap:round;stroke-width:1.5;"/>
    <path d="M 354.117164 415.687309 
L 343.31624 420.286498 
L 346.117444 408.886245 
" style="fill:none;stroke:#d3d3d3;stroke-dasharray:5.55,2.4;stroke-dashoffset:0;stroke-linecap:round;stroke-width:1.5;"/>
    <path d="M 422.37684 436.871934 
L 417.748537 447.660414 
L 411.894734 437.484684 
" style="fill:none;stroke:#d3d3d3;stroke-dasharray:5.55,2.4;stroke-dashoffset:0;stroke-linecap:round;stroke-width:1.5;"/>
   </g>
   <g id="text_1">
    <!-- Gitaly Team -->
    <defs>
     <path d="M 59.515625 10.40625 
L 59.515625 29.984375 
L 43.40625 29.984375 
L 43.40625 38.09375 
L 69.28125 38.09375 
L 69.28125 6.78125 
Q 63.578125 2.734375 56.6875 0.65625 
Q 49.8125 -1.421875 42 -1.421875 
Q 24.90625 -1.421875 15.25 8.5625 
Q 5.609375 18.5625 5.609375 36.375 
Q 5.609375 54.25 15.25 64.234375 
Q 24.90625 74.21875 42 74.21875 
Q 49.125 74.21875 55.546875 72.453125 
Q 61.96875 70.703125 67.390625 67.28125 
L 67.390625 56.78125 
Q 61.921875 61.421875 55.765625 63.765625 
Q 49.609375 66.109375 42.828125 66.109375 
Q 29.4375 66.109375 22.71875 58.640625 
Q 16.015625 51.171875 16.015625 36.375 
Q 16.015625 21.625 22.71875 14.15625 
Q 29.4375 6.6875 42.828125 6.6875 
Q 48.046875 6.6875 52.140625 7.59375 
Q 56.25 8.5 59.515625 10.40625 
z
" id="DejaVuSans-71"/>
     <path d="M 9.421875 54.6875 
L 18.40625 54.6875 
L 18.40625 0 
L 9.421875 0 
z
M 9.421875 75.984375 
L 18.40625 75.984375 
L 18.40625 64.59375 
L 9.421875 64.59375 
z
" id="DejaVuSans-105"/>
     <path d="M 18.3125 70.21875 
L 18.3125 54.6875 
L 36.8125 54.6875 
L 36.8125 47.703125 
L 18.3125 47.703125 
L 18.3125 18.015625 
Q 18.3125 11.328125 20.140625 9.421875 
Q 21.96875 7.515625 27.59375 7.515625 
L 36.8125 7.515625 
L 36.8125 0 
L 27.59375 0 
Q 17.1875 0 13.234375 3.875 
Q 9.28125 7.765625 9.28125 18.015625 
L 9.28125 47.703125 
L 2.6875 47.703125 
L 2.6875 54.6875 
L 9.28125 54.6875 
L 9.28125 70.21875 
z
" id="DejaVuSans-116"/>
     <path d="M 34.28125 27.484375 
Q 23.390625 27.484375 19.1875 25 
Q 14.984375 22.515625 14.984375 16.5 
Q 14.984375 11.71875 18.140625 8.90625 
Q 21.296875 6.109375 26.703125 6.109375 
Q 34.1875 6.109375 38.703125 11.40625 
Q 43.21875 16.703125 43.21875 25.484375 
L 43.21875 27.484375 
z
M 52.203125 31.203125 
L 52.203125 0 
L 43.21875 0 
L 43.21875 8.296875 
Q 40.140625 3.328125 35.546875 0.953125 
Q 30.953125 -1.421875 24.3125 -1.421875 
Q 15.921875 -1.421875 10.953125 3.296875 
Q 6 8.015625 6 15.921875 
Q 6 25.140625 12.171875 29.828125 
Q 18.359375 34.515625 30.609375 34.515625 
L 43.21875 34.515625 
L 43.21875 35.40625 
Q 43.21875 41.609375 39.140625 45 
Q 35.0625 48.390625 27.6875 48.390625 
Q 23 48.390625 18.546875 47.265625 
Q 14.109375 46.140625 10.015625 43.890625 
L 10.015625 52.203125 
Q 14.9375 54.109375 19.578125 55.046875 
Q 24.21875 56 28.609375 56 
Q 40.484375 56 46.34375 49.84375 
Q 52.203125 43.703125 52.203125 31.203125 
z
" id="DejaVuSans-97"/>
     <path d="M 9.421875 75.984375 
L 18.40625 75.984375 
L 18.40625 0 
L 9.421875 0 
z
" id="DejaVuSans-108"/>
     <path d="M 32.171875 -5.078125 
Q 28.375 -14.84375 24.75 -17.8125 
Q 21.140625 -20.796875 15.09375 -20.796875 
L 7.90625 -20.796875 
L 7.90625 -13.28125 
L 13.1875 -13.28125 
Q 16.890625 -13.28125 18.9375 -11.515625 
Q 21 -9.765625 23.484375 -3.21875 
L 25.09375 0.875 
L 2.984375 54.6875 
L 12.5 54.6875 
L 29.59375 11.921875 
L 46.6875 54.6875 
L 56.203125 54.6875 
z
" id="DejaVuSans-121"/>
     <path id="DejaVuSans-32"/>
     <path d="M -0.296875 72.90625 
L 61.375 72.90625 
L 61.375 64.59375 
L 35.5 64.59375 
L 35.5 0 
L 25.59375 0 
L 25.59375 64.59375 
L -0.296875 64.59375 
z
" id="DejaVuSans-84"/>
     <path d="M 56.203125 29.59375 
L 56.203125 25.203125 
L 14.890625 25.203125 
Q 15.484375 15.921875 20.484375 11.0625 
Q 25.484375 6.203125 34.421875 6.203125 
Q 39.59375 6.203125 44.453125 7.46875 
Q 49.3125 8.734375 54.109375 11.28125 
L 54.109375 2.78125 
Q 49.265625 0.734375 44.1875 -0.34375 
Q 39.109375 -1.421875 33.890625 -1.421875 
Q 20.796875 -1.421875 13.15625 6.1875 
Q 5.515625 13.8125 5.515625 26.8125 
Q 5.515625 40.234375 12.765625 48.109375 
Q 20.015625 56 32.328125 56 
Q 43.359375 56 49.78125 48.890625 
Q 56.203125 41.796875 56.203125 29.59375 
z
M 47.21875 32.234375 
Q 47.125 39.59375 43.09375 43.984375 
Q 39.0625 48.390625 32.421875 48.390625 
Q 24.90625 48.390625 20.390625 44.140625 
Q 15.875 39.890625 15.1875 32.171875 
z
" id="DejaVuSans-101"/>
     <path d="M 52 44.1875 
Q 55.375 50.25 60.0625 53.125 
Q 64.75 56 71.09375 56 
Q 79.640625 56 84.28125 50.015625 
Q 88.921875 44.046875 88.921875 33.015625 
L 88.921875 0 
L 79.890625 0 
L 79.890625 32.71875 
Q 79.890625 40.578125 77.09375 44.375 
Q 74.3125 48.1875 68.609375 48.1875 
Q 61.625 48.1875 57.5625 43.546875 
Q 53.515625 38.921875 53.515625 30.90625 
L 53.515625 0 
L 44.484375 0 
L 44.484375 32.71875 
Q 44.484375 40.625 41.703125 44.40625 
Q 38.921875 48.1875 33.109375 48.1875 
Q 26.21875 48.1875 22.15625 43.53125 
Q 18.109375 38.875 18.109375 30.90625 
L 18.109375 0 
L 9.078125 0 
L 9.078125 54.6875 
L 18.109375 54.6875 
L 18.109375 46.1875 
Q 21.1875 51.21875 25.484375 53.609375 
Q 29.78125 56 35.6875 56 
Q 41.65625 56 45.828125 52.96875 
Q 50 49.953125 52 44.1875 
z
" id="DejaVuSans-109"/>
    </defs>
    <g style="fill:#ffffff;" transform="translate(7.2 409.259929)scale(0.15 -0.15)">
     <use xlink:href="#DejaVuSans-71"/>
     <use x="77.490234" xlink:href="#DejaVuSans-105"/>
     <use x="105.273438" xlink:href="#DejaVuSans-116"/>
     <use x="144.482422" xlink:href="#DejaVuSans-97"/>
     <use x="205.761719" xlink:href="#DejaVuSans-108"/>
     <use x="233.544922" xlink:href="#DejaVuSans-121"/>
     <use x="292.724609" xlink:href="#DejaVuSans-32"/>
     <use x="324.511719" xlink:href="#DejaVuSans-84"/>
     <use x="385.330078" xlink:href="#DejaVuSans-101"/>
     <use x="446.853516" xlink:href="#DejaVuSans-97"/>
     <use x="508.132812" xlink:href="#DejaVuSans-109"/>
    </g>
   </g>
   <g id="patch_47">
    <path d="M 111.330621 403.731916 
Q 180.489079 337.088311 249.647537 270.444705 
" style="fill:none;stroke:#ffffff;stroke-linecap:round;"/>
   </g>
   <g id="text_2">
    <!-- Plan FE Team -->
    <defs>
     <path d="M 19.671875 64.796875 
L 19.671875 37.40625 
L 32.078125 37.40625 
Q 38.96875 37.40625 42.71875 40.96875 
Q 46.484375 44.53125 46.484375 51.125 
Q 46.484375 57.671875 42.71875 61.234375 
Q 38.96875 64.796875 32.078125 64.796875 
z
M 9.8125 72.90625 
L 32.078125 72.90625 
Q 44.34375 72.90625 50.609375 67.359375 
Q 56.890625 61.8125 56.890625 51.125 
Q 56.890625 40.328125 50.609375 34.8125 
Q 44.34375 29.296875 32.078125 29.296875 
L 19.671875 29.296875 
L 19.671875 0 
L 9.8125 0 
z
" id="DejaVuSans-80"/>
     <path d="M 54.890625 33.015625 
L 54.890625 0 
L 45.90625 0 
L 45.90625 32.71875 
Q 45.90625 40.484375 42.875 44.328125 
Q 39.84375 48.1875 33.796875 48.1875 
Q 26.515625 48.1875 22.3125 43.546875 
Q 18.109375 38.921875 18.109375 30.90625 
L 18.109375 0 
L 9.078125 0 
L 9.078125 54.6875 
L 18.109375 54.6875 
L 18.109375 46.1875 
Q 21.34375 51.125 25.703125 53.5625 
Q 30.078125 56 35.796875 56 
Q 45.21875 56 50.046875 50.171875 
Q 54.890625 44.34375 54.890625 33.015625 
z
" id="DejaVuSans-110"/>
     <path d="M 9.8125 72.90625 
L 51.703125 72.90625 
L 51.703125 64.59375 
L 19.671875 64.59375 
L 19.671875 43.109375 
L 48.578125 43.109375 
L 48.578125 34.8125 
L 19.671875 34.8125 
L 19.671875 0 
L 9.8125 0 
z
" id="DejaVuSans-70"/>
     <path d="M 9.8125 72.90625 
L 55.90625 72.90625 
L 55.90625 64.59375 
L 19.671875 64.59375 
L 19.671875 43.015625 
L 54.390625 43.015625 
L 54.390625 34.71875 
L 19.671875 34.71875 
L 19.671875 8.296875 
L 56.78125 8.296875 
L 56.78125 0 
L 9.8125 0 
z
" id="DejaVuSans-69"/>
    </defs>
    <g style="fill:#ffffff;" transform="translate(7.2 434.932243)scale(0.15 -0.15)">
     <use xlink:href="#DejaVuSans-80"/>
     <use x="60.302734" xlink:href="#DejaVuSans-108"/>
     <use x="88.085938" xlink:href="#DejaVuSans-97"/>
     <use x="149.365234" xlink:href="#DejaVuSans-110"/>
     <use x="212.744141" xlink:href="#DejaVuSans-32"/>
     <use x="244.53125" xlink:href="#DejaVuSans-70"/>
     <use x="302.050781" xlink:href="#DejaVuSans-69"/>
     <use x="365.234375" xlink:href="#DejaVuSans-32"/>
     <use x="397.021484" xlink:href="#DejaVuSans-84"/>
     <use x="457.839844" xlink:href="#DejaVuSans-101"/>
     <use x="519.363281" xlink:href="#DejaVuSans-97"/>
     <use x="580.642578" xlink:href="#DejaVuSans-109"/>
    </g>
   </g>
   <g id="patch_48">
    <path d="M 124.586123 430.048897 
Q 186.908103 405.120105 249.230083 380.191313 
" style="fill:none;stroke:#ffffff;stroke-linecap:round;"/>
   </g>
   <g id="text_3">
    <!-- Manage FE Team -->
    <defs>
     <path d="M 9.8125 72.90625 
L 24.515625 72.90625 
L 43.109375 23.296875 
L 61.8125 72.90625 
L 76.515625 72.90625 
L 76.515625 0 
L 66.890625 0 
L 66.890625 64.015625 
L 48.09375 14.015625 
L 38.1875 14.015625 
L 19.390625 64.015625 
L 19.390625 0 
L 9.8125 0 
z
" id="DejaVuSans-77"/>
     <path d="M 45.40625 27.984375 
Q 45.40625 37.75 41.375 43.109375 
Q 37.359375 48.484375 30.078125 48.484375 
Q 22.859375 48.484375 18.828125 43.109375 
Q 14.796875 37.75 14.796875 27.984375 
Q 14.796875 18.265625 18.828125 12.890625 
Q 22.859375 7.515625 30.078125 7.515625 
Q 37.359375 7.515625 41.375 12.890625 
Q 45.40625 18.265625 45.40625 27.984375 
z
M 54.390625 6.78125 
Q 54.390625 -7.171875 48.1875 -13.984375 
Q 42 -20.796875 29.203125 -20.796875 
Q 24.46875 -20.796875 20.265625 -20.09375 
Q 16.0625 -19.390625 12.109375 -17.921875 
L 12.109375 -9.1875 
Q 16.0625 -11.328125 19.921875 -12.34375 
Q 23.78125 -13.375 27.78125 -13.375 
Q 36.625 -13.375 41.015625 -8.765625 
Q 45.40625 -4.15625 45.40625 5.171875 
L 45.40625 9.625 
Q 42.625 4.78125 38.28125 2.390625 
Q 33.9375 0 27.875 0 
Q 17.828125 0 11.671875 7.65625 
Q 5.515625 15.328125 5.515625 27.984375 
Q 5.515625 40.671875 11.671875 48.328125 
Q 17.828125 56 27.875 56 
Q 33.9375 56 38.28125 53.609375 
Q 42.625 51.21875 45.40625 46.390625 
L 45.40625 54.6875 
L 54.390625 54.6875 
z
" id="DejaVuSans-103"/>
    </defs>
    <g style="fill:#ffffff;" transform="translate(7.2 460.604557)scale(0.15 -0.15)">
     <use xlink:href="#DejaVuSans-77"/>
     <use x="86.279297" xlink:href="#DejaVuSans-97"/>
     <use x="147.558594" xlink:href="#DejaVuSans-110"/>
     <use x="210.9375" xlink:href="#DejaVuSans-97"/>
     <use x="272.216797" xlink:href="#DejaVuSans-103"/>
     <use x="335.693359" xlink:href="#DejaVuSans-101"/>
     <use x="397.216797" xlink:href="#DejaVuSans-32"/>
     <use x="429.003906" xlink:href="#DejaVuSans-70"/>
     <use x="486.523438" xlink:href="#DejaVuSans-69"/>
     <use x="549.707031" xlink:href="#DejaVuSans-32"/>
     <use x="581.494141" xlink:href="#DejaVuSans-84"/>
     <use x="642.3125" xlink:href="#DejaVuSans-101"/>
     <use x="703.835938" xlink:href="#DejaVuSans-97"/>
     <use x="765.115234" xlink:href="#DejaVuSans-109"/>
    </g>
   </g>
   <g id="patch_49">
    <path d="M 150.395542 456.598683 
Q 225.413705 461.599894 300.431869 466.601104 
" style="fill:none;stroke:#ffffff;stroke-linecap:round;"/>
   </g>
   <g id="text_4">
    <!-- Core Team -->
    <defs>
     <path d="M 64.40625 67.28125 
L 64.40625 56.890625 
Q 59.421875 61.53125 53.78125 63.8125 
Q 48.140625 66.109375 41.796875 66.109375 
Q 29.296875 66.109375 22.65625 58.46875 
Q 16.015625 50.828125 16.015625 36.375 
Q 16.015625 21.96875 22.65625 14.328125 
Q 29.296875 6.6875 41.796875 6.6875 
Q 48.140625 6.6875 53.78125 8.984375 
Q 59.421875 11.28125 64.40625 15.921875 
L 64.40625 5.609375 
Q 59.234375 2.09375 53.4375 0.328125 
Q 47.65625 -1.421875 41.21875 -1.421875 
Q 24.65625 -1.421875 15.125 8.703125 
Q 5.609375 18.84375 5.609375 36.375 
Q 5.609375 53.953125 15.125 64.078125 
Q 24.65625 74.21875 41.21875 74.21875 
Q 47.75 74.21875 53.53125 72.484375 
Q 59.328125 70.75 64.40625 67.28125 
z
" id="DejaVuSans-67"/>
     <path d="M 30.609375 48.390625 
Q 23.390625 48.390625 19.1875 42.75 
Q 14.984375 37.109375 14.984375 27.296875 
Q 14.984375 17.484375 19.15625 11.84375 
Q 23.34375 6.203125 30.609375 6.203125 
Q 37.796875 6.203125 41.984375 11.859375 
Q 46.1875 17.53125 46.1875 27.296875 
Q 46.1875 37.015625 41.984375 42.703125 
Q 37.796875 48.390625 30.609375 48.390625 
z
M 30.609375 56 
Q 42.328125 56 49.015625 48.375 
Q 55.71875 40.765625 55.71875 27.296875 
Q 55.71875 13.875 49.015625 6.21875 
Q 42.328125 -1.421875 30.609375 -1.421875 
Q 18.84375 -1.421875 12.171875 6.21875 
Q 5.515625 13.875 5.515625 27.296875 
Q 5.515625 40.765625 12.171875 48.375 
Q 18.84375 56 30.609375 56 
z
" id="DejaVuSans-111"/>
     <path d="M 41.109375 46.296875 
Q 39.59375 47.171875 37.8125 47.578125 
Q 36.03125 48 33.890625 48 
Q 26.265625 48 22.1875 43.046875 
Q 18.109375 38.09375 18.109375 28.8125 
L 18.109375 0 
L 9.078125 0 
L 9.078125 54.6875 
L 18.109375 54.6875 
L 18.109375 46.1875 
Q 20.953125 51.171875 25.484375 53.578125 
Q 30.03125 56 36.53125 56 
Q 37.453125 56 38.578125 55.875 
Q 39.703125 55.765625 41.0625 55.515625 
z
" id="DejaVuSans-114"/>
    </defs>
    <g style="fill:#ffffff;" transform="translate(7.2 486.276871)scale(0.15 -0.15)">
     <use xlink:href="#DejaVuSans-67"/>
     <use x="69.824219" xlink:href="#DejaVuSans-111"/>
     <use x="131.005859" xlink:href="#DejaVuSans-114"/>
     <use x="172.087891" xlink:href="#DejaVuSans-101"/>
     <use x="233.611328" xlink:href="#DejaVuSans-32"/>
     <use x="265.398438" xlink:href="#DejaVuSans-84"/>
     <use x="326.216797" xlink:href="#DejaVuSans-101"/>
     <use x="387.740234" xlink:href="#DejaVuSans-97"/>
     <use x="449.019531" xlink:href="#DejaVuSans-109"/>
    </g>
   </g>
   <g id="patch_50">
    <path d="M 101.616735 482.298809 
Q 258.79011 494.974082 415.963485 507.649354 
" style="fill:none;stroke:#ffffff;stroke-linecap:round;"/>
   </g>
   <g id="text_5">
    <!-- Plan BE Team -->
    <defs>
     <path d="M 19.671875 34.8125 
L 19.671875 8.109375 
L 35.5 8.109375 
Q 43.453125 8.109375 47.28125 11.40625 
Q 51.125 14.703125 51.125 21.484375 
Q 51.125 28.328125 47.28125 31.5625 
Q 43.453125 34.8125 35.5 34.8125 
z
M 19.671875 64.796875 
L 19.671875 42.828125 
L 34.28125 42.828125 
Q 41.5 42.828125 45.03125 45.53125 
Q 48.578125 48.25 48.578125 53.8125 
Q 48.578125 59.328125 45.03125 62.0625 
Q 41.5 64.796875 34.28125 64.796875 
z
M 9.8125 72.90625 
L 35.015625 72.90625 
Q 46.296875 72.90625 52.390625 68.21875 
Q 58.5 63.53125 58.5 54.890625 
Q 58.5 48.1875 55.375 44.234375 
Q 52.25 40.28125 46.1875 39.3125 
Q 53.46875 37.75 57.5 32.78125 
Q 61.53125 27.828125 61.53125 20.40625 
Q 61.53125 10.640625 54.890625 5.3125 
Q 48.25 0 35.984375 0 
L 9.8125 0 
z
" id="DejaVuSans-66"/>
    </defs>
    <g style="fill:#ffffff;" transform="translate(726.024792 332.242987)scale(0.15 -0.15)">
     <use xlink:href="#DejaVuSans-80"/>
     <use x="60.302734" xlink:href="#DejaVuSans-108"/>
     <use x="88.085938" xlink:href="#DejaVuSans-97"/>
     <use x="149.365234" xlink:href="#DejaVuSans-110"/>
     <use x="212.744141" xlink:href="#DejaVuSans-32"/>
     <use x="244.53125" xlink:href="#DejaVuSans-66"/>
     <use x="313.134766" xlink:href="#DejaVuSans-69"/>
     <use x="376.318359" xlink:href="#DejaVuSans-32"/>
     <use x="408.105469" xlink:href="#DejaVuSans-84"/>
     <use x="468.923828" xlink:href="#DejaVuSans-101"/>
     <use x="530.447266" xlink:href="#DejaVuSans-97"/>
     <use x="591.726562" xlink:href="#DejaVuSans-109"/>
    </g>
   </g>
   <g id="patch_51">
    <path d="M 711.587249 326.902886 
Q 610.499355 251.086965 509.41146 175.271044 
" style="fill:none;stroke:#ffffff;stroke-linecap:round;"/>
   </g>
   <g id="text_6">
    <!-- Create BE Team -->
    <g style="fill:#ffffff;" transform="translate(726.024792 357.915301)scale(0.15 -0.15)">
     <use xlink:href="#DejaVuSans-67"/>
     <use x="69.824219" xlink:href="#DejaVuSans-114"/>
     <use x="110.90625" xlink:href="#DejaVuSans-101"/>
     <use x="172.429688" xlink:href="#DejaVuSans-97"/>
     <use x="233.708984" xlink:href="#DejaVuSans-116"/>
     <use x="272.917969" xlink:href="#DejaVuSans-101"/>
     <use x="334.441406" xlink:href="#DejaVuSans-32"/>
     <use x="366.228516" xlink:href="#DejaVuSans-66"/>
     <use x="434.832031" xlink:href="#DejaVuSans-69"/>
     <use x="498.015625" xlink:href="#DejaVuSans-32"/>
     <use x="529.802734" xlink:href="#DejaVuSans-84"/>
     <use x="590.621094" xlink:href="#DejaVuSans-101"/>
     <use x="652.144531" xlink:href="#DejaVuSans-97"/>
     <use x="713.423828" xlink:href="#DejaVuSans-109"/>
    </g>
   </g>
   <g id="patch_52">
    <path d="M 711.551954 352.627691 
Q 640.022219 302.431385 568.492483 252.23508 
" style="fill:none;stroke:#ffffff;stroke-linecap:round;"/>
   </g>
   <g id="text_7">
    <!-- Geo BE Team -->
    <g style="fill:#ffffff;" transform="translate(726.024792 383.587615)scale(0.15 -0.15)">
     <use xlink:href="#DejaVuSans-71"/>
     <use x="77.490234" xlink:href="#DejaVuSans-101"/>
     <use x="139.013672" xlink:href="#DejaVuSans-111"/>
     <use x="200.195312" xlink:href="#DejaVuSans-32"/>
     <use x="231.982422" xlink:href="#DejaVuSans-66"/>
     <use x="300.585938" xlink:href="#DejaVuSans-69"/>
     <use x="363.769531" xlink:href="#DejaVuSans-32"/>
     <use x="395.556641" xlink:href="#DejaVuSans-84"/>
     <use x="456.375" xlink:href="#DejaVuSans-101"/>
     <use x="517.898438" xlink:href="#DejaVuSans-97"/>
     <use x="579.177734" xlink:href="#DejaVuSans-109"/>
    </g>
   </g>
   <g id="patch_53">
    <path d="M 711.492608 378.388536 
Q 651.574536 340.939741 591.656465 303.490947 
" style="fill:none;stroke:#ffffff;stroke-linecap:round;"/>
   </g>
   <g id="text_8">
    <!-- Dev UX Team -->
    <defs>
     <path d="M 19.671875 64.796875 
L 19.671875 8.109375 
L 31.59375 8.109375 
Q 46.6875 8.109375 53.6875 14.9375 
Q 60.6875 21.78125 60.6875 36.53125 
Q 60.6875 51.171875 53.6875 57.984375 
Q 46.6875 64.796875 31.59375 64.796875 
z
M 9.8125 72.90625 
L 30.078125 72.90625 
Q 51.265625 72.90625 61.171875 64.09375 
Q 71.09375 55.28125 71.09375 36.53125 
Q 71.09375 17.671875 61.125 8.828125 
Q 51.171875 0 30.078125 0 
L 9.8125 0 
z
" id="DejaVuSans-68"/>
     <path d="M 2.984375 54.6875 
L 12.5 54.6875 
L 29.59375 8.796875 
L 46.6875 54.6875 
L 56.203125 54.6875 
L 35.6875 0 
L 23.484375 0 
z
" id="DejaVuSans-118"/>
     <path d="M 8.6875 72.90625 
L 18.609375 72.90625 
L 18.609375 28.609375 
Q 18.609375 16.890625 22.84375 11.734375 
Q 27.09375 6.59375 36.625 6.59375 
Q 46.09375 6.59375 50.34375 11.734375 
Q 54.59375 16.890625 54.59375 28.609375 
L 54.59375 72.90625 
L 64.5 72.90625 
L 64.5 27.390625 
Q 64.5 13.140625 57.4375 5.859375 
Q 50.390625 -1.421875 36.625 -1.421875 
Q 22.796875 -1.421875 15.734375 5.859375 
Q 8.6875 13.140625 8.6875 27.390625 
z
" id="DejaVuSans-85"/>
     <path d="M 6.296875 72.90625 
L 16.890625 72.90625 
L 35.015625 45.796875 
L 53.21875 72.90625 
L 63.8125 72.90625 
L 40.375 37.890625 
L 65.375 0 
L 54.78125 0 
L 34.28125 31 
L 13.625 0 
L 2.984375 0 
L 29 38.921875 
z
" id="DejaVuSans-88"/>
    </defs>
    <g style="fill:#ffffff;" transform="translate(726.024792 409.259929)scale(0.15 -0.15)">
     <use xlink:href="#DejaVuSans-68"/>
     <use x="77.001953" xlink:href="#DejaVuSans-101"/>
     <use x="138.525391" xlink:href="#DejaVuSans-118"/>
     <use x="197.705078" xlink:href="#DejaVuSans-32"/>
     <use x="229.492188" xlink:href="#DejaVuSans-85"/>
     <use x="302.685547" xlink:href="#DejaVuSans-88"/>
     <use x="371.191406" xlink:href="#DejaVuSans-32"/>
     <use x="402.978516" xlink:href="#DejaVuSans-84"/>
     <use x="463.796875" xlink:href="#DejaVuSans-101"/>
     <use x="525.320312" xlink:href="#DejaVuSans-97"/>
     <use x="586.599609" xlink:href="#DejaVuSans-109"/>
    </g>
   </g>
   <g id="patch_54">
    <path d="M 711.214872 405.455403 
Q 637.456135 417.956884 563.697398 430.458365 
" style="fill:none;stroke:#ffffff;stroke-linecap:round;"/>
   </g>
   <g id="text_9">
    <!-- Core Team Alumni -->
    <defs>
     <path d="M 34.1875 63.1875 
L 20.796875 26.90625 
L 47.609375 26.90625 
z
M 28.609375 72.90625 
L 39.796875 72.90625 
L 67.578125 0 
L 57.328125 0 
L 50.6875 18.703125 
L 17.828125 18.703125 
L 11.1875 0 
L 0.78125 0 
z
" id="DejaVuSans-65"/>
     <path d="M 8.5 21.578125 
L 8.5 54.6875 
L 17.484375 54.6875 
L 17.484375 21.921875 
Q 17.484375 14.15625 20.5 10.265625 
Q 23.53125 6.390625 29.59375 6.390625 
Q 36.859375 6.390625 41.078125 11.03125 
Q 45.3125 15.671875 45.3125 23.6875 
L 45.3125 54.6875 
L 54.296875 54.6875 
L 54.296875 0 
L 45.3125 0 
L 45.3125 8.40625 
Q 42.046875 3.421875 37.71875 1 
Q 33.40625 -1.421875 27.6875 -1.421875 
Q 18.265625 -1.421875 13.375 4.4375 
Q 8.5 10.296875 8.5 21.578125 
z
M 31.109375 56 
z
" id="DejaVuSans-117"/>
    </defs>
    <g style="fill:#ffffff;" transform="translate(726.024792 434.932243)scale(0.15 -0.15)">
     <use xlink:href="#DejaVuSans-67"/>
     <use x="69.824219" xlink:href="#DejaVuSans-111"/>
     <use x="131.005859" xlink:href="#DejaVuSans-114"/>
     <use x="172.087891" xlink:href="#DejaVuSans-101"/>
     <use x="233.611328" xlink:href="#DejaVuSans-32"/>
     <use x="265.398438" xlink:href="#DejaVuSans-84"/>
     <use x="326.216797" xlink:href="#DejaVuSans-101"/>
     <use x="387.740234" xlink:href="#DejaVuSans-97"/>
     <use x="449.019531" xlink:href="#DejaVuSans-109"/>
     <use x="546.431641" xlink:href="#DejaVuSans-32"/>
     <use x="578.21875" xlink:href="#DejaVuSans-65"/>
     <use x="646.626953" xlink:href="#DejaVuSans-108"/>
     <use x="674.410156" xlink:href="#DejaVuSans-117"/>
     <use x="737.789062" xlink:href="#DejaVuSans-109"/>
     <use x="835.201172" xlink:href="#DejaVuSans-110"/>
     <use x="898.580078" xlink:href="#DejaVuSans-105"/>
    </g>
   </g>
   <g id="patch_55">
    <path d="M 711.260548 431.317118 
Q 595.09527 462.883769 478.929992 494.450421 
" style="fill:none;stroke:#ffffff;stroke-linecap:round;"/>
   </g>
   <g id="legend_1">
    <g id="text_10">
     <!-- $\bf{Coding\:similarity\:by\:feature}$ -->
     <defs>
      <path d="M 67 4 
Q 61.8125 1.3125 56.203125 -0.046875 
Q 50.59375 -1.421875 44.484375 -1.421875 
Q 26.265625 -1.421875 15.625 8.765625 
Q 4.984375 18.953125 4.984375 36.375 
Q 4.984375 53.859375 15.625 64.03125 
Q 26.265625 74.21875 44.484375 74.21875 
Q 50.59375 74.21875 56.203125 72.84375 
Q 61.8125 71.484375 67 68.796875 
L 67 53.71875 
Q 61.765625 57.28125 56.6875 58.9375 
Q 51.609375 60.59375 46 60.59375 
Q 35.9375 60.59375 30.171875 54.140625 
Q 24.421875 47.703125 24.421875 36.375 
Q 24.421875 25.09375 30.171875 18.640625 
Q 35.9375 12.203125 46 12.203125 
Q 51.609375 12.203125 56.6875 13.859375 
Q 61.765625 15.53125 67 19.09375 
z
" id="DejaVuSans-Bold-67"/>
      <path d="M 34.421875 43.5 
Q 28.609375 43.5 25.5625 39.328125 
Q 22.515625 35.15625 22.515625 27.296875 
Q 22.515625 19.4375 25.5625 15.25 
Q 28.609375 11.078125 34.421875 11.078125 
Q 40.140625 11.078125 43.15625 15.25 
Q 46.1875 19.4375 46.1875 27.296875 
Q 46.1875 35.15625 43.15625 39.328125 
Q 40.140625 43.5 34.421875 43.5 
z
M 34.421875 56 
Q 48.53125 56 56.46875 48.375 
Q 64.40625 40.765625 64.40625 27.296875 
Q 64.40625 13.8125 56.46875 6.1875 
Q 48.53125 -1.421875 34.421875 -1.421875 
Q 20.265625 -1.421875 12.28125 6.1875 
Q 4.296875 13.8125 4.296875 27.296875 
Q 4.296875 40.765625 12.28125 48.375 
Q 20.265625 56 34.421875 56 
z
" id="DejaVuSans-Bold-111"/>
      <path d="M 45.609375 46.6875 
L 45.609375 75.984375 
L 63.1875 75.984375 
L 63.1875 0 
L 45.609375 0 
L 45.609375 7.90625 
Q 42 3.078125 37.640625 0.828125 
Q 33.296875 -1.421875 27.59375 -1.421875 
Q 17.484375 -1.421875 10.984375 6.609375 
Q 4.5 14.65625 4.5 27.296875 
Q 4.5 39.9375 10.984375 47.96875 
Q 17.484375 56 27.59375 56 
Q 33.25 56 37.625 53.734375 
Q 42 51.46875 45.609375 46.6875 
z
M 34.078125 11.28125 
Q 39.703125 11.28125 42.65625 15.375 
Q 45.609375 19.484375 45.609375 27.296875 
Q 45.609375 35.109375 42.65625 39.203125 
Q 39.703125 43.3125 34.078125 43.3125 
Q 28.515625 43.3125 25.5625 39.203125 
Q 22.609375 35.109375 22.609375 27.296875 
Q 22.609375 19.484375 25.5625 15.375 
Q 28.515625 11.28125 34.078125 11.28125 
z
" id="DejaVuSans-Bold-100"/>
      <path d="M 8.40625 54.6875 
L 25.875 54.6875 
L 25.875 0 
L 8.40625 0 
z
M 8.40625 75.984375 
L 25.875 75.984375 
L 25.875 61.71875 
L 8.40625 61.71875 
z
" id="DejaVuSans-Bold-105"/>
      <path d="M 63.375 33.296875 
L 63.375 0 
L 45.796875 0 
L 45.796875 5.421875 
L 45.796875 25.484375 
Q 45.796875 32.5625 45.484375 35.25 
Q 45.171875 37.9375 44.390625 39.203125 
Q 43.359375 40.921875 41.59375 41.875 
Q 39.84375 42.828125 37.59375 42.828125 
Q 32.125 42.828125 29 38.59375 
Q 25.875 34.375 25.875 26.90625 
L 25.875 0 
L 8.40625 0 
L 8.40625 54.6875 
L 25.875 54.6875 
L 25.875 46.6875 
Q 29.828125 51.46875 34.265625 53.734375 
Q 38.71875 56 44.09375 56 
Q 53.5625 56 58.46875 50.1875 
Q 63.375 44.390625 63.375 33.296875 
z
" id="DejaVuSans-Bold-110"/>
      <path d="M 45.609375 9.28125 
Q 42 4.5 37.640625 2.25 
Q 33.296875 0 27.59375 0 
Q 17.578125 0 11.03125 7.875 
Q 4.5 15.765625 4.5 27.984375 
Q 4.5 40.234375 11.03125 48.0625 
Q 17.578125 55.90625 27.59375 55.90625 
Q 33.296875 55.90625 37.640625 53.65625 
Q 42 51.421875 45.609375 46.578125 
L 45.609375 54.6875 
L 63.1875 54.6875 
L 63.1875 5.515625 
Q 63.1875 -7.671875 54.859375 -14.625 
Q 46.53125 -21.578125 30.71875 -21.578125 
Q 25.59375 -21.578125 20.796875 -20.796875 
Q 16.015625 -20.015625 11.1875 -18.40625 
L 11.1875 -4.78125 
Q 15.765625 -7.421875 20.15625 -8.71875 
Q 24.5625 -10.015625 29 -10.015625 
Q 37.59375 -10.015625 41.59375 -6.25 
Q 45.609375 -2.484375 45.609375 5.515625 
z
M 34.078125 43.3125 
Q 28.65625 43.3125 25.625 39.296875 
Q 22.609375 35.296875 22.609375 27.984375 
Q 22.609375 20.453125 25.53125 16.578125 
Q 28.46875 12.703125 34.078125 12.703125 
Q 39.546875 12.703125 42.578125 16.703125 
Q 45.609375 20.703125 45.609375 27.984375 
Q 45.609375 35.296875 42.578125 39.296875 
Q 39.546875 43.3125 34.078125 43.3125 
z
" id="DejaVuSans-Bold-103"/>
      <path d="M 51.125 52.984375 
L 51.125 39.703125 
Q 45.515625 42.046875 40.28125 43.21875 
Q 35.0625 44.390625 30.421875 44.390625 
Q 25.4375 44.390625 23.015625 43.140625 
Q 20.609375 41.890625 20.609375 39.3125 
Q 20.609375 37.203125 22.4375 36.078125 
Q 24.265625 34.96875 29 34.421875 
L 32.078125 33.984375 
Q 45.515625 32.28125 50.140625 28.375 
Q 54.78125 24.46875 54.78125 16.109375 
Q 54.78125 7.375 48.328125 2.96875 
Q 41.890625 -1.421875 29.109375 -1.421875 
Q 23.6875 -1.421875 17.890625 -0.5625 
Q 12.109375 0.296875 6 2 
L 6 15.28125 
Q 11.234375 12.75 16.71875 11.46875 
Q 22.21875 10.203125 27.875 10.203125 
Q 33.015625 10.203125 35.59375 11.609375 
Q 38.1875 13.03125 38.1875 15.828125 
Q 38.1875 18.171875 36.40625 19.3125 
Q 34.625 20.453125 29.296875 21.09375 
L 26.21875 21.484375 
Q 14.546875 22.953125 9.859375 26.90625 
Q 5.171875 30.859375 5.171875 38.921875 
Q 5.171875 47.609375 11.125 51.796875 
Q 17.09375 56 29.390625 56 
Q 34.234375 56 39.546875 55.265625 
Q 44.875 54.546875 51.125 52.984375 
z
" id="DejaVuSans-Bold-115"/>
      <path d="M 59.078125 45.609375 
Q 62.40625 50.6875 66.96875 53.34375 
Q 71.53125 56 77 56 
Q 86.421875 56 91.359375 50.1875 
Q 96.296875 44.390625 96.296875 33.296875 
L 96.296875 0 
L 78.71875 0 
L 78.71875 28.515625 
Q 78.765625 29.15625 78.78125 29.828125 
Q 78.8125 30.515625 78.8125 31.78125 
Q 78.8125 37.59375 77.09375 40.203125 
Q 75.390625 42.828125 71.578125 42.828125 
Q 66.609375 42.828125 63.890625 38.71875 
Q 61.1875 34.625 61.078125 26.859375 
L 61.078125 0 
L 43.5 0 
L 43.5 28.515625 
Q 43.5 37.59375 41.9375 40.203125 
Q 40.375 42.828125 36.375 42.828125 
Q 31.34375 42.828125 28.609375 38.703125 
Q 25.875 34.578125 25.875 26.90625 
L 25.875 0 
L 8.296875 0 
L 8.296875 54.6875 
L 25.875 54.6875 
L 25.875 46.6875 
Q 29.109375 51.3125 33.28125 53.65625 
Q 37.453125 56 42.484375 56 
Q 48.140625 56 52.484375 53.265625 
Q 56.84375 50.53125 59.078125 45.609375 
z
" id="DejaVuSans-Bold-109"/>
      <path d="M 8.40625 75.984375 
L 25.875 75.984375 
L 25.875 0 
L 8.40625 0 
z
" id="DejaVuSans-Bold-108"/>
      <path d="M 32.90625 24.609375 
Q 27.4375 24.609375 24.671875 22.75 
Q 21.921875 20.90625 21.921875 17.28125 
Q 21.921875 13.96875 24.140625 12.078125 
Q 26.375 10.203125 30.328125 10.203125 
Q 35.25 10.203125 38.625 13.734375 
Q 42 17.28125 42 22.609375 
L 42 24.609375 
z
M 59.625 31.203125 
L 59.625 0 
L 42 0 
L 42 8.109375 
Q 38.484375 3.125 34.078125 0.84375 
Q 29.6875 -1.421875 23.390625 -1.421875 
Q 14.890625 -1.421875 9.59375 3.53125 
Q 4.296875 8.5 4.296875 16.40625 
Q 4.296875 26.03125 10.90625 30.515625 
Q 17.53125 35.015625 31.6875 35.015625 
L 42 35.015625 
L 42 36.375 
Q 42 40.53125 38.71875 42.453125 
Q 35.453125 44.390625 28.515625 44.390625 
Q 22.90625 44.390625 18.0625 43.265625 
Q 13.234375 42.140625 9.078125 39.890625 
L 9.078125 53.21875 
Q 14.703125 54.59375 20.359375 55.296875 
Q 26.03125 56 31.6875 56 
Q 46.484375 56 53.046875 50.171875 
Q 59.625 44.34375 59.625 31.203125 
z
" id="DejaVuSans-Bold-97"/>
      <path d="M 49.03125 39.796875 
Q 46.734375 40.875 44.453125 41.375 
Q 42.1875 41.890625 39.890625 41.890625 
Q 33.15625 41.890625 29.515625 37.5625 
Q 25.875 33.25 25.875 25.203125 
L 25.875 0 
L 8.40625 0 
L 8.40625 54.6875 
L 25.875 54.6875 
L 25.875 45.703125 
Q 29.25 51.078125 33.609375 53.53125 
Q 37.984375 56 44.09375 56 
Q 44.96875 56 45.984375 55.921875 
Q 47.015625 55.859375 48.96875 55.609375 
z
" id="DejaVuSans-Bold-114"/>
      <path d="M 27.484375 70.21875 
L 27.484375 54.6875 
L 45.515625 54.6875 
L 45.515625 42.1875 
L 27.484375 42.1875 
L 27.484375 19 
Q 27.484375 15.1875 29 13.84375 
Q 30.515625 12.5 35.015625 12.5 
L 44 12.5 
L 44 0 
L 29 0 
Q 18.65625 0 14.328125 4.3125 
Q 10.015625 8.640625 10.015625 19 
L 10.015625 42.1875 
L 1.3125 42.1875 
L 1.3125 54.6875 
L 10.015625 54.6875 
L 10.015625 70.21875 
z
" id="DejaVuSans-Bold-116"/>
      <path d="M 1.21875 54.6875 
L 18.703125 54.6875 
L 33.40625 17.578125 
L 45.90625 54.6875 
L 63.375 54.6875 
L 40.375 -5.171875 
Q 36.921875 -14.3125 32.296875 -17.9375 
Q 27.6875 -21.578125 20.125 -21.578125 
L 10.015625 -21.578125 
L 10.015625 -10.109375 
L 15.484375 -10.109375 
Q 19.921875 -10.109375 21.9375 -8.6875 
Q 23.96875 -7.28125 25.09375 -3.609375 
L 25.59375 -2.09375 
z
" id="DejaVuSans-Bold-121"/>
      <path d="M 37.5 11.28125 
Q 43.109375 11.28125 46.0625 15.375 
Q 49.03125 19.484375 49.03125 27.296875 
Q 49.03125 35.109375 46.0625 39.203125 
Q 43.109375 43.3125 37.5 43.3125 
Q 31.890625 43.3125 28.875 39.1875 
Q 25.875 35.0625 25.875 27.296875 
Q 25.875 19.53125 28.875 15.40625 
Q 31.890625 11.28125 37.5 11.28125 
z
M 25.875 46.6875 
Q 29.5 51.46875 33.890625 53.734375 
Q 38.28125 56 44 56 
Q 54.109375 56 60.59375 47.96875 
Q 67.09375 39.9375 67.09375 27.296875 
Q 67.09375 14.65625 60.59375 6.609375 
Q 54.109375 -1.421875 44 -1.421875 
Q 38.28125 -1.421875 33.890625 0.84375 
Q 29.5 3.125 25.875 7.90625 
L 25.875 0 
L 8.40625 0 
L 8.40625 75.984375 
L 25.875 75.984375 
z
" id="DejaVuSans-Bold-98"/>
      <path d="M 44.390625 75.984375 
L 44.390625 64.5 
L 34.71875 64.5 
Q 31 64.5 29.53125 63.15625 
Q 28.078125 61.8125 28.078125 58.5 
L 28.078125 54.6875 
L 43.015625 54.6875 
L 43.015625 42.1875 
L 28.078125 42.1875 
L 28.078125 0 
L 10.59375 0 
L 10.59375 42.1875 
L 1.90625 42.1875 
L 1.90625 54.6875 
L 10.59375 54.6875 
L 10.59375 58.5 
Q 10.59375 67.4375 15.578125 71.703125 
Q 20.5625 75.984375 31 75.984375 
z
" id="DejaVuSans-Bold-102"/>
      <path d="M 62.984375 27.484375 
L 62.984375 22.515625 
L 22.125 22.515625 
Q 22.75 16.359375 26.5625 13.28125 
Q 30.375 10.203125 37.203125 10.203125 
Q 42.71875 10.203125 48.5 11.84375 
Q 54.296875 13.484375 60.40625 16.796875 
L 60.40625 3.328125 
Q 54.203125 0.984375 48 -0.21875 
Q 41.796875 -1.421875 35.59375 -1.421875 
Q 20.75 -1.421875 12.515625 6.125 
Q 4.296875 13.671875 4.296875 27.296875 
Q 4.296875 40.671875 12.375 48.328125 
Q 20.453125 56 34.625 56 
Q 47.515625 56 55.25 48.234375 
Q 62.984375 40.484375 62.984375 27.484375 
z
M 45.015625 33.296875 
Q 45.015625 38.28125 42.109375 41.328125 
Q 39.203125 44.390625 34.515625 44.390625 
Q 29.4375 44.390625 26.265625 41.53125 
Q 23.09375 38.671875 22.3125 33.296875 
z
" id="DejaVuSans-Bold-101"/>
      <path d="M 7.8125 21.296875 
L 7.8125 54.6875 
L 25.390625 54.6875 
L 25.390625 49.21875 
Q 25.390625 44.78125 25.34375 38.0625 
Q 25.296875 31.34375 25.296875 29.109375 
Q 25.296875 22.515625 25.640625 19.609375 
Q 25.984375 16.703125 26.8125 15.375 
Q 27.875 13.671875 29.609375 12.734375 
Q 31.34375 11.8125 33.59375 11.8125 
Q 39.0625 11.8125 42.1875 16.015625 
Q 45.3125 20.21875 45.3125 27.6875 
L 45.3125 54.6875 
L 62.796875 54.6875 
L 62.796875 0 
L 45.3125 0 
L 45.3125 7.90625 
Q 41.359375 3.125 36.9375 0.84375 
Q 32.515625 -1.421875 27.203125 -1.421875 
Q 17.71875 -1.421875 12.765625 4.390625 
Q 7.8125 10.203125 7.8125 21.296875 
z
" id="DejaVuSans-Bold-117"/>
     </defs>
     <g style="fill:#ffffff;" transform="translate(722.070556 163.78157)scale(0.17 -0.17)">
      <use transform="translate(0 0.015625)" xlink:href="#DejaVuSans-Bold-67"/>
      <use transform="translate(73.388672 0.015625)" xlink:href="#DejaVuSans-Bold-111"/>
      <use transform="translate(142.089844 0.015625)" xlink:href="#DejaVuSans-Bold-100"/>
      <use transform="translate(213.671875 0.015625)" xlink:href="#DejaVuSans-Bold-105"/>
      <use transform="translate(247.949219 0.015625)" xlink:href="#DejaVuSans-Bold-110"/>
      <use transform="translate(319.140625 0.015625)" xlink:href="#DejaVuSans-Bold-103"/>
      <use transform="translate(413.877807 0.015625)" xlink:href="#DejaVuSans-Bold-115"/>
      <use transform="translate(473.399291 0.015625)" xlink:href="#DejaVuSans-Bold-105"/>
      <use transform="translate(507.676635 0.015625)" xlink:href="#DejaVuSans-Bold-109"/>
      <use transform="translate(611.875854 0.015625)" xlink:href="#DejaVuSans-Bold-105"/>
      <use transform="translate(646.153197 0.015625)" xlink:href="#DejaVuSans-Bold-108"/>
      <use transform="translate(680.430541 0.015625)" xlink:href="#DejaVuSans-Bold-97"/>
      <use transform="translate(747.91101 0.015625)" xlink:href="#DejaVuSans-Bold-114"/>
      <use transform="translate(797.227416 0.015625)" xlink:href="#DejaVuSans-Bold-105"/>
      <use transform="translate(831.50476 0.015625)" xlink:href="#DejaVuSans-Bold-116"/>
      <use transform="translate(879.307494 0.015625)" xlink:href="#DejaVuSans-Bold-121"/>
      <use transform="translate(967.648191 0.015625)" xlink:href="#DejaVuSans-Bold-98"/>
      <use transform="translate(1039.230223 0.015625)" xlink:href="#DejaVuSans-Bold-121"/>
      <use transform="translate(1127.57092 0.015625)" xlink:href="#DejaVuSans-Bold-102"/>
      <use transform="translate(1171.076779 0.015625)" xlink:href="#DejaVuSans-Bold-101"/>
      <use transform="translate(1238.899045 0.015625)" xlink:href="#DejaVuSans-Bold-97"/>
      <use transform="translate(1306.379514 0.015625)" xlink:href="#DejaVuSans-Bold-116"/>
      <use transform="translate(1354.182248 0.015625)" xlink:href="#DejaVuSans-Bold-117"/>
      <use transform="translate(1425.373654 0.015625)" xlink:href="#DejaVuSans-Bold-114"/>
      <use transform="translate(1474.690061 0.015625)" xlink:href="#DejaVuSans-Bold-101"/>
     </g>
    </g>
    <g id="line2d_1">
     <path d="M 722.070556 186.488914 
L 756.070556 186.488914 
" style="fill:none;stroke:#ffffff;stroke-dasharray:1.5,2.475;stroke-dashoffset:0;stroke-width:1.5;"/>
    </g>
    <g id="line2d_2"/>
    <g id="text_11">
     <!-- Commit time series -->
     <defs>
      <path d="M 44.28125 53.078125 
L 44.28125 44.578125 
Q 40.484375 46.53125 36.375 47.5 
Q 32.28125 48.484375 27.875 48.484375 
Q 21.1875 48.484375 17.84375 46.4375 
Q 14.5 44.390625 14.5 40.28125 
Q 14.5 37.15625 16.890625 35.375 
Q 19.28125 33.59375 26.515625 31.984375 
L 29.59375 31.296875 
Q 39.15625 29.25 43.1875 25.515625 
Q 47.21875 21.78125 47.21875 15.09375 
Q 47.21875 7.46875 41.1875 3.015625 
Q 35.15625 -1.421875 24.609375 -1.421875 
Q 20.21875 -1.421875 15.453125 -0.5625 
Q 10.6875 0.296875 5.421875 2 
L 5.421875 11.28125 
Q 10.40625 8.6875 15.234375 7.390625 
Q 20.0625 6.109375 24.8125 6.109375 
Q 31.15625 6.109375 34.5625 8.28125 
Q 37.984375 10.453125 37.984375 14.40625 
Q 37.984375 18.0625 35.515625 20.015625 
Q 33.0625 21.96875 24.703125 23.78125 
L 21.578125 24.515625 
Q 13.234375 26.265625 9.515625 29.90625 
Q 5.8125 33.546875 5.8125 39.890625 
Q 5.8125 47.609375 11.28125 51.796875 
Q 16.75 56 26.8125 56 
Q 31.78125 56 36.171875 55.265625 
Q 40.578125 54.546875 44.28125 53.078125 
z
" id="DejaVuSans-115"/>
     </defs>
     <g style="fill:#ffffff;" transform="translate(769.670556 192.438914)scale(0.17 -0.17)">
      <use xlink:href="#DejaVuSans-67"/>
      <use x="69.824219" xlink:href="#DejaVuSans-111"/>
      <use x="131.005859" xlink:href="#DejaVuSans-109"/>
      <use x="228.417969" xlink:href="#DejaVuSans-109"/>
      <use x="325.830078" xlink:href="#DejaVuSans-105"/>
      <use x="353.613281" xlink:href="#DejaVuSans-116"/>
      <use x="392.822266" xlink:href="#DejaVuSans-32"/>
      <use x="424.609375" xlink:href="#DejaVuSans-116"/>
      <use x="463.818359" xlink:href="#DejaVuSans-105"/>
      <use x="491.601562" xlink:href="#DejaVuSans-109"/>
      <use x="589.013672" xlink:href="#DejaVuSans-101"/>
      <use x="650.537109" xlink:href="#DejaVuSans-32"/>
      <use x="682.324219" xlink:href="#DejaVuSans-115"/>
      <use x="734.423828" xlink:href="#DejaVuSans-101"/>
      <use x="795.947266" xlink:href="#DejaVuSans-114"/>
      <use x="837.060547" xlink:href="#DejaVuSans-105"/>
      <use x="864.84375" xlink:href="#DejaVuSans-101"/>
      <use x="926.367188" xlink:href="#DejaVuSans-115"/>
     </g>
    </g>
    <g id="line2d_3">
     <path d="M 722.070556 211.441726 
L 756.070556 211.441726 
" style="fill:none;stroke:#ffffff;stroke-linecap:square;stroke-width:1.5;"/>
    </g>
    <g id="line2d_4"/>
    <g id="text_12">
     <!-- Programming language -->
     <g style="fill:#ffffff;" transform="translate(769.670556 217.391726)scale(0.17 -0.17)">
      <use xlink:href="#DejaVuSans-80"/>
      <use x="60.287109" xlink:href="#DejaVuSans-114"/>
      <use x="101.369141" xlink:href="#DejaVuSans-111"/>
      <use x="162.550781" xlink:href="#DejaVuSans-103"/>
      <use x="226.027344" xlink:href="#DejaVuSans-114"/>
      <use x="267.140625" xlink:href="#DejaVuSans-97"/>
      <use x="328.419922" xlink:href="#DejaVuSans-109"/>
      <use x="425.832031" xlink:href="#DejaVuSans-109"/>
      <use x="523.244141" xlink:href="#DejaVuSans-105"/>
      <use x="551.027344" xlink:href="#DejaVuSans-110"/>
      <use x="614.40625" xlink:href="#DejaVuSans-103"/>
      <use x="677.882812" xlink:href="#DejaVuSans-32"/>
      <use x="709.669922" xlink:href="#DejaVuSans-108"/>
      <use x="737.453125" xlink:href="#DejaVuSans-97"/>
      <use x="798.732422" xlink:href="#DejaVuSans-110"/>
      <use x="862.111328" xlink:href="#DejaVuSans-103"/>
      <use x="925.587891" xlink:href="#DejaVuSans-117"/>
      <use x="988.966797" xlink:href="#DejaVuSans-97"/>
      <use x="1050.246094" xlink:href="#DejaVuSans-103"/>
      <use x="1113.722656" xlink:href="#DejaVuSans-101"/>
     </g>
    </g>
    <g id="line2d_5">
     <path d="M 722.070556 236.394539 
L 756.070556 236.394539 
" style="fill:none;stroke:#d3d3d3;stroke-dasharray:5.55,2.4;stroke-dashoffset:0;stroke-width:1.5;"/>
    </g>
    <g id="line2d_6"/>
    <g id="text_13">
     <!-- Source code identifiers -->
     <defs>
      <path d="M 53.515625 70.515625 
L 53.515625 60.890625 
Q 47.90625 63.578125 42.921875 64.890625 
Q 37.9375 66.21875 33.296875 66.21875 
Q 25.25 66.21875 20.875 63.09375 
Q 16.5 59.96875 16.5 54.203125 
Q 16.5 49.359375 19.40625 46.890625 
Q 22.3125 44.4375 30.421875 42.921875 
L 36.375 41.703125 
Q 47.40625 39.59375 52.65625 34.296875 
Q 57.90625 29 57.90625 20.125 
Q 57.90625 9.515625 50.796875 4.046875 
Q 43.703125 -1.421875 29.984375 -1.421875 
Q 24.8125 -1.421875 18.96875 -0.25 
Q 13.140625 0.921875 6.890625 3.21875 
L 6.890625 13.375 
Q 12.890625 10.015625 18.65625 8.296875 
Q 24.421875 6.59375 29.984375 6.59375 
Q 38.421875 6.59375 43.015625 9.90625 
Q 47.609375 13.234375 47.609375 19.390625 
Q 47.609375 24.75 44.3125 27.78125 
Q 41.015625 30.8125 33.5 32.328125 
L 27.484375 33.5 
Q 16.453125 35.6875 11.515625 40.375 
Q 6.59375 45.0625 6.59375 53.421875 
Q 6.59375 63.09375 13.40625 68.65625 
Q 20.21875 74.21875 32.171875 74.21875 
Q 37.3125 74.21875 42.625 73.28125 
Q 47.953125 72.359375 53.515625 70.515625 
z
" id="DejaVuSans-83"/>
      <path d="M 48.78125 52.59375 
L 48.78125 44.1875 
Q 44.96875 46.296875 41.140625 47.34375 
Q 37.3125 48.390625 33.40625 48.390625 
Q 24.65625 48.390625 19.8125 42.84375 
Q 14.984375 37.3125 14.984375 27.296875 
Q 14.984375 17.28125 19.8125 11.734375 
Q 24.65625 6.203125 33.40625 6.203125 
Q 37.3125 6.203125 41.140625 7.25 
Q 44.96875 8.296875 48.78125 10.40625 
L 48.78125 2.09375 
Q 45.015625 0.34375 40.984375 -0.53125 
Q 36.96875 -1.421875 32.421875 -1.421875 
Q 20.0625 -1.421875 12.78125 6.34375 
Q 5.515625 14.109375 5.515625 27.296875 
Q 5.515625 40.671875 12.859375 48.328125 
Q 20.21875 56 33.015625 56 
Q 37.15625 56 41.109375 55.140625 
Q 45.0625 54.296875 48.78125 52.59375 
z
" id="DejaVuSans-99"/>
      <path d="M 45.40625 46.390625 
L 45.40625 75.984375 
L 54.390625 75.984375 
L 54.390625 0 
L 45.40625 0 
L 45.40625 8.203125 
Q 42.578125 3.328125 38.25 0.953125 
Q 33.9375 -1.421875 27.875 -1.421875 
Q 17.96875 -1.421875 11.734375 6.484375 
Q 5.515625 14.40625 5.515625 27.296875 
Q 5.515625 40.1875 11.734375 48.09375 
Q 17.96875 56 27.875 56 
Q 33.9375 56 38.25 53.625 
Q 42.578125 51.265625 45.40625 46.390625 
z
M 14.796875 27.296875 
Q 14.796875 17.390625 18.875 11.75 
Q 22.953125 6.109375 30.078125 6.109375 
Q 37.203125 6.109375 41.296875 11.75 
Q 45.40625 17.390625 45.40625 27.296875 
Q 45.40625 37.203125 41.296875 42.84375 
Q 37.203125 48.484375 30.078125 48.484375 
Q 22.953125 48.484375 18.875 42.84375 
Q 14.796875 37.203125 14.796875 27.296875 
z
" id="DejaVuSans-100"/>
      <path d="M 37.109375 75.984375 
L 37.109375 68.5 
L 28.515625 68.5 
Q 23.6875 68.5 21.796875 66.546875 
Q 19.921875 64.59375 19.921875 59.515625 
L 19.921875 54.6875 
L 34.71875 54.6875 
L 34.71875 47.703125 
L 19.921875 47.703125 
L 19.921875 0 
L 10.890625 0 
L 10.890625 47.703125 
L 2.296875 47.703125 
L 2.296875 54.6875 
L 10.890625 54.6875 
L 10.890625 58.5 
Q 10.890625 67.625 15.140625 71.796875 
Q 19.390625 75.984375 28.609375 75.984375 
z
" id="DejaVuSans-102"/>
     </defs>
     <g style="fill:#ffffff;" transform="translate(769.670556 242.344539)scale(0.17 -0.17)">
      <use xlink:href="#DejaVuSans-83"/>
      <use x="63.476562" xlink:href="#DejaVuSans-111"/>
      <use x="124.658203" xlink:href="#DejaVuSans-117"/>
      <use x="188.037109" xlink:href="#DejaVuSans-114"/>
      <use x="229.119141" xlink:href="#DejaVuSans-99"/>
      <use x="284.099609" xlink:href="#DejaVuSans-101"/>
      <use x="345.623047" xlink:href="#DejaVuSans-32"/>
      <use x="377.410156" xlink:href="#DejaVuSans-99"/>
      <use x="432.390625" xlink:href="#DejaVuSans-111"/>
      <use x="493.572266" xlink:href="#DejaVuSans-100"/>
      <use x="557.048828" xlink:href="#DejaVuSans-101"/>
      <use x="618.572266" xlink:href="#DejaVuSans-32"/>
      <use x="650.359375" xlink:href="#DejaVuSans-105"/>
      <use x="678.142578" xlink:href="#DejaVuSans-100"/>
      <use x="741.619141" xlink:href="#DejaVuSans-101"/>
      <use x="803.142578" xlink:href="#DejaVuSans-110"/>
      <use x="866.521484" xlink:href="#DejaVuSans-116"/>
      <use x="905.730469" xlink:href="#DejaVuSans-105"/>
      <use x="933.513672" xlink:href="#DejaVuSans-102"/>
      <use x="968.71875" xlink:href="#DejaVuSans-105"/>
      <use x="996.501953" xlink:href="#DejaVuSans-101"/>
      <use x="1058.025391" xlink:href="#DejaVuSans-114"/>
      <use x="1099.138672" xlink:href="#DejaVuSans-115"/>
     </g>
    </g>
   </g>
   <g id="legend_2">
    <g id="text_14">
     <!-- $\bf{Engineering\:departments}$ -->
     <defs>
      <path d="M 9.1875 72.90625 
L 59.90625 72.90625 
L 59.90625 58.6875 
L 27.984375 58.6875 
L 27.984375 45.125 
L 58.015625 45.125 
L 58.015625 30.90625 
L 27.984375 30.90625 
L 27.984375 14.203125 
L 60.984375 14.203125 
L 60.984375 0 
L 9.1875 0 
z
" id="DejaVuSans-Bold-69"/>
      <path d="M 25.875 7.90625 
L 25.875 -20.796875 
L 8.40625 -20.796875 
L 8.40625 54.6875 
L 25.875 54.6875 
L 25.875 46.6875 
Q 29.5 51.46875 33.890625 53.734375 
Q 38.28125 56 44 56 
Q 54.109375 56 60.59375 47.96875 
Q 67.09375 39.9375 67.09375 27.296875 
Q 67.09375 14.65625 60.59375 6.609375 
Q 54.109375 -1.421875 44 -1.421875 
Q 38.28125 -1.421875 33.890625 0.84375 
Q 29.5 3.125 25.875 7.90625 
z
M 37.5 43.3125 
Q 31.890625 43.3125 28.875 39.1875 
Q 25.875 35.0625 25.875 27.296875 
Q 25.875 19.53125 28.875 15.40625 
Q 31.890625 11.28125 37.5 11.28125 
Q 43.109375 11.28125 46.0625 15.375 
Q 49.03125 19.484375 49.03125 27.296875 
Q 49.03125 35.109375 46.0625 39.203125 
Q 43.109375 43.3125 37.5 43.3125 
z
" id="DejaVuSans-Bold-112"/>
     </defs>
     <g style="fill:#ffffff;" transform="translate(722.070556 35.42)scale(0.17 -0.17)">
      <use transform="translate(0 0.015625)" xlink:href="#DejaVuSans-Bold-69"/>
      <use transform="translate(68.310547 0.015625)" xlink:href="#DejaVuSans-Bold-110"/>
      <use transform="translate(139.501953 0.015625)" xlink:href="#DejaVuSans-Bold-103"/>
      <use transform="translate(211.083984 0.015625)" xlink:href="#DejaVuSans-Bold-105"/>
      <use transform="translate(245.361328 0.015625)" xlink:href="#DejaVuSans-Bold-110"/>
      <use transform="translate(316.552734 0.015625)" xlink:href="#DejaVuSans-Bold-101"/>
      <use transform="translate(384.375 0.015625)" xlink:href="#DejaVuSans-Bold-101"/>
      <use transform="translate(452.197266 0.015625)" xlink:href="#DejaVuSans-Bold-114"/>
      <use transform="translate(501.513672 0.015625)" xlink:href="#DejaVuSans-Bold-105"/>
      <use transform="translate(535.791016 0.015625)" xlink:href="#DejaVuSans-Bold-110"/>
      <use transform="translate(606.982422 0.015625)" xlink:href="#DejaVuSans-Bold-103"/>
      <use transform="translate(701.719604 0.015625)" xlink:href="#DejaVuSans-Bold-100"/>
      <use transform="translate(773.301635 0.015625)" xlink:href="#DejaVuSans-Bold-101"/>
      <use transform="translate(841.1239 0.015625)" xlink:href="#DejaVuSans-Bold-112"/>
      <use transform="translate(912.705932 0.015625)" xlink:href="#DejaVuSans-Bold-97"/>
      <use transform="translate(980.1864 0.015625)" xlink:href="#DejaVuSans-Bold-114"/>
      <use transform="translate(1029.502807 0.015625)" xlink:href="#DejaVuSans-Bold-116"/>
      <use transform="translate(1077.305541 0.015625)" xlink:href="#DejaVuSans-Bold-109"/>
      <use transform="translate(1181.50476 0.015625)" xlink:href="#DejaVuSans-Bold-101"/>
      <use transform="translate(1249.327025 0.015625)" xlink:href="#DejaVuSans-Bold-110"/>
      <use transform="translate(1320.518432 0.015625)" xlink:href="#DejaVuSans-Bold-116"/>
      <use transform="translate(1368.321166 0.015625)" xlink:href="#DejaVuSans-Bold-115"/>
     </g>
    </g>
    <g id="patch_56">
     <path d="M 722.070556 64.077344 
L 756.070556 64.077344 
L 756.070556 52.177344 
L 722.070556 52.177344 
z
" style="fill:#2e7ebc;stroke:#2e7ebc;stroke-linejoin:miter;"/>
    </g>
    <g id="text_15">
     <!-- Backend -->
     <defs>
      <path d="M 9.078125 75.984375 
L 18.109375 75.984375 
L 18.109375 31.109375 
L 44.921875 54.6875 
L 56.390625 54.6875 
L 27.390625 29.109375 
L 57.625 0 
L 45.90625 0 
L 18.109375 26.703125 
L 18.109375 0 
L 9.078125 0 
z
" id="DejaVuSans-107"/>
     </defs>
     <g style="fill:#ffffff;" transform="translate(769.670556 64.077344)scale(0.17 -0.17)">
      <use xlink:href="#DejaVuSans-66"/>
      <use x="68.603516" xlink:href="#DejaVuSans-97"/>
      <use x="129.882812" xlink:href="#DejaVuSans-99"/>
      <use x="184.863281" xlink:href="#DejaVuSans-107"/>
      <use x="242.726562" xlink:href="#DejaVuSans-101"/>
      <use x="304.25" xlink:href="#DejaVuSans-110"/>
      <use x="367.628906" xlink:href="#DejaVuSans-100"/>
     </g>
    </g>
    <g id="patch_57">
     <path d="M 722.070556 89.030156 
L 756.070556 89.030156 
L 756.070556 77.130156 
L 722.070556 77.130156 
z
" style="fill:#3ba358;stroke:#3ba358;stroke-linejoin:miter;"/>
    </g>
    <g id="text_16">
     <!-- Git -->
     <g style="fill:#ffffff;" transform="translate(769.670556 89.030156)scale(0.17 -0.17)">
      <use xlink:href="#DejaVuSans-71"/>
      <use x="77.490234" xlink:href="#DejaVuSans-105"/>
      <use x="105.273438" xlink:href="#DejaVuSans-116"/>
     </g>
    </g>
    <g id="patch_58">
     <path d="M 722.070556 113.982969 
L 756.070556 113.982969 
L 756.070556 102.082969 
L 722.070556 102.082969 
z
" style="fill:#fe9829;stroke:#fe9829;stroke-linejoin:miter;"/>
    </g>
    <g id="text_17">
     <!-- Frontend -->
     <g style="fill:#ffffff;" transform="translate(769.670556 113.982969)scale(0.17 -0.17)">
      <use xlink:href="#DejaVuSans-70"/>
      <use x="57.410156" xlink:href="#DejaVuSans-114"/>
      <use x="98.492188" xlink:href="#DejaVuSans-111"/>
      <use x="159.673828" xlink:href="#DejaVuSans-110"/>
      <use x="223.052734" xlink:href="#DejaVuSans-116"/>
      <use x="262.261719" xlink:href="#DejaVuSans-101"/>
      <use x="323.785156" xlink:href="#DejaVuSans-110"/>
      <use x="387.164062" xlink:href="#DejaVuSans-100"/>
     </g>
    </g>
    <g id="patch_59">
     <path d="M 880.279463 64.077344 
L 914.279463 64.077344 
L 914.279463 52.177344 
L 880.279463 52.177344 
z
" style="fill:#d92523;stroke:#d92523;stroke-linejoin:miter;"/>
    </g>
    <g id="text_18">
     <!-- Core -->
     <g style="fill:#ffffff;" transform="translate(927.879463 64.077344)scale(0.17 -0.17)">
      <use xlink:href="#DejaVuSans-67"/>
      <use x="69.824219" xlink:href="#DejaVuSans-111"/>
      <use x="131.005859" xlink:href="#DejaVuSans-114"/>
      <use x="172.087891" xlink:href="#DejaVuSans-101"/>
     </g>
    </g>
    <g id="patch_60">
     <path d="M 880.279463 89.030156 
L 914.279463 89.030156 
L 914.279463 77.130156 
L 880.279463 77.130156 
z
" style="fill:#404040;stroke:#404040;stroke-linejoin:miter;"/>
    </g>
    <g id="text_19">
     <!-- QE -->
     <defs>
      <path d="M 39.40625 66.21875 
Q 28.65625 66.21875 22.328125 58.203125 
Q 16.015625 50.203125 16.015625 36.375 
Q 16.015625 22.609375 22.328125 14.59375 
Q 28.65625 6.59375 39.40625 6.59375 
Q 50.140625 6.59375 56.421875 14.59375 
Q 62.703125 22.609375 62.703125 36.375 
Q 62.703125 50.203125 56.421875 58.203125 
Q 50.140625 66.21875 39.40625 66.21875 
z
M 53.21875 1.3125 
L 66.21875 -12.890625 
L 54.296875 -12.890625 
L 43.5 -1.21875 
Q 41.890625 -1.3125 41.03125 -1.359375 
Q 40.1875 -1.421875 39.40625 -1.421875 
Q 24.03125 -1.421875 14.8125 8.859375 
Q 5.609375 19.140625 5.609375 36.375 
Q 5.609375 53.65625 14.8125 63.9375 
Q 24.03125 74.21875 39.40625 74.21875 
Q 54.734375 74.21875 63.90625 63.9375 
Q 73.09375 53.65625 73.09375 36.375 
Q 73.09375 23.6875 67.984375 14.640625 
Q 62.890625 5.609375 53.21875 1.3125 
z
" id="DejaVuSans-81"/>
     </defs>
     <g style="fill:#ffffff;" transform="translate(927.879463 89.030156)scale(0.17 -0.17)">
      <use xlink:href="#DejaVuSans-81"/>
      <use x="78.710938" xlink:href="#DejaVuSans-69"/>
     </g>
    </g>
    <g id="patch_61">
     <path d="M 880.279463 113.982969 
L 914.279463 113.982969 
L 914.279463 102.082969 
L 880.279463 102.082969 
z
" style="fill:#c01588;stroke:#c01588;stroke-linejoin:miter;"/>
    </g>
    <g id="text_20">
     <!-- UX -->
     <g style="fill:#ffffff;" transform="translate(927.879463 113.982969)scale(0.17 -0.17)">
      <use xlink:href="#DejaVuSans-85"/>
      <use x="73.193359" xlink:href="#DejaVuSans-88"/>
     </g>
    </g>
   </g>
  </g>
 </g>
</svg>
